<?xml version="1.0" encoding="utf-8" standalone="no"?>
<!DOCTYPE svg PUBLIC "-//W3C//DTD SVG 1.1//EN"
  "http://www.w3.org/Graphics/SVG/1.1/DTD/svg11.dtd">
<!-- Created with matplotlib (https://matplotlib.org/) -->
<svg height="453.143937pt" version="1.1" viewBox="0 0 647.35025 453.143937" width="647.35025pt" xmlns="http://www.w3.org/2000/svg" xmlns:xlink="http://www.w3.org/1999/xlink">
 <defs>
  <style type="text/css">
*{stroke-linecap:butt;stroke-linejoin:round;}
  </style>
 </defs>
 <g id="figure_1">
  <g id="patch_1">
   <path d="M 0 453.143937 
L 647.35025 453.143937 
L 647.35025 0 
L 0 0 
z
" style="fill:none;"/>
  </g>
  <g id="axes_1">
   <g id="patch_2">
    <path d="M 71.46125 394.102688 
L 629.46125 394.102688 
L 629.46125 13.582688 
L 71.46125 13.582688 
z
" style="fill:none;"/>
   </g>
   <g id="matplotlib.axis_1">
    <g id="xtick_1">
     <g id="line2d_1">
      <defs>
       <path d="M 0 0 
L 0 6 
" id="m7ebc76ffad" style="stroke:#3f3d46;"/>
      </defs>
      <g>
       <use style="fill:#3f3d46;stroke:#3f3d46;" x="71.46125" xlink:href="#m7ebc76ffad" y="394.102688"/>
      </g>
     </g>
     <g id="text_1">
      <!-- 0 -->
      <defs>
       <path d="M 31.78125 66.40625 
Q 24.171875 66.40625 20.328125 58.90625 
Q 16.5 51.421875 16.5 36.375 
Q 16.5 21.390625 20.328125 13.890625 
Q 24.171875 6.390625 31.78125 6.390625 
Q 39.453125 6.390625 43.28125 13.890625 
Q 47.125 21.390625 47.125 36.375 
Q 47.125 51.421875 43.28125 58.90625 
Q 39.453125 66.40625 31.78125 66.40625 
z
M 31.78125 74.21875 
Q 44.046875 74.21875 50.515625 64.515625 
Q 56.984375 54.828125 56.984375 36.375 
Q 56.984375 17.96875 50.515625 8.265625 
Q 44.046875 -1.421875 31.78125 -1.421875 
Q 19.53125 -1.421875 13.0625 8.265625 
Q 6.59375 17.96875 6.59375 36.375 
Q 6.59375 54.828125 13.0625 64.515625 
Q 19.53125 74.21875 31.78125 74.21875 
z
" id="DejaVuSans-48"/>
      </defs>
      <g style="fill:#3f3d46;" transform="translate(66.11675 419.868063)scale(0.168 -0.168)">
       <use xlink:href="#DejaVuSans-48"/>
      </g>
     </g>
    </g>
    <g id="xtick_2">
     <g id="line2d_2">
      <g>
       <use style="fill:#3f3d46;stroke:#3f3d46;" x="151.175536" xlink:href="#m7ebc76ffad" y="394.102688"/>
      </g>
     </g>
     <g id="text_2">
      <!-- 2 -->
      <defs>
       <path d="M 19.1875 8.296875 
L 53.609375 8.296875 
L 53.609375 0 
L 7.328125 0 
L 7.328125 8.296875 
Q 12.9375 14.109375 22.625 23.890625 
Q 32.328125 33.6875 34.8125 36.53125 
Q 39.546875 41.84375 41.421875 45.53125 
Q 43.3125 49.21875 43.3125 52.78125 
Q 43.3125 58.59375 39.234375 62.25 
Q 35.15625 65.921875 28.609375 65.921875 
Q 23.96875 65.921875 18.8125 64.3125 
Q 13.671875 62.703125 7.8125 59.421875 
L 7.8125 69.390625 
Q 13.765625 71.78125 18.9375 73 
Q 24.125 74.21875 28.421875 74.21875 
Q 39.75 74.21875 46.484375 68.546875 
Q 53.21875 62.890625 53.21875 53.421875 
Q 53.21875 48.921875 51.53125 44.890625 
Q 49.859375 40.875 45.40625 35.40625 
Q 44.1875 33.984375 37.640625 27.21875 
Q 31.109375 20.453125 19.1875 8.296875 
z
" id="DejaVuSans-50"/>
      </defs>
      <g style="fill:#3f3d46;" transform="translate(145.831036 419.868063)scale(0.168 -0.168)">
       <use xlink:href="#DejaVuSans-50"/>
      </g>
     </g>
    </g>
    <g id="xtick_3">
     <g id="line2d_3">
      <g>
       <use style="fill:#3f3d46;stroke:#3f3d46;" x="230.889821" xlink:href="#m7ebc76ffad" y="394.102688"/>
      </g>
     </g>
     <g id="text_3">
      <!-- 4 -->
      <defs>
       <path d="M 37.796875 64.3125 
L 12.890625 25.390625 
L 37.796875 25.390625 
z
M 35.203125 72.90625 
L 47.609375 72.90625 
L 47.609375 25.390625 
L 58.015625 25.390625 
L 58.015625 17.1875 
L 47.609375 17.1875 
L 47.609375 0 
L 37.796875 0 
L 37.796875 17.1875 
L 4.890625 17.1875 
L 4.890625 26.703125 
z
" id="DejaVuSans-52"/>
      </defs>
      <g style="fill:#3f3d46;" transform="translate(225.545321 419.868063)scale(0.168 -0.168)">
       <use xlink:href="#DejaVuSans-52"/>
      </g>
     </g>
    </g>
    <g id="xtick_4">
     <g id="line2d_4">
      <g>
       <use style="fill:#3f3d46;stroke:#3f3d46;" x="310.604107" xlink:href="#m7ebc76ffad" y="394.102688"/>
      </g>
     </g>
     <g id="text_4">
      <!-- 6 -->
      <defs>
       <path d="M 33.015625 40.375 
Q 26.375 40.375 22.484375 35.828125 
Q 18.609375 31.296875 18.609375 23.390625 
Q 18.609375 15.53125 22.484375 10.953125 
Q 26.375 6.390625 33.015625 6.390625 
Q 39.65625 6.390625 43.53125 10.953125 
Q 47.40625 15.53125 47.40625 23.390625 
Q 47.40625 31.296875 43.53125 35.828125 
Q 39.65625 40.375 33.015625 40.375 
z
M 52.59375 71.296875 
L 52.59375 62.3125 
Q 48.875 64.0625 45.09375 64.984375 
Q 41.3125 65.921875 37.59375 65.921875 
Q 27.828125 65.921875 22.671875 59.328125 
Q 17.53125 52.734375 16.796875 39.40625 
Q 19.671875 43.65625 24.015625 45.921875 
Q 28.375 48.1875 33.59375 48.1875 
Q 44.578125 48.1875 50.953125 41.515625 
Q 57.328125 34.859375 57.328125 23.390625 
Q 57.328125 12.15625 50.6875 5.359375 
Q 44.046875 -1.421875 33.015625 -1.421875 
Q 20.359375 -1.421875 13.671875 8.265625 
Q 6.984375 17.96875 6.984375 36.375 
Q 6.984375 53.65625 15.1875 63.9375 
Q 23.390625 74.21875 37.203125 74.21875 
Q 40.921875 74.21875 44.703125 73.484375 
Q 48.484375 72.75 52.59375 71.296875 
z
" id="DejaVuSans-54"/>
      </defs>
      <g style="fill:#3f3d46;" transform="translate(305.259607 419.868063)scale(0.168 -0.168)">
       <use xlink:href="#DejaVuSans-54"/>
      </g>
     </g>
    </g>
    <g id="xtick_5">
     <g id="line2d_5">
      <g>
       <use style="fill:#3f3d46;stroke:#3f3d46;" x="390.318393" xlink:href="#m7ebc76ffad" y="394.102688"/>
      </g>
     </g>
     <g id="text_5">
      <!-- 8 -->
      <defs>
       <path d="M 31.78125 34.625 
Q 24.75 34.625 20.71875 30.859375 
Q 16.703125 27.09375 16.703125 20.515625 
Q 16.703125 13.921875 20.71875 10.15625 
Q 24.75 6.390625 31.78125 6.390625 
Q 38.8125 6.390625 42.859375 10.171875 
Q 46.921875 13.96875 46.921875 20.515625 
Q 46.921875 27.09375 42.890625 30.859375 
Q 38.875 34.625 31.78125 34.625 
z
M 21.921875 38.8125 
Q 15.578125 40.375 12.03125 44.71875 
Q 8.5 49.078125 8.5 55.328125 
Q 8.5 64.0625 14.71875 69.140625 
Q 20.953125 74.21875 31.78125 74.21875 
Q 42.671875 74.21875 48.875 69.140625 
Q 55.078125 64.0625 55.078125 55.328125 
Q 55.078125 49.078125 51.53125 44.71875 
Q 48 40.375 41.703125 38.8125 
Q 48.828125 37.15625 52.796875 32.3125 
Q 56.78125 27.484375 56.78125 20.515625 
Q 56.78125 9.90625 50.3125 4.234375 
Q 43.84375 -1.421875 31.78125 -1.421875 
Q 19.734375 -1.421875 13.25 4.234375 
Q 6.78125 9.90625 6.78125 20.515625 
Q 6.78125 27.484375 10.78125 32.3125 
Q 14.796875 37.15625 21.921875 38.8125 
z
M 18.3125 54.390625 
Q 18.3125 48.734375 21.84375 45.5625 
Q 25.390625 42.390625 31.78125 42.390625 
Q 38.140625 42.390625 41.71875 45.5625 
Q 45.3125 48.734375 45.3125 54.390625 
Q 45.3125 60.0625 41.71875 63.234375 
Q 38.140625 66.40625 31.78125 66.40625 
Q 25.390625 66.40625 21.84375 63.234375 
Q 18.3125 60.0625 18.3125 54.390625 
z
" id="DejaVuSans-56"/>
      </defs>
      <g style="fill:#3f3d46;" transform="translate(384.973893 419.868063)scale(0.168 -0.168)">
       <use xlink:href="#DejaVuSans-56"/>
      </g>
     </g>
    </g>
    <g id="xtick_6">
     <g id="line2d_6">
      <g>
       <use style="fill:#3f3d46;stroke:#3f3d46;" x="470.032679" xlink:href="#m7ebc76ffad" y="394.102688"/>
      </g>
     </g>
     <g id="text_6">
      <!-- 10 -->
      <defs>
       <path d="M 12.40625 8.296875 
L 28.515625 8.296875 
L 28.515625 63.921875 
L 10.984375 60.40625 
L 10.984375 69.390625 
L 28.421875 72.90625 
L 38.28125 72.90625 
L 38.28125 8.296875 
L 54.390625 8.296875 
L 54.390625 0 
L 12.40625 0 
z
" id="DejaVuSans-49"/>
      </defs>
      <g style="fill:#3f3d46;" transform="translate(459.343679 419.868063)scale(0.168 -0.168)">
       <use xlink:href="#DejaVuSans-49"/>
       <use x="63.623047" xlink:href="#DejaVuSans-48"/>
      </g>
     </g>
    </g>
    <g id="xtick_7">
     <g id="line2d_7">
      <g>
       <use style="fill:#3f3d46;stroke:#3f3d46;" x="549.746964" xlink:href="#m7ebc76ffad" y="394.102688"/>
      </g>
     </g>
     <g id="text_7">
      <!-- 12 -->
      <g style="fill:#3f3d46;" transform="translate(539.057964 419.868063)scale(0.168 -0.168)">
       <use xlink:href="#DejaVuSans-49"/>
       <use x="63.623047" xlink:href="#DejaVuSans-50"/>
      </g>
     </g>
    </g>
    <g id="xtick_8">
     <g id="line2d_8">
      <g>
       <use style="fill:#3f3d46;stroke:#3f3d46;" x="629.46125" xlink:href="#m7ebc76ffad" y="394.102688"/>
      </g>
     </g>
     <g id="text_8">
      <!-- 14 -->
      <g style="fill:#3f3d46;" transform="translate(618.77225 419.868063)scale(0.168 -0.168)">
       <use xlink:href="#DejaVuSans-49"/>
       <use x="63.623047" xlink:href="#DejaVuSans-52"/>
      </g>
     </g>
    </g>
    <g id="text_9">
     <!-- Age [Gyr] -->
     <defs>
      <path d="M 34.1875 63.1875 
L 20.796875 26.90625 
L 47.609375 26.90625 
z
M 28.609375 72.90625 
L 39.796875 72.90625 
L 67.578125 0 
L 57.328125 0 
L 50.6875 18.703125 
L 17.828125 18.703125 
L 11.1875 0 
L 0.78125 0 
z
" id="DejaVuSans-65"/>
      <path d="M 45.40625 27.984375 
Q 45.40625 37.75 41.375 43.109375 
Q 37.359375 48.484375 30.078125 48.484375 
Q 22.859375 48.484375 18.828125 43.109375 
Q 14.796875 37.75 14.796875 27.984375 
Q 14.796875 18.265625 18.828125 12.890625 
Q 22.859375 7.515625 30.078125 7.515625 
Q 37.359375 7.515625 41.375 12.890625 
Q 45.40625 18.265625 45.40625 27.984375 
z
M 54.390625 6.78125 
Q 54.390625 -7.171875 48.1875 -13.984375 
Q 42 -20.796875 29.203125 -20.796875 
Q 24.46875 -20.796875 20.265625 -20.09375 
Q 16.0625 -19.390625 12.109375 -17.921875 
L 12.109375 -9.1875 
Q 16.0625 -11.328125 19.921875 -12.34375 
Q 23.78125 -13.375 27.78125 -13.375 
Q 36.625 -13.375 41.015625 -8.765625 
Q 45.40625 -4.15625 45.40625 5.171875 
L 45.40625 9.625 
Q 42.625 4.78125 38.28125 2.390625 
Q 33.9375 0 27.875 0 
Q 17.828125 0 11.671875 7.65625 
Q 5.515625 15.328125 5.515625 27.984375 
Q 5.515625 40.671875 11.671875 48.328125 
Q 17.828125 56 27.875 56 
Q 33.9375 56 38.28125 53.609375 
Q 42.625 51.21875 45.40625 46.390625 
L 45.40625 54.6875 
L 54.390625 54.6875 
z
" id="DejaVuSans-103"/>
      <path d="M 56.203125 29.59375 
L 56.203125 25.203125 
L 14.890625 25.203125 
Q 15.484375 15.921875 20.484375 11.0625 
Q 25.484375 6.203125 34.421875 6.203125 
Q 39.59375 6.203125 44.453125 7.46875 
Q 49.3125 8.734375 54.109375 11.28125 
L 54.109375 2.78125 
Q 49.265625 0.734375 44.1875 -0.34375 
Q 39.109375 -1.421875 33.890625 -1.421875 
Q 20.796875 -1.421875 13.15625 6.1875 
Q 5.515625 13.8125 5.515625 26.8125 
Q 5.515625 40.234375 12.765625 48.109375 
Q 20.015625 56 32.328125 56 
Q 43.359375 56 49.78125 48.890625 
Q 56.203125 41.796875 56.203125 29.59375 
z
M 47.21875 32.234375 
Q 47.125 39.59375 43.09375 43.984375 
Q 39.0625 48.390625 32.421875 48.390625 
Q 24.90625 48.390625 20.390625 44.140625 
Q 15.875 39.890625 15.1875 32.171875 
z
" id="DejaVuSans-101"/>
      <path id="DejaVuSans-32"/>
      <path d="M 8.59375 75.984375 
L 29.296875 75.984375 
L 29.296875 69 
L 17.578125 69 
L 17.578125 -6.203125 
L 29.296875 -6.203125 
L 29.296875 -13.1875 
L 8.59375 -13.1875 
z
" id="DejaVuSans-91"/>
      <path d="M 59.515625 10.40625 
L 59.515625 29.984375 
L 43.40625 29.984375 
L 43.40625 38.09375 
L 69.28125 38.09375 
L 69.28125 6.78125 
Q 63.578125 2.734375 56.6875 0.65625 
Q 49.8125 -1.421875 42 -1.421875 
Q 24.90625 -1.421875 15.25 8.5625 
Q 5.609375 18.5625 5.609375 36.375 
Q 5.609375 54.25 15.25 64.234375 
Q 24.90625 74.21875 42 74.21875 
Q 49.125 74.21875 55.546875 72.453125 
Q 61.96875 70.703125 67.390625 67.28125 
L 67.390625 56.78125 
Q 61.921875 61.421875 55.765625 63.765625 
Q 49.609375 66.109375 42.828125 66.109375 
Q 29.4375 66.109375 22.71875 58.640625 
Q 16.015625 51.171875 16.015625 36.375 
Q 16.015625 21.625 22.71875 14.15625 
Q 29.4375 6.6875 42.828125 6.6875 
Q 48.046875 6.6875 52.140625 7.59375 
Q 56.25 8.5 59.515625 10.40625 
z
" id="DejaVuSans-71"/>
      <path d="M 32.171875 -5.078125 
Q 28.375 -14.84375 24.75 -17.8125 
Q 21.140625 -20.796875 15.09375 -20.796875 
L 7.90625 -20.796875 
L 7.90625 -13.28125 
L 13.1875 -13.28125 
Q 16.890625 -13.28125 18.9375 -11.515625 
Q 21 -9.765625 23.484375 -3.21875 
L 25.09375 0.875 
L 2.984375 54.6875 
L 12.5 54.6875 
L 29.59375 11.921875 
L 46.6875 54.6875 
L 56.203125 54.6875 
z
" id="DejaVuSans-121"/>
      <path d="M 41.109375 46.296875 
Q 39.59375 47.171875 37.8125 47.578125 
Q 36.03125 48 33.890625 48 
Q 26.265625 48 22.1875 43.046875 
Q 18.109375 38.09375 18.109375 28.8125 
L 18.109375 0 
L 9.078125 0 
L 9.078125 54.6875 
L 18.109375 54.6875 
L 18.109375 46.1875 
Q 20.953125 51.171875 25.484375 53.578125 
Q 30.03125 56 36.53125 56 
Q 37.453125 56 38.578125 55.875 
Q 39.703125 55.765625 41.0625 55.515625 
z
" id="DejaVuSans-114"/>
      <path d="M 30.421875 75.984375 
L 30.421875 -13.1875 
L 9.71875 -13.1875 
L 9.71875 -6.203125 
L 21.390625 -6.203125 
L 21.390625 69 
L 9.71875 69 
L 9.71875 75.984375 
z
" id="DejaVuSans-93"/>
     </defs>
     <g style="fill:#3f3d46;" transform="translate(304.28375 441.950938)scale(0.192 -0.192)">
      <use xlink:href="#DejaVuSans-65"/>
      <use x="68.408203" xlink:href="#DejaVuSans-103"/>
      <use x="131.884766" xlink:href="#DejaVuSans-101"/>
      <use x="193.408203" xlink:href="#DejaVuSans-32"/>
      <use x="225.195312" xlink:href="#DejaVuSans-91"/>
      <use x="264.208984" xlink:href="#DejaVuSans-71"/>
      <use x="341.699219" xlink:href="#DejaVuSans-121"/>
      <use x="400.878906" xlink:href="#DejaVuSans-114"/>
      <use x="441.992188" xlink:href="#DejaVuSans-93"/>
     </g>
    </g>
   </g>
   <g id="matplotlib.axis_2">
    <g id="ytick_1">
     <g id="line2d_9">
      <defs>
       <path d="M 0 0 
L -6 0 
" id="m2cb2dec51e" style="stroke:#3f3d46;"/>
      </defs>
      <g>
       <use style="fill:#3f3d46;stroke:#3f3d46;" x="71.46125" xlink:href="#m2cb2dec51e" y="394.102687"/>
      </g>
     </g>
     <g id="text_10">
      <!-- 0.7 -->
      <defs>
       <path d="M 10.6875 12.40625 
L 21 12.40625 
L 21 0 
L 10.6875 0 
z
" id="DejaVuSans-46"/>
       <path d="M 8.203125 72.90625 
L 55.078125 72.90625 
L 55.078125 68.703125 
L 28.609375 0 
L 18.3125 0 
L 43.21875 64.59375 
L 8.203125 64.59375 
z
" id="DejaVuSans-55"/>
      </defs>
      <g style="fill:#3f3d46;" transform="translate(31.744 400.485375)scale(0.168 -0.168)">
       <use xlink:href="#DejaVuSans-48"/>
       <use x="63.623047" xlink:href="#DejaVuSans-46"/>
       <use x="95.410156" xlink:href="#DejaVuSans-55"/>
      </g>
     </g>
    </g>
    <g id="ytick_2">
     <g id="line2d_10">
      <g>
       <use style="fill:#3f3d46;stroke:#3f3d46;" x="71.46125" xlink:href="#m2cb2dec51e" y="317.998687"/>
      </g>
     </g>
     <g id="text_11">
      <!-- 0.8 -->
      <g style="fill:#3f3d46;" transform="translate(31.744 324.381375)scale(0.168 -0.168)">
       <use xlink:href="#DejaVuSans-48"/>
       <use x="63.623047" xlink:href="#DejaVuSans-46"/>
       <use x="95.410156" xlink:href="#DejaVuSans-56"/>
      </g>
     </g>
    </g>
    <g id="ytick_3">
     <g id="line2d_11">
      <g>
       <use style="fill:#3f3d46;stroke:#3f3d46;" x="71.46125" xlink:href="#m2cb2dec51e" y="241.894687"/>
      </g>
     </g>
     <g id="text_12">
      <!-- 0.9 -->
      <defs>
       <path d="M 10.984375 1.515625 
L 10.984375 10.5 
Q 14.703125 8.734375 18.5 7.8125 
Q 22.3125 6.890625 25.984375 6.890625 
Q 35.75 6.890625 40.890625 13.453125 
Q 46.046875 20.015625 46.78125 33.40625 
Q 43.953125 29.203125 39.59375 26.953125 
Q 35.25 24.703125 29.984375 24.703125 
Q 19.046875 24.703125 12.671875 31.3125 
Q 6.296875 37.9375 6.296875 49.421875 
Q 6.296875 60.640625 12.9375 67.421875 
Q 19.578125 74.21875 30.609375 74.21875 
Q 43.265625 74.21875 49.921875 64.515625 
Q 56.59375 54.828125 56.59375 36.375 
Q 56.59375 19.140625 48.40625 8.859375 
Q 40.234375 -1.421875 26.421875 -1.421875 
Q 22.703125 -1.421875 18.890625 -0.6875 
Q 15.09375 0.046875 10.984375 1.515625 
z
M 30.609375 32.421875 
Q 37.25 32.421875 41.125 36.953125 
Q 45.015625 41.5 45.015625 49.421875 
Q 45.015625 57.28125 41.125 61.84375 
Q 37.25 66.40625 30.609375 66.40625 
Q 23.96875 66.40625 20.09375 61.84375 
Q 16.21875 57.28125 16.21875 49.421875 
Q 16.21875 41.5 20.09375 36.953125 
Q 23.96875 32.421875 30.609375 32.421875 
z
" id="DejaVuSans-57"/>
      </defs>
      <g style="fill:#3f3d46;" transform="translate(31.744 248.277375)scale(0.168 -0.168)">
       <use xlink:href="#DejaVuSans-48"/>
       <use x="63.623047" xlink:href="#DejaVuSans-46"/>
       <use x="95.410156" xlink:href="#DejaVuSans-57"/>
      </g>
     </g>
    </g>
    <g id="ytick_4">
     <g id="line2d_12">
      <g>
       <use style="fill:#3f3d46;stroke:#3f3d46;" x="71.46125" xlink:href="#m2cb2dec51e" y="165.790687"/>
      </g>
     </g>
     <g id="text_13">
      <!-- 1.0 -->
      <g style="fill:#3f3d46;" transform="translate(31.744 172.173375)scale(0.168 -0.168)">
       <use xlink:href="#DejaVuSans-49"/>
       <use x="63.623047" xlink:href="#DejaVuSans-46"/>
       <use x="95.410156" xlink:href="#DejaVuSans-48"/>
      </g>
     </g>
    </g>
    <g id="ytick_5">
     <g id="line2d_13">
      <g>
       <use style="fill:#3f3d46;stroke:#3f3d46;" x="71.46125" xlink:href="#m2cb2dec51e" y="89.686687"/>
      </g>
     </g>
     <g id="text_14">
      <!-- 1.1 -->
      <g style="fill:#3f3d46;" transform="translate(31.744 96.069375)scale(0.168 -0.168)">
       <use xlink:href="#DejaVuSans-49"/>
       <use x="63.623047" xlink:href="#DejaVuSans-46"/>
       <use x="95.410156" xlink:href="#DejaVuSans-49"/>
      </g>
     </g>
    </g>
    <g id="ytick_6">
     <g id="line2d_14">
      <g>
       <use style="fill:#3f3d46;stroke:#3f3d46;" x="71.46125" xlink:href="#m2cb2dec51e" y="13.582687"/>
      </g>
     </g>
     <g id="text_15">
      <!-- 1.2 -->
      <g style="fill:#3f3d46;" transform="translate(31.744 19.965375)scale(0.168 -0.168)">
       <use xlink:href="#DejaVuSans-49"/>
       <use x="63.623047" xlink:href="#DejaVuSans-46"/>
       <use x="95.410156" xlink:href="#DejaVuSans-50"/>
      </g>
     </g>
    </g>
    <g id="text_16">
     <!-- Radius  [$R_J$] -->
     <defs>
      <path d="M 44.390625 34.1875 
Q 47.5625 33.109375 50.5625 29.59375 
Q 53.5625 26.078125 56.59375 19.921875 
L 66.609375 0 
L 56 0 
L 46.6875 18.703125 
Q 43.0625 26.03125 39.671875 28.421875 
Q 36.28125 30.8125 30.421875 30.8125 
L 19.671875 30.8125 
L 19.671875 0 
L 9.8125 0 
L 9.8125 72.90625 
L 32.078125 72.90625 
Q 44.578125 72.90625 50.734375 67.671875 
Q 56.890625 62.453125 56.890625 51.90625 
Q 56.890625 45.015625 53.6875 40.46875 
Q 50.484375 35.9375 44.390625 34.1875 
z
M 19.671875 64.796875 
L 19.671875 38.921875 
L 32.078125 38.921875 
Q 39.203125 38.921875 42.84375 42.21875 
Q 46.484375 45.515625 46.484375 51.90625 
Q 46.484375 58.296875 42.84375 61.546875 
Q 39.203125 64.796875 32.078125 64.796875 
z
" id="DejaVuSans-82"/>
      <path d="M 34.28125 27.484375 
Q 23.390625 27.484375 19.1875 25 
Q 14.984375 22.515625 14.984375 16.5 
Q 14.984375 11.71875 18.140625 8.90625 
Q 21.296875 6.109375 26.703125 6.109375 
Q 34.1875 6.109375 38.703125 11.40625 
Q 43.21875 16.703125 43.21875 25.484375 
L 43.21875 27.484375 
z
M 52.203125 31.203125 
L 52.203125 0 
L 43.21875 0 
L 43.21875 8.296875 
Q 40.140625 3.328125 35.546875 0.953125 
Q 30.953125 -1.421875 24.3125 -1.421875 
Q 15.921875 -1.421875 10.953125 3.296875 
Q 6 8.015625 6 15.921875 
Q 6 25.140625 12.171875 29.828125 
Q 18.359375 34.515625 30.609375 34.515625 
L 43.21875 34.515625 
L 43.21875 35.40625 
Q 43.21875 41.609375 39.140625 45 
Q 35.0625 48.390625 27.6875 48.390625 
Q 23 48.390625 18.546875 47.265625 
Q 14.109375 46.140625 10.015625 43.890625 
L 10.015625 52.203125 
Q 14.9375 54.109375 19.578125 55.046875 
Q 24.21875 56 28.609375 56 
Q 40.484375 56 46.34375 49.84375 
Q 52.203125 43.703125 52.203125 31.203125 
z
" id="DejaVuSans-97"/>
      <path d="M 45.40625 46.390625 
L 45.40625 75.984375 
L 54.390625 75.984375 
L 54.390625 0 
L 45.40625 0 
L 45.40625 8.203125 
Q 42.578125 3.328125 38.25 0.953125 
Q 33.9375 -1.421875 27.875 -1.421875 
Q 17.96875 -1.421875 11.734375 6.484375 
Q 5.515625 14.40625 5.515625 27.296875 
Q 5.515625 40.1875 11.734375 48.09375 
Q 17.96875 56 27.875 56 
Q 33.9375 56 38.25 53.625 
Q 42.578125 51.265625 45.40625 46.390625 
z
M 14.796875 27.296875 
Q 14.796875 17.390625 18.875 11.75 
Q 22.953125 6.109375 30.078125 6.109375 
Q 37.203125 6.109375 41.296875 11.75 
Q 45.40625 17.390625 45.40625 27.296875 
Q 45.40625 37.203125 41.296875 42.84375 
Q 37.203125 48.484375 30.078125 48.484375 
Q 22.953125 48.484375 18.875 42.84375 
Q 14.796875 37.203125 14.796875 27.296875 
z
" id="DejaVuSans-100"/>
      <path d="M 9.421875 54.6875 
L 18.40625 54.6875 
L 18.40625 0 
L 9.421875 0 
z
M 9.421875 75.984375 
L 18.40625 75.984375 
L 18.40625 64.59375 
L 9.421875 64.59375 
z
" id="DejaVuSans-105"/>
      <path d="M 8.5 21.578125 
L 8.5 54.6875 
L 17.484375 54.6875 
L 17.484375 21.921875 
Q 17.484375 14.15625 20.5 10.265625 
Q 23.53125 6.390625 29.59375 6.390625 
Q 36.859375 6.390625 41.078125 11.03125 
Q 45.3125 15.671875 45.3125 23.6875 
L 45.3125 54.6875 
L 54.296875 54.6875 
L 54.296875 0 
L 45.3125 0 
L 45.3125 8.40625 
Q 42.046875 3.421875 37.71875 1 
Q 33.40625 -1.421875 27.6875 -1.421875 
Q 18.265625 -1.421875 13.375 4.4375 
Q 8.5 10.296875 8.5 21.578125 
z
M 31.109375 56 
z
" id="DejaVuSans-117"/>
      <path d="M 44.28125 53.078125 
L 44.28125 44.578125 
Q 40.484375 46.53125 36.375 47.5 
Q 32.28125 48.484375 27.875 48.484375 
Q 21.1875 48.484375 17.84375 46.4375 
Q 14.5 44.390625 14.5 40.28125 
Q 14.5 37.15625 16.890625 35.375 
Q 19.28125 33.59375 26.515625 31.984375 
L 29.59375 31.296875 
Q 39.15625 29.25 43.1875 25.515625 
Q 47.21875 21.78125 47.21875 15.09375 
Q 47.21875 7.46875 41.1875 3.015625 
Q 35.15625 -1.421875 24.609375 -1.421875 
Q 20.21875 -1.421875 15.453125 -0.5625 
Q 10.6875 0.296875 5.421875 2 
L 5.421875 11.28125 
Q 10.40625 8.6875 15.234375 7.390625 
Q 20.0625 6.109375 24.8125 6.109375 
Q 31.15625 6.109375 34.5625 8.28125 
Q 37.984375 10.453125 37.984375 14.40625 
Q 37.984375 18.0625 35.515625 20.015625 
Q 33.0625 21.96875 24.703125 23.78125 
L 21.578125 24.515625 
Q 13.234375 26.265625 9.515625 29.90625 
Q 5.8125 33.546875 5.8125 39.890625 
Q 5.8125 47.609375 11.28125 51.796875 
Q 16.75 56 26.8125 56 
Q 31.78125 56 36.171875 55.265625 
Q 40.578125 54.546875 44.28125 53.078125 
z
" id="DejaVuSans-115"/>
      <path d="M 25.203125 64.796875 
L 20.21875 38.921875 
L 32.90625 38.921875 
Q 40.375 38.921875 44.984375 43.046875 
Q 49.609375 47.171875 49.609375 53.8125 
Q 49.609375 59.125 46.5 61.953125 
Q 43.40625 64.796875 37.59375 64.796875 
z
M 43.3125 35.015625 
Q 46.4375 34.28125 48.515625 31.390625 
Q 50.59375 28.515625 53.328125 19.921875 
L 59.515625 0 
L 49.125 0 
L 43.40625 18.703125 
Q 41.21875 25.921875 38.328125 28.359375 
Q 35.453125 30.8125 29.5 30.8125 
L 18.609375 30.8125 
L 12.59375 0 
L 2.6875 0 
L 16.890625 72.90625 
L 39.109375 72.90625 
Q 49.21875 72.90625 54.609375 68.328125 
Q 60.015625 63.765625 60.015625 55.171875 
Q 60.015625 47.5625 55.421875 41.984375 
Q 50.828125 36.421875 43.3125 35.015625 
z
" id="DejaVuSans-Oblique-82"/>
      <path d="M 16.703125 72.90625 
L 26.609375 72.90625 
L 13.375 5.078125 
Q 10.796875 -8.15625 4.65625 -14.078125 
Q -1.46875 -20.015625 -12.5 -20.015625 
L -16.40625 -20.015625 
L -14.796875 -11.71875 
L -11.71875 -11.71875 
Q -5.125 -11.71875 -1.703125 -7.953125 
Q 1.703125 -4.203125 3.515625 5.078125 
z
" id="DejaVuSans-Oblique-74"/>
     </defs>
     <g style="fill:#3f3d46;" transform="translate(21.792 258.754688)rotate(-90)scale(0.192 -0.192)">
      <use transform="translate(0 0.015625)" xlink:href="#DejaVuSans-82"/>
      <use transform="translate(69.482422 0.015625)" xlink:href="#DejaVuSans-97"/>
      <use transform="translate(130.761719 0.015625)" xlink:href="#DejaVuSans-100"/>
      <use transform="translate(194.238281 0.015625)" xlink:href="#DejaVuSans-105"/>
      <use transform="translate(222.021484 0.015625)" xlink:href="#DejaVuSans-117"/>
      <use transform="translate(285.400391 0.015625)" xlink:href="#DejaVuSans-115"/>
      <use transform="translate(337.5 0.015625)" xlink:href="#DejaVuSans-32"/>
      <use transform="translate(369.287109 0.015625)" xlink:href="#DejaVuSans-32"/>
      <use transform="translate(401.074219 0.015625)" xlink:href="#DejaVuSans-91"/>
      <use transform="translate(440.087891 0.015625)" xlink:href="#DejaVuSans-Oblique-82"/>
      <use transform="translate(509.570312 -16.390625)scale(0.7)" xlink:href="#DejaVuSans-Oblique-74"/>
      <use transform="translate(532.949219 0.015625)" xlink:href="#DejaVuSans-93"/>
     </g>
    </g>
   </g>
   <g id="line2d_15">
    <path clip-path="url(#p238d279c24)" d="M 77.681489 -1 
L 78.290077 3.818656 
L 79.17339 9.841924 
L 80.175149 15.77064 
L 81.307533 21.563896 
L 82.590274 27.184294 
L 84.050372 32.733913 
L 85.703989 38.206251 
L 87.569827 43.519935 
L 89.68074 48.723884 
L 92.068633 53.815349 
L 94.777443 58.79402 
L 97.848221 63.696843 
L 101.314422 68.507116 
L 105.230348 73.225135 
L 109.63487 77.955679 
L 114.504127 82.594745 
L 119.877941 87.155825 
L 125.760432 91.66575 
L 132.140586 96.045288 
L 139.078544 100.25555 
L 146.682352 104.391757 
L 154.65378 108.290953 
L 162.625209 111.831644 
L 170.596637 115.045034 
L 178.568066 117.974828 
L 186.539495 120.669587 
L 194.510923 123.162484 
L 202.482352 125.472612 
L 210.45378 127.624928 
L 218.425209 129.630652 
L 234.368066 133.291254 
L 250.310923 136.540244 
L 266.25378 139.46552 
L 282.196637 142.106948 
L 298.139495 144.505906 
L 314.082352 146.725153 
L 330.025209 148.760644 
L 353.939495 151.530011 
L 377.85378 154.012164 
L 401.768066 156.265435 
L 425.682352 158.333666 
L 449.596637 160.219795 
L 481.482352 162.500849 
L 521.339495 165.035442 
L 561.196637 167.331688 
L 601.05378 169.40935 
L 629.46125 170.781333 
L 629.46125 170.781333 
" style="fill:none;stroke:#a2c8ec;stroke-dasharray:11.1,4.8;stroke-dashoffset:0;stroke-width:3;"/>
   </g>
   <g id="line2d_16">
    <path clip-path="url(#p238d279c24)" d="M 73.587053 -1 
L 73.866457 7.172225 
L 74.855012 29.250248 
L 75.708268 42.61708 
L 76.790125 55.348272 
L 78.165862 67.691146 
L 78.975815 73.764126 
L 79.872513 79.243854 
L 82.103741 90.644225 
L 83.36043 96.065352 
L 84.790056 100.764213 
L 88.373694 111.105533 
L 90.377616 116.044564 
L 92.644096 120.305735 
L 95.328747 124.835703 
L 98.319622 129.638777 
L 101.575664 133.806356 
L 105.349562 137.935361 
L 109.618061 142.278429 
L 114.241647 146.543807 
L 119.302461 150.463714 
L 124.937522 154.422396 
L 131.08549 158.31829 
L 137.837711 161.980602 
L 145.241688 165.862126 
L 153.095697 169.297914 
L 161.067126 172.455542 
L 169.038554 175.475061 
L 184.981411 180.820933 
L 192.95284 183.123623 
L 208.895697 187.038794 
L 216.867126 189.203963 
L 224.838554 190.974914 
L 240.781411 193.923232 
L 248.75284 195.725233 
L 256.724269 197.967538 
L 264.695697 201.322362 
L 272.667126 205.69524 
L 280.638554 207.396032 
L 296.581411 208.243378 
L 336.438554 209.969196 
L 376.295697 211.736368 
L 392.238554 212.64127 
L 416.15284 214.06962 
L 448.038554 215.695077 
L 487.895697 217.580865 
L 527.75284 219.246522 
L 591.524269 221.57848 
L 629.46125 222.849657 
L 629.46125 222.849657 
" style="fill:none;stroke:#a2c8ec;stroke-linecap:square;stroke-width:3;"/>
   </g>
   <g id="line2d_17">
    <path clip-path="url(#p238d279c24)" d="M 73.299556 -1 
L 73.885451 15.458673 
L 74.727598 31.193511 
L 75.782692 46.44723 
L 77.068388 61.507034 
L 78.749374 74.475101 
L 79.775175 81.02603 
L 82.433917 93.44075 
L 84.091005 98.579431 
L 88.862132 109.372436 
L 91.704471 115.381559 
L 94.900817 120.215041 
L 98.634939 125.103474 
L 102.688916 131.957238 
L 106.76516 136.726716 
L 111.659962 141.694992 
L 117.419645 146.049427 
L 124.182881 151.725327 
L 131.832189 156.125443 
L 139.803617 159.0779 
L 147.775046 161.215541 
L 187.632189 171.088873 
L 219.517903 178.896048 
L 243.432189 184.489089 
L 259.375046 188.102408 
L 275.317903 191.46885 
L 299.232189 196.147935 
L 307.203617 197.737694 
L 323.146474 200.573111 
L 347.06076 204.431235 
L 363.003617 206.882632 
L 378.946474 209.087829 
L 410.832189 213.146681 
L 434.746474 215.800659 
L 474.603617 219.829267 
L 506.489331 222.554049 
L 522.432189 223.881706 
L 554.317903 226.172454 
L 594.175046 228.77314 
L 629.46125 230.96624 
L 629.46125 230.96624 
" style="fill:none;stroke:#ffbc79;stroke-dasharray:11.1,4.8;stroke-dashoffset:0;stroke-width:3;"/>
   </g>
   <g id="line2d_18">
    <path clip-path="url(#p238d279c24)" d="M 73.031142 -1 
L 73.453219 19.148289 
L 74.265838 44.727839 
L 75.027278 59.413057 
L 76.084687 75.368704 
L 77.33503 90.483924 
L 78.897598 104.48337 
L 79.793566 111.772064 
L 80.743115 117.846877 
L 81.85578 123.805528 
L 84.535423 136.62989 
L 86.057803 141.188117 
L 90.67115 151.888878 
L 93.4326 157.766698 
L 96.427192 162.752882 
L 103.717612 173.55056 
L 107.425073 179.937602 
L 111.201873 183.909001 
L 115.954642 188.512532 
L 121.440516 192.737877 
L 127.737543 197.83146 
L 134.580863 201.510249 
L 142.552292 204.793347 
L 150.523721 207.468308 
L 158.495149 209.93073 
L 166.466578 212.228803 
L 182.409435 216.446039 
L 198.352292 220.552299 
L 214.295149 224.433159 
L 238.209435 229.962151 
L 254.152292 233.433638 
L 278.066578 238.268006 
L 294.009435 241.326207 
L 325.895149 247.185915 
L 341.838006 249.493597 
L 357.780863 251.642275 
L 381.695149 255.151544 
L 397.638006 257.111271 
L 429.523721 260.743712 
L 453.438006 263.088032 
L 493.295149 266.883203 
L 533.152292 269.881031 
L 580.980863 273.26676 
L 596.923721 274.224718 
L 629.46125 276.040677 
L 629.46125 276.040677 
" style="fill:none;stroke:#ffbc79;stroke-linecap:square;stroke-width:3;"/>
   </g>
   <g id="line2d_19">
    <path clip-path="url(#p238d279c24)" d="M 71.713126 -1 
L 71.981961 44.922832 
L 72.289641 69.4176 
L 72.643975 85.843112 
L 73.205038 102.938003 
L 73.974156 119.010064 
L 74.637117 128.291872 
L 75.595757 138.129045 
L 76.851493 148.612537 
L 78.32395 157.773345 
L 79.193455 162.63502 
L 80.038612 166.425137 
L 82.240858 174.435049 
L 83.421099 178.040134 
L 84.760487 180.732283 
L 86.689206 184.088143 
L 89.263698 188.243589 
L 92.160387 192.561389 
L 95.271508 196.468105 
L 98.803451 201.509875 
L 101.908598 204.583034 
L 105.89842 207.871553 
L 110.646457 212.990557 
L 114.174135 216.293886 
L 117.936544 218.116947 
L 123.354413 220.308699 
L 130.886369 223.994637 
L 137.979757 227.690087 
L 144.560364 229.838683 
L 152.531793 231.433828 
L 176.446078 235.693931 
L 216.303221 243.158281 
L 248.188935 248.976728 
L 272.103221 253.15633 
L 296.017507 257.157301 
L 319.931793 260.910544 
L 335.87465 263.240695 
L 351.817507 265.419991 
L 375.731793 268.405727 
L 399.646078 271.126208 
L 423.560364 273.626363 
L 454.33138 276.528825 
L 480.500211 278.660985 
L 506.669042 280.559564 
L 532.837873 282.224564 
L 559.006705 283.655985 
L 585.175536 284.853825 
L 611.344367 285.818085 
L 629.46125 286.348819 
L 629.46125 286.348819 
" style="fill:none;stroke:#ff9da7;stroke-dasharray:11.1,4.8;stroke-dashoffset:0;stroke-width:3;"/>
   </g>
   <g id="line2d_20">
    <path clip-path="url(#p238d279c24)" d="M 71.994583 -1 
L 72.318505 35.691608 
L 72.79104 68.955149 
L 73.306332 92.093923 
L 73.985288 113.243992 
L 74.559248 126.247449 
L 75.245379 137.827954 
L 76.085065 147.975591 
L 77.344239 158.840303 
L 79.023112 170.87703 
L 79.944028 176.140114 
L 82.198197 186.90775 
L 83.438566 192.340567 
L 86.115945 201.647823 
L 87.567528 205.445684 
L 89.364386 209.148557 
L 91.73867 213.537534 
L 94.538073 218.072336 
L 97.779024 223.091945 
L 101.166596 227.753856 
L 104.796267 232.976787 
L 108.068652 236.58555 
L 116.914465 244.620719 
L 121.556479 249.230908 
L 125.456538 251.913935 
L 130.45232 254.175928 
L 137.646246 257.076906 
L 145.617675 261.651475 
L 152.07584 264.525253 
L 159.420471 266.493121 
L 167.3919 268.086014 
L 223.1919 278.121063 
L 255.077614 283.415363 
L 271.020471 285.97876 
L 302.906186 290.929536 
L 318.849043 293.431537 
L 382.620471 302.153643 
L 414.506186 305.965317 
L 462.334757 310.914403 
L 478.277614 312.343381 
L 534.077614 316.897964 
L 557.9919 318.595677 
L 581.906186 320.352524 
L 597.849043 321.287286 
L 629.46125 322.818426 
L 629.46125 322.818426 
" style="fill:none;stroke:#ff9da7;stroke-linecap:square;stroke-width:3;"/>
   </g>
   <g id="patch_3">
    <path d="M 71.46125 394.102688 
L 71.46125 13.582688 
" style="fill:none;stroke:#6a737d;stroke-linecap:square;stroke-linejoin:miter;stroke-width:1.4;"/>
   </g>
   <g id="patch_4">
    <path d="M 629.46125 394.102688 
L 629.46125 13.582688 
" style="fill:none;stroke:#6a737d;stroke-linecap:square;stroke-linejoin:miter;stroke-width:1.4;"/>
   </g>
   <g id="patch_5">
    <path d="M 71.46125 394.102688 
L 629.46125 394.102688 
" style="fill:none;stroke:#6a737d;stroke-linecap:square;stroke-linejoin:miter;stroke-width:1.4;"/>
   </g>
   <g id="patch_6">
    <path d="M 71.46125 13.582688 
L 629.46125 13.582688 
" style="fill:none;stroke:#6a737d;stroke-linecap:square;stroke-linejoin:miter;stroke-width:1.4;"/>
   </g>
   <g id="text_17">
    <!-- - CMS -->
    <defs>
     <path d="M 4.890625 31.390625 
L 31.203125 31.390625 
L 31.203125 23.390625 
L 4.890625 23.390625 
z
" id="DejaVuSans-45"/>
     <path d="M 64.40625 67.28125 
L 64.40625 56.890625 
Q 59.421875 61.53125 53.78125 63.8125 
Q 48.140625 66.109375 41.796875 66.109375 
Q 29.296875 66.109375 22.65625 58.46875 
Q 16.015625 50.828125 16.015625 36.375 
Q 16.015625 21.96875 22.65625 14.328125 
Q 29.296875 6.6875 41.796875 6.6875 
Q 48.140625 6.6875 53.78125 8.984375 
Q 59.421875 11.28125 64.40625 15.921875 
L 64.40625 5.609375 
Q 59.234375 2.09375 53.4375 0.328125 
Q 47.65625 -1.421875 41.21875 -1.421875 
Q 24.65625 -1.421875 15.125 8.703125 
Q 5.609375 18.84375 5.609375 36.375 
Q 5.609375 53.953125 15.125 64.078125 
Q 24.65625 74.21875 41.21875 74.21875 
Q 47.75 74.21875 53.53125 72.484375 
Q 59.328125 70.75 64.40625 67.28125 
z
" id="DejaVuSans-67"/>
     <path d="M 9.8125 72.90625 
L 24.515625 72.90625 
L 43.109375 23.296875 
L 61.8125 72.90625 
L 76.515625 72.90625 
L 76.515625 0 
L 66.890625 0 
L 66.890625 64.015625 
L 48.09375 14.015625 
L 38.1875 14.015625 
L 19.390625 64.015625 
L 19.390625 0 
L 9.8125 0 
z
" id="DejaVuSans-77"/>
     <path d="M 53.515625 70.515625 
L 53.515625 60.890625 
Q 47.90625 63.578125 42.921875 64.890625 
Q 37.9375 66.21875 33.296875 66.21875 
Q 25.25 66.21875 20.875 63.09375 
Q 16.5 59.96875 16.5 54.203125 
Q 16.5 49.359375 19.40625 46.890625 
Q 22.3125 44.4375 30.421875 42.921875 
L 36.375 41.703125 
Q 47.40625 39.59375 52.65625 34.296875 
Q 57.90625 29 57.90625 20.125 
Q 57.90625 9.515625 50.796875 4.046875 
Q 43.703125 -1.421875 29.984375 -1.421875 
Q 24.8125 -1.421875 18.96875 -0.25 
Q 13.140625 0.921875 6.890625 3.21875 
L 6.890625 13.375 
Q 12.890625 10.015625 18.65625 8.296875 
Q 24.421875 6.59375 29.984375 6.59375 
Q 38.421875 6.59375 43.015625 9.90625 
Q 47.609375 13.234375 47.609375 19.390625 
Q 47.609375 24.75 44.3125 27.78125 
Q 41.015625 30.8125 33.5 32.328125 
L 27.484375 33.5 
Q 16.453125 35.6875 11.515625 40.375 
Q 6.59375 45.0625 6.59375 53.421875 
Q 6.59375 63.09375 13.40625 68.65625 
Q 20.21875 74.21875 32.171875 74.21875 
Q 37.3125 74.21875 42.625 73.28125 
Q 47.953125 72.359375 53.515625 70.515625 
z
" id="DejaVuSans-83"/>
    </defs>
    <g transform="translate(545.76125 382.332913)scale(0.2 -0.2)">
     <use xlink:href="#DejaVuSans-45"/>
     <use x="36.083984" xlink:href="#DejaVuSans-32"/>
     <use x="67.871094" xlink:href="#DejaVuSans-67"/>
     <use x="137.695312" xlink:href="#DejaVuSans-77"/>
     <use x="223.974609" xlink:href="#DejaVuSans-83"/>
    </g>
   </g>
   <g id="text_18">
    <!-- - - SCvH -->
    <defs>
     <path d="M 2.984375 54.6875 
L 12.5 54.6875 
L 29.59375 8.796875 
L 46.6875 54.6875 
L 56.203125 54.6875 
L 35.6875 0 
L 23.484375 0 
z
" id="DejaVuSans-118"/>
     <path d="M 9.8125 72.90625 
L 19.671875 72.90625 
L 19.671875 43.015625 
L 55.515625 43.015625 
L 55.515625 72.90625 
L 65.375 72.90625 
L 65.375 0 
L 55.515625 0 
L 55.515625 34.71875 
L 19.671875 34.71875 
L 19.671875 0 
L 9.8125 0 
z
" id="DejaVuSans-72"/>
    </defs>
    <g transform="translate(545.76125 363.306913)scale(0.2 -0.2)">
     <use xlink:href="#DejaVuSans-45"/>
     <use x="36.083984" xlink:href="#DejaVuSans-45"/>
     <use x="72.167969" xlink:href="#DejaVuSans-32"/>
     <use x="103.955078" xlink:href="#DejaVuSans-83"/>
     <use x="167.431641" xlink:href="#DejaVuSans-67"/>
     <use x="237.255859" xlink:href="#DejaVuSans-118"/>
     <use x="296.435547" xlink:href="#DejaVuSans-72"/>
    </g>
   </g>
   <g id="legend_1">
    <g id="patch_7">
     <path d="M 412.188194 116.088652 
L 619.19869 116.088652 
Q 622.13085 116.088652 622.13085 113.156492 
L 622.13085 23.845248 
Q 622.13085 20.913088 619.19869 20.913088 
L 412.188194 20.913088 
Q 409.256034 20.913088 409.256034 23.845248 
L 409.256034 113.156492 
Q 409.256034 116.088652 412.188194 116.088652 
z
" style="fill:#808080;opacity:0.1;stroke:#cccccc;stroke-linejoin:miter;stroke-width:0.2;"/>
    </g>
    <g id="text_19">
     <!-- Bulk Metallicity -->
     <defs>
      <path d="M 19.671875 34.8125 
L 19.671875 8.109375 
L 35.5 8.109375 
Q 43.453125 8.109375 47.28125 11.40625 
Q 51.125 14.703125 51.125 21.484375 
Q 51.125 28.328125 47.28125 31.5625 
Q 43.453125 34.8125 35.5 34.8125 
z
M 19.671875 64.796875 
L 19.671875 42.828125 
L 34.28125 42.828125 
Q 41.5 42.828125 45.03125 45.53125 
Q 48.578125 48.25 48.578125 53.8125 
Q 48.578125 59.328125 45.03125 62.0625 
Q 41.5 64.796875 34.28125 64.796875 
z
M 9.8125 72.90625 
L 35.015625 72.90625 
Q 46.296875 72.90625 52.390625 68.21875 
Q 58.5 63.53125 58.5 54.890625 
Q 58.5 48.1875 55.375 44.234375 
Q 52.25 40.28125 46.1875 39.3125 
Q 53.46875 37.75 57.5 32.78125 
Q 61.53125 27.828125 61.53125 20.40625 
Q 61.53125 10.640625 54.890625 5.3125 
Q 48.25 0 35.984375 0 
L 9.8125 0 
z
" id="DejaVuSans-66"/>
      <path d="M 9.421875 75.984375 
L 18.40625 75.984375 
L 18.40625 0 
L 9.421875 0 
z
" id="DejaVuSans-108"/>
      <path d="M 9.078125 75.984375 
L 18.109375 75.984375 
L 18.109375 31.109375 
L 44.921875 54.6875 
L 56.390625 54.6875 
L 27.390625 29.109375 
L 57.625 0 
L 45.90625 0 
L 18.109375 26.703125 
L 18.109375 0 
L 9.078125 0 
z
" id="DejaVuSans-107"/>
      <path d="M 18.3125 70.21875 
L 18.3125 54.6875 
L 36.8125 54.6875 
L 36.8125 47.703125 
L 18.3125 47.703125 
L 18.3125 18.015625 
Q 18.3125 11.328125 20.140625 9.421875 
Q 21.96875 7.515625 27.59375 7.515625 
L 36.8125 7.515625 
L 36.8125 0 
L 27.59375 0 
Q 17.1875 0 13.234375 3.875 
Q 9.28125 7.765625 9.28125 18.015625 
L 9.28125 47.703125 
L 2.6875 47.703125 
L 2.6875 54.6875 
L 9.28125 54.6875 
L 9.28125 70.21875 
z
" id="DejaVuSans-116"/>
      <path d="M 48.78125 52.59375 
L 48.78125 44.1875 
Q 44.96875 46.296875 41.140625 47.34375 
Q 37.3125 48.390625 33.40625 48.390625 
Q 24.65625 48.390625 19.8125 42.84375 
Q 14.984375 37.3125 14.984375 27.296875 
Q 14.984375 17.28125 19.8125 11.734375 
Q 24.65625 6.203125 33.40625 6.203125 
Q 37.3125 6.203125 41.140625 7.25 
Q 44.96875 8.296875 48.78125 10.40625 
L 48.78125 2.09375 
Q 45.015625 0.34375 40.984375 -0.53125 
Q 36.96875 -1.421875 32.421875 -1.421875 
Q 20.0625 -1.421875 12.78125 6.34375 
Q 5.515625 14.109375 5.515625 27.296875 
Q 5.515625 40.671875 12.859375 48.328125 
Q 20.21875 56 33.015625 56 
Q 37.15625 56 41.109375 55.140625 
Q 45.0625 54.296875 48.78125 52.59375 
z
" id="DejaVuSans-99"/>
     </defs>
     <g style="fill:#3f3d46;" transform="translate(448.615442 40.150658)scale(0.176 -0.176)">
      <use xlink:href="#DejaVuSans-66"/>
      <use x="68.603516" xlink:href="#DejaVuSans-117"/>
      <use x="131.982422" xlink:href="#DejaVuSans-108"/>
      <use x="159.765625" xlink:href="#DejaVuSans-107"/>
      <use x="217.675781" xlink:href="#DejaVuSans-32"/>
      <use x="249.462891" xlink:href="#DejaVuSans-77"/>
      <use x="335.742188" xlink:href="#DejaVuSans-101"/>
      <use x="397.265625" xlink:href="#DejaVuSans-116"/>
      <use x="436.474609" xlink:href="#DejaVuSans-97"/>
      <use x="497.753906" xlink:href="#DejaVuSans-108"/>
      <use x="525.537109" xlink:href="#DejaVuSans-108"/>
      <use x="553.320312" xlink:href="#DejaVuSans-105"/>
      <use x="581.103516" xlink:href="#DejaVuSans-99"/>
      <use x="636.083984" xlink:href="#DejaVuSans-105"/>
      <use x="663.867188" xlink:href="#DejaVuSans-116"/>
      <use x="703.076172" xlink:href="#DejaVuSans-121"/>
     </g>
    </g>
    <g id="line2d_21">
     <path d="M 415.120354 57.298844 
L 444.441954 57.298844 
" style="fill:none;stroke:#a2c8ec;stroke-linecap:square;stroke-width:3;"/>
    </g>
    <g id="line2d_22"/>
    <g id="text_20">
     <!-- $Z = 0.00$ | $M_z$ = 0 $M_{\oplus}$ -->
     <defs>
      <path d="M 13.09375 72.90625 
L 70.3125 72.90625 
L 68.890625 65.375 
L 12.40625 8.296875 
L 58.890625 8.296875 
L 57.328125 0 
L -2.203125 0 
L -0.78125 7.515625 
L 55.71875 64.59375 
L 11.53125 64.59375 
z
" id="DejaVuSans-Oblique-90"/>
      <path d="M 10.59375 45.40625 
L 73.1875 45.40625 
L 73.1875 37.203125 
L 10.59375 37.203125 
z
M 10.59375 25.484375 
L 73.1875 25.484375 
L 73.1875 17.1875 
L 10.59375 17.1875 
z
" id="DejaVuSans-61"/>
      <path d="M 21 76.421875 
L 21 -23.578125 
L 12.703125 -23.578125 
L 12.703125 76.421875 
z
" id="DejaVuSans-124"/>
      <path d="M 16.890625 72.90625 
L 31.6875 72.90625 
L 40.1875 23.78125 
L 68.40625 72.90625 
L 83.59375 72.90625 
L 69.390625 0 
L 59.8125 0 
L 72.21875 63.921875 
L 43.609375 14.015625 
L 33.984375 14.015625 
L 24.703125 64.109375 
L 12.3125 0 
L 2.6875 0 
z
" id="DejaVuSans-Oblique-77"/>
      <path d="M 11.625 54.6875 
L 54.296875 54.6875 
L 52.6875 46.484375 
L 11.53125 7.171875 
L 45.515625 7.171875 
L 44.09375 0 
L -0.296875 0 
L 1.3125 8.203125 
L 42.484375 47.515625 
L 10.203125 47.515625 
z
" id="DejaVuSans-Oblique-122"/>
      <path d="M 51.65625 55.03125 
Q 47.125 56.9375 41.890625 56.9375 
Q 36.671875 56.9375 32.125 55.03125 
Q 27.640625 53.125 23.921875 49.421875 
Q 20.171875 45.65625 18.3125 41.15625 
Q 16.453125 36.671875 16.453125 31.34375 
Q 16.453125 26.171875 18.3125 21.671875 
Q 20.171875 17.1875 23.921875 13.421875 
Q 27.640625 9.71875 32.125 7.8125 
Q 36.671875 5.90625 41.890625 5.90625 
Q 47.125 5.90625 51.65625 7.8125 
Q 56.15625 9.71875 59.859375 13.421875 
Q 63.625 17.1875 65.46875 21.671875 
Q 67.328125 26.171875 67.328125 31.34375 
Q 67.328125 36.671875 65.46875 41.15625 
Q 63.625 45.65625 59.859375 49.421875 
Q 56.15625 53.125 51.65625 55.03125 
z
M 23.53125 59.375 
Q 35.15625 64.265625 41.890625 64.265625 
Q 48.640625 64.265625 54.4375 61.8125 
Q 60.25 59.375 65.046875 54.59375 
Q 69.875 49.75 72.265625 43.953125 
Q 74.65625 38.1875 74.65625 31.34375 
Q 74.65625 24.65625 72.265625 18.84375 
Q 69.875 13.09375 65.046875 8.25 
Q 60.25 3.46875 54.4375 1.015625 
Q 48.640625 -1.421875 41.890625 -1.421875 
Q 35.15625 -1.421875 29.34375 1.015625 
Q 23.53125 3.46875 18.75 8.25 
Q 13.921875 13.09375 11.53125 18.84375 
Q 9.125 24.65625 9.125 31.34375 
Q 9.125 38.1875 11.53125 43.953125 
Q 13.921875 49.75 18.75 54.59375 
Q 23.53125 59.375 35.15625 64.265625 
z
M 46.046875 52.9375 
L 46.046875 35.5 
L 63.421875 35.5 
L 63.421875 27.203125 
L 46.046875 27.203125 
L 46.046875 9.765625 
L 37.75 9.765625 
L 37.75 27.203125 
L 20.359375 27.203125 
L 20.359375 35.5 
L 37.75 35.5 
L 37.75 52.9375 
z
" id="DejaVuSans-8853"/>
     </defs>
     <g style="fill:#3f3d46;" transform="translate(456.170594 62.430124)scale(0.146608 -0.146608)">
      <use transform="translate(0 0.578125)" xlink:href="#DejaVuSans-Oblique-90"/>
      <use transform="translate(87.988281 0.578125)" xlink:href="#DejaVuSans-61"/>
      <use transform="translate(191.259766 0.578125)" xlink:href="#DejaVuSans-48"/>
      <use transform="translate(254.882812 0.578125)" xlink:href="#DejaVuSans-46"/>
      <use transform="translate(286.669922 0.578125)" xlink:href="#DejaVuSans-48"/>
      <use transform="translate(350.292969 0.578125)" xlink:href="#DejaVuSans-48"/>
      <use transform="translate(413.916016 0.578125)" xlink:href="#DejaVuSans-32"/>
      <use transform="translate(445.703125 0.578125)" xlink:href="#DejaVuSans-124"/>
      <use transform="translate(479.394531 0.578125)" xlink:href="#DejaVuSans-32"/>
      <use transform="translate(511.181641 0.578125)" xlink:href="#DejaVuSans-Oblique-77"/>
      <use transform="translate(597.460938 -15.828125)scale(0.7)" xlink:href="#DejaVuSans-Oblique-122"/>
      <use transform="translate(636.938477 0.578125)" xlink:href="#DejaVuSans-32"/>
      <use transform="translate(668.725586 0.578125)" xlink:href="#DejaVuSans-61"/>
      <use transform="translate(752.514648 0.578125)" xlink:href="#DejaVuSans-32"/>
      <use transform="translate(784.301758 0.578125)" xlink:href="#DejaVuSans-48"/>
      <use transform="translate(847.924805 0.578125)" xlink:href="#DejaVuSans-32"/>
      <use transform="translate(879.711914 0.578125)" xlink:href="#DejaVuSans-Oblique-77"/>
      <use transform="translate(965.991211 -15.828125)scale(0.7)" xlink:href="#DejaVuSans-8853"/>
     </g>
    </g>
    <g id="line2d_23">
     <path d="M 415.120354 79.436652 
L 444.441954 79.436652 
" style="fill:none;stroke:#ffbc79;stroke-linecap:square;stroke-width:3;"/>
    </g>
    <g id="line2d_24"/>
    <g id="text_21">
     <!-- $Z = 0.20$ | $M_z$ = 25 $M_{\oplus}$ -->
     <defs>
      <path d="M 10.796875 72.90625 
L 49.515625 72.90625 
L 49.515625 64.59375 
L 19.828125 64.59375 
L 19.828125 46.734375 
Q 21.96875 47.46875 24.109375 47.828125 
Q 26.265625 48.1875 28.421875 48.1875 
Q 40.625 48.1875 47.75 41.5 
Q 54.890625 34.8125 54.890625 23.390625 
Q 54.890625 11.625 47.5625 5.09375 
Q 40.234375 -1.421875 26.90625 -1.421875 
Q 22.3125 -1.421875 17.546875 -0.640625 
Q 12.796875 0.140625 7.71875 1.703125 
L 7.71875 11.625 
Q 12.109375 9.234375 16.796875 8.0625 
Q 21.484375 6.890625 26.703125 6.890625 
Q 35.15625 6.890625 40.078125 11.328125 
Q 45.015625 15.765625 45.015625 23.390625 
Q 45.015625 31 40.078125 35.4375 
Q 35.15625 39.890625 26.703125 39.890625 
Q 22.75 39.890625 18.8125 39.015625 
Q 14.890625 38.140625 10.796875 36.28125 
z
" id="DejaVuSans-53"/>
     </defs>
     <g style="fill:#3f3d46;" transform="translate(456.170594 84.567932)scale(0.146608 -0.146608)">
      <use transform="translate(0 0.578125)" xlink:href="#DejaVuSans-Oblique-90"/>
      <use transform="translate(87.988281 0.578125)" xlink:href="#DejaVuSans-61"/>
      <use transform="translate(191.259766 0.578125)" xlink:href="#DejaVuSans-48"/>
      <use transform="translate(254.882812 0.578125)" xlink:href="#DejaVuSans-46"/>
      <use transform="translate(286.591797 0.578125)" xlink:href="#DejaVuSans-50"/>
      <use transform="translate(350.214844 0.578125)" xlink:href="#DejaVuSans-48"/>
      <use transform="translate(413.837891 0.578125)" xlink:href="#DejaVuSans-32"/>
      <use transform="translate(445.625 0.578125)" xlink:href="#DejaVuSans-124"/>
      <use transform="translate(479.316406 0.578125)" xlink:href="#DejaVuSans-32"/>
      <use transform="translate(511.103516 0.578125)" xlink:href="#DejaVuSans-Oblique-77"/>
      <use transform="translate(597.382812 -15.828125)scale(0.7)" xlink:href="#DejaVuSans-Oblique-122"/>
      <use transform="translate(636.860352 0.578125)" xlink:href="#DejaVuSans-32"/>
      <use transform="translate(668.647461 0.578125)" xlink:href="#DejaVuSans-61"/>
      <use transform="translate(752.436523 0.578125)" xlink:href="#DejaVuSans-32"/>
      <use transform="translate(784.223633 0.578125)" xlink:href="#DejaVuSans-50"/>
      <use transform="translate(847.84668 0.578125)" xlink:href="#DejaVuSans-53"/>
      <use transform="translate(911.469727 0.578125)" xlink:href="#DejaVuSans-32"/>
      <use transform="translate(943.256836 0.578125)" xlink:href="#DejaVuSans-Oblique-77"/>
      <use transform="translate(1029.536133 -15.828125)scale(0.7)" xlink:href="#DejaVuSans-8853"/>
     </g>
    </g>
    <g id="line2d_25">
     <path d="M 415.120354 101.57446 
L 444.441954 101.57446 
" style="fill:none;stroke:#ff9da7;stroke-linecap:square;stroke-width:3;"/>
    </g>
    <g id="line2d_26"/>
    <g id="text_22">
     <!-- $Z = 0.30$ | $M_z$ = 38 $M_{\oplus}$ -->
     <defs>
      <path d="M 40.578125 39.3125 
Q 47.65625 37.796875 51.625 33 
Q 55.609375 28.21875 55.609375 21.1875 
Q 55.609375 10.40625 48.1875 4.484375 
Q 40.765625 -1.421875 27.09375 -1.421875 
Q 22.515625 -1.421875 17.65625 -0.515625 
Q 12.796875 0.390625 7.625 2.203125 
L 7.625 11.71875 
Q 11.71875 9.328125 16.59375 8.109375 
Q 21.484375 6.890625 26.8125 6.890625 
Q 36.078125 6.890625 40.9375 10.546875 
Q 45.796875 14.203125 45.796875 21.1875 
Q 45.796875 27.640625 41.28125 31.265625 
Q 36.765625 34.90625 28.71875 34.90625 
L 20.21875 34.90625 
L 20.21875 43.015625 
L 29.109375 43.015625 
Q 36.375 43.015625 40.234375 45.921875 
Q 44.09375 48.828125 44.09375 54.296875 
Q 44.09375 59.90625 40.109375 62.90625 
Q 36.140625 65.921875 28.71875 65.921875 
Q 24.65625 65.921875 20.015625 65.03125 
Q 15.375 64.15625 9.8125 62.3125 
L 9.8125 71.09375 
Q 15.4375 72.65625 20.34375 73.4375 
Q 25.25 74.21875 29.59375 74.21875 
Q 40.828125 74.21875 47.359375 69.109375 
Q 53.90625 64.015625 53.90625 55.328125 
Q 53.90625 49.265625 50.4375 45.09375 
Q 46.96875 40.921875 40.578125 39.3125 
z
" id="DejaVuSans-51"/>
     </defs>
     <g style="fill:#3f3d46;" transform="translate(456.170594 106.70574)scale(0.146608 -0.146608)">
      <use transform="translate(0 0.578125)" xlink:href="#DejaVuSans-Oblique-90"/>
      <use transform="translate(87.988281 0.578125)" xlink:href="#DejaVuSans-61"/>
      <use transform="translate(191.259766 0.578125)" xlink:href="#DejaVuSans-48"/>
      <use transform="translate(254.882812 0.578125)" xlink:href="#DejaVuSans-46"/>
      <use transform="translate(286.669922 0.578125)" xlink:href="#DejaVuSans-51"/>
      <use transform="translate(350.292969 0.578125)" xlink:href="#DejaVuSans-48"/>
      <use transform="translate(413.916016 0.578125)" xlink:href="#DejaVuSans-32"/>
      <use transform="translate(445.703125 0.578125)" xlink:href="#DejaVuSans-124"/>
      <use transform="translate(479.394531 0.578125)" xlink:href="#DejaVuSans-32"/>
      <use transform="translate(511.181641 0.578125)" xlink:href="#DejaVuSans-Oblique-77"/>
      <use transform="translate(597.460938 -15.828125)scale(0.7)" xlink:href="#DejaVuSans-Oblique-122"/>
      <use transform="translate(636.938477 0.578125)" xlink:href="#DejaVuSans-32"/>
      <use transform="translate(668.725586 0.578125)" xlink:href="#DejaVuSans-61"/>
      <use transform="translate(752.514648 0.578125)" xlink:href="#DejaVuSans-32"/>
      <use transform="translate(784.301758 0.578125)" xlink:href="#DejaVuSans-51"/>
      <use transform="translate(847.924805 0.578125)" xlink:href="#DejaVuSans-56"/>
      <use transform="translate(911.547852 0.578125)" xlink:href="#DejaVuSans-32"/>
      <use transform="translate(943.334961 0.578125)" xlink:href="#DejaVuSans-Oblique-77"/>
      <use transform="translate(1029.614258 -15.828125)scale(0.7)" xlink:href="#DejaVuSans-8853"/>
     </g>
    </g>
   </g>
  </g>
 </g>
 <defs>
  <clipPath id="p238d279c24">
   <rect height="380.52" width="558" x="71.46125" y="13.582688"/>
  </clipPath>
 </defs>
</svg>
