<?xml version="1.0" encoding="utf-8" standalone="no"?>
<!DOCTYPE svg PUBLIC "-//W3C//DTD SVG 1.1//EN"
  "http://www.w3.org/Graphics/SVG/1.1/DTD/svg11.dtd">
<!-- Created with matplotlib (https://matplotlib.org/) -->
<svg height="862.831562pt" version="1.1" viewBox="0 0 1263.309219 862.831562" width="1263.309219pt" xmlns="http://www.w3.org/2000/svg" xmlns:xlink="http://www.w3.org/1999/xlink">
 <defs>
  <style type="text/css">
*{stroke-linecap:butt;stroke-linejoin:round;}
  </style>
 </defs>
 <g id="figure_1">
  <g id="patch_1">
   <path d="M 0 862.831562 
L 1263.309219 862.831562 
L 1263.309219 0 
L 0 0 
z
" style="fill:none;"/>
  </g>
  <g id="axes_1">
   <g id="patch_2">
    <path d="M 96.637813 401.46 
L 636.116562 401.46 
L 636.116562 45.6 
L 96.637813 45.6 
z
" style="fill:none;"/>
   </g>
   <g id="matplotlib.axis_1">
    <g id="xtick_1">
     <g id="line2d_1">
      <defs>
       <path d="M 0 0 
L 0 6 
" id="mbb89ecb095" style="stroke:#3f3d46;"/>
      </defs>
      <g>
       <use style="fill:#3f3d46;stroke:#3f3d46;" x="96.637813" xlink:href="#mbb89ecb095" y="401.46"/>
      </g>
     </g>
    </g>
    <g id="xtick_2">
     <g id="line2d_2">
      <g>
       <use style="fill:#3f3d46;stroke:#3f3d46;" x="164.072656" xlink:href="#mbb89ecb095" y="401.46"/>
      </g>
     </g>
    </g>
    <g id="xtick_3">
     <g id="line2d_3">
      <g>
       <use style="fill:#3f3d46;stroke:#3f3d46;" x="231.5075" xlink:href="#mbb89ecb095" y="401.46"/>
      </g>
     </g>
    </g>
    <g id="xtick_4">
     <g id="line2d_4">
      <g>
       <use style="fill:#3f3d46;stroke:#3f3d46;" x="298.942344" xlink:href="#mbb89ecb095" y="401.46"/>
      </g>
     </g>
    </g>
    <g id="xtick_5">
     <g id="line2d_5">
      <g>
       <use style="fill:#3f3d46;stroke:#3f3d46;" x="366.377188" xlink:href="#mbb89ecb095" y="401.46"/>
      </g>
     </g>
    </g>
    <g id="xtick_6">
     <g id="line2d_6">
      <g>
       <use style="fill:#3f3d46;stroke:#3f3d46;" x="433.812031" xlink:href="#mbb89ecb095" y="401.46"/>
      </g>
     </g>
    </g>
    <g id="xtick_7">
     <g id="line2d_7">
      <g>
       <use style="fill:#3f3d46;stroke:#3f3d46;" x="501.246875" xlink:href="#mbb89ecb095" y="401.46"/>
      </g>
     </g>
    </g>
    <g id="xtick_8">
     <g id="line2d_8">
      <g>
       <use style="fill:#3f3d46;stroke:#3f3d46;" x="568.681719" xlink:href="#mbb89ecb095" y="401.46"/>
      </g>
     </g>
    </g>
    <g id="xtick_9">
     <g id="line2d_9">
      <g>
       <use style="fill:#3f3d46;stroke:#3f3d46;" x="636.116563" xlink:href="#mbb89ecb095" y="401.46"/>
      </g>
     </g>
    </g>
   </g>
   <g id="matplotlib.axis_2">
    <g id="ytick_1">
     <g id="line2d_10">
      <defs>
       <path d="M 0 0 
L -6 0 
" id="m020c068989" style="stroke:#3f3d46;"/>
      </defs>
      <g>
       <use style="fill:#3f3d46;stroke:#3f3d46;" x="96.637813" xlink:href="#m020c068989" y="365.874"/>
      </g>
     </g>
     <g id="text_1">
      <!-- 0.7 -->
      <defs>
       <path d="M 31.78125 66.40625 
Q 24.171875 66.40625 20.328125 58.90625 
Q 16.5 51.421875 16.5 36.375 
Q 16.5 21.390625 20.328125 13.890625 
Q 24.171875 6.390625 31.78125 6.390625 
Q 39.453125 6.390625 43.28125 13.890625 
Q 47.125 21.390625 47.125 36.375 
Q 47.125 51.421875 43.28125 58.90625 
Q 39.453125 66.40625 31.78125 66.40625 
z
M 31.78125 74.21875 
Q 44.046875 74.21875 50.515625 64.515625 
Q 56.984375 54.828125 56.984375 36.375 
Q 56.984375 17.96875 50.515625 8.265625 
Q 44.046875 -1.421875 31.78125 -1.421875 
Q 19.53125 -1.421875 13.0625 8.265625 
Q 6.59375 17.96875 6.59375 36.375 
Q 6.59375 54.828125 13.0625 64.515625 
Q 19.53125 74.21875 31.78125 74.21875 
z
" id="DejaVuSans-48"/>
       <path d="M 10.6875 12.40625 
L 21 12.40625 
L 21 0 
L 10.6875 0 
z
" id="DejaVuSans-46"/>
       <path d="M 8.203125 72.90625 
L 55.078125 72.90625 
L 55.078125 68.703125 
L 28.609375 0 
L 18.3125 0 
L 43.21875 64.59375 
L 8.203125 64.59375 
z
" id="DejaVuSans-55"/>
      </defs>
      <g style="fill:#3f3d46;" transform="translate(50.24125 373.852359)scale(0.21 -0.21)">
       <use xlink:href="#DejaVuSans-48"/>
       <use x="63.623047" xlink:href="#DejaVuSans-46"/>
       <use x="95.410156" xlink:href="#DejaVuSans-55"/>
      </g>
     </g>
    </g>
    <g id="ytick_2">
     <g id="line2d_11">
      <g>
       <use style="fill:#3f3d46;stroke:#3f3d46;" x="96.637813" xlink:href="#m020c068989" y="294.702"/>
      </g>
     </g>
     <g id="text_2">
      <!-- 0.8 -->
      <defs>
       <path d="M 31.78125 34.625 
Q 24.75 34.625 20.71875 30.859375 
Q 16.703125 27.09375 16.703125 20.515625 
Q 16.703125 13.921875 20.71875 10.15625 
Q 24.75 6.390625 31.78125 6.390625 
Q 38.8125 6.390625 42.859375 10.171875 
Q 46.921875 13.96875 46.921875 20.515625 
Q 46.921875 27.09375 42.890625 30.859375 
Q 38.875 34.625 31.78125 34.625 
z
M 21.921875 38.8125 
Q 15.578125 40.375 12.03125 44.71875 
Q 8.5 49.078125 8.5 55.328125 
Q 8.5 64.0625 14.71875 69.140625 
Q 20.953125 74.21875 31.78125 74.21875 
Q 42.671875 74.21875 48.875 69.140625 
Q 55.078125 64.0625 55.078125 55.328125 
Q 55.078125 49.078125 51.53125 44.71875 
Q 48 40.375 41.703125 38.8125 
Q 48.828125 37.15625 52.796875 32.3125 
Q 56.78125 27.484375 56.78125 20.515625 
Q 56.78125 9.90625 50.3125 4.234375 
Q 43.84375 -1.421875 31.78125 -1.421875 
Q 19.734375 -1.421875 13.25 4.234375 
Q 6.78125 9.90625 6.78125 20.515625 
Q 6.78125 27.484375 10.78125 32.3125 
Q 14.796875 37.15625 21.921875 38.8125 
z
M 18.3125 54.390625 
Q 18.3125 48.734375 21.84375 45.5625 
Q 25.390625 42.390625 31.78125 42.390625 
Q 38.140625 42.390625 41.71875 45.5625 
Q 45.3125 48.734375 45.3125 54.390625 
Q 45.3125 60.0625 41.71875 63.234375 
Q 38.140625 66.40625 31.78125 66.40625 
Q 25.390625 66.40625 21.84375 63.234375 
Q 18.3125 60.0625 18.3125 54.390625 
z
" id="DejaVuSans-56"/>
      </defs>
      <g style="fill:#3f3d46;" transform="translate(50.24125 302.680359)scale(0.21 -0.21)">
       <use xlink:href="#DejaVuSans-48"/>
       <use x="63.623047" xlink:href="#DejaVuSans-46"/>
       <use x="95.410156" xlink:href="#DejaVuSans-56"/>
      </g>
     </g>
    </g>
    <g id="ytick_3">
     <g id="line2d_12">
      <g>
       <use style="fill:#3f3d46;stroke:#3f3d46;" x="96.637813" xlink:href="#m020c068989" y="223.53"/>
      </g>
     </g>
     <g id="text_3">
      <!-- 0.9 -->
      <defs>
       <path d="M 10.984375 1.515625 
L 10.984375 10.5 
Q 14.703125 8.734375 18.5 7.8125 
Q 22.3125 6.890625 25.984375 6.890625 
Q 35.75 6.890625 40.890625 13.453125 
Q 46.046875 20.015625 46.78125 33.40625 
Q 43.953125 29.203125 39.59375 26.953125 
Q 35.25 24.703125 29.984375 24.703125 
Q 19.046875 24.703125 12.671875 31.3125 
Q 6.296875 37.9375 6.296875 49.421875 
Q 6.296875 60.640625 12.9375 67.421875 
Q 19.578125 74.21875 30.609375 74.21875 
Q 43.265625 74.21875 49.921875 64.515625 
Q 56.59375 54.828125 56.59375 36.375 
Q 56.59375 19.140625 48.40625 8.859375 
Q 40.234375 -1.421875 26.421875 -1.421875 
Q 22.703125 -1.421875 18.890625 -0.6875 
Q 15.09375 0.046875 10.984375 1.515625 
z
M 30.609375 32.421875 
Q 37.25 32.421875 41.125 36.953125 
Q 45.015625 41.5 45.015625 49.421875 
Q 45.015625 57.28125 41.125 61.84375 
Q 37.25 66.40625 30.609375 66.40625 
Q 23.96875 66.40625 20.09375 61.84375 
Q 16.21875 57.28125 16.21875 49.421875 
Q 16.21875 41.5 20.09375 36.953125 
Q 23.96875 32.421875 30.609375 32.421875 
z
" id="DejaVuSans-57"/>
      </defs>
      <g style="fill:#3f3d46;" transform="translate(50.24125 231.508359)scale(0.21 -0.21)">
       <use xlink:href="#DejaVuSans-48"/>
       <use x="63.623047" xlink:href="#DejaVuSans-46"/>
       <use x="95.410156" xlink:href="#DejaVuSans-57"/>
      </g>
     </g>
    </g>
    <g id="ytick_4">
     <g id="line2d_13">
      <g>
       <use style="fill:#3f3d46;stroke:#3f3d46;" x="96.637813" xlink:href="#m020c068989" y="152.358"/>
      </g>
     </g>
     <g id="text_4">
      <!-- 1.0 -->
      <defs>
       <path d="M 12.40625 8.296875 
L 28.515625 8.296875 
L 28.515625 63.921875 
L 10.984375 60.40625 
L 10.984375 69.390625 
L 28.421875 72.90625 
L 38.28125 72.90625 
L 38.28125 8.296875 
L 54.390625 8.296875 
L 54.390625 0 
L 12.40625 0 
z
" id="DejaVuSans-49"/>
      </defs>
      <g style="fill:#3f3d46;" transform="translate(50.24125 160.336359)scale(0.21 -0.21)">
       <use xlink:href="#DejaVuSans-49"/>
       <use x="63.623047" xlink:href="#DejaVuSans-46"/>
       <use x="95.410156" xlink:href="#DejaVuSans-48"/>
      </g>
     </g>
    </g>
    <g id="ytick_5">
     <g id="line2d_14">
      <g>
       <use style="fill:#3f3d46;stroke:#3f3d46;" x="96.637813" xlink:href="#m020c068989" y="81.186"/>
      </g>
     </g>
     <g id="text_5">
      <!-- 1.1 -->
      <g style="fill:#3f3d46;" transform="translate(50.24125 89.164359)scale(0.21 -0.21)">
       <use xlink:href="#DejaVuSans-49"/>
       <use x="63.623047" xlink:href="#DejaVuSans-46"/>
       <use x="95.410156" xlink:href="#DejaVuSans-49"/>
      </g>
     </g>
    </g>
    <g id="text_6">
     <!-- Radius [$R_J$] -->
     <defs>
      <path d="M 44.390625 34.1875 
Q 47.5625 33.109375 50.5625 29.59375 
Q 53.5625 26.078125 56.59375 19.921875 
L 66.609375 0 
L 56 0 
L 46.6875 18.703125 
Q 43.0625 26.03125 39.671875 28.421875 
Q 36.28125 30.8125 30.421875 30.8125 
L 19.671875 30.8125 
L 19.671875 0 
L 9.8125 0 
L 9.8125 72.90625 
L 32.078125 72.90625 
Q 44.578125 72.90625 50.734375 67.671875 
Q 56.890625 62.453125 56.890625 51.90625 
Q 56.890625 45.015625 53.6875 40.46875 
Q 50.484375 35.9375 44.390625 34.1875 
z
M 19.671875 64.796875 
L 19.671875 38.921875 
L 32.078125 38.921875 
Q 39.203125 38.921875 42.84375 42.21875 
Q 46.484375 45.515625 46.484375 51.90625 
Q 46.484375 58.296875 42.84375 61.546875 
Q 39.203125 64.796875 32.078125 64.796875 
z
" id="DejaVuSans-82"/>
      <path d="M 34.28125 27.484375 
Q 23.390625 27.484375 19.1875 25 
Q 14.984375 22.515625 14.984375 16.5 
Q 14.984375 11.71875 18.140625 8.90625 
Q 21.296875 6.109375 26.703125 6.109375 
Q 34.1875 6.109375 38.703125 11.40625 
Q 43.21875 16.703125 43.21875 25.484375 
L 43.21875 27.484375 
z
M 52.203125 31.203125 
L 52.203125 0 
L 43.21875 0 
L 43.21875 8.296875 
Q 40.140625 3.328125 35.546875 0.953125 
Q 30.953125 -1.421875 24.3125 -1.421875 
Q 15.921875 -1.421875 10.953125 3.296875 
Q 6 8.015625 6 15.921875 
Q 6 25.140625 12.171875 29.828125 
Q 18.359375 34.515625 30.609375 34.515625 
L 43.21875 34.515625 
L 43.21875 35.40625 
Q 43.21875 41.609375 39.140625 45 
Q 35.0625 48.390625 27.6875 48.390625 
Q 23 48.390625 18.546875 47.265625 
Q 14.109375 46.140625 10.015625 43.890625 
L 10.015625 52.203125 
Q 14.9375 54.109375 19.578125 55.046875 
Q 24.21875 56 28.609375 56 
Q 40.484375 56 46.34375 49.84375 
Q 52.203125 43.703125 52.203125 31.203125 
z
" id="DejaVuSans-97"/>
      <path d="M 45.40625 46.390625 
L 45.40625 75.984375 
L 54.390625 75.984375 
L 54.390625 0 
L 45.40625 0 
L 45.40625 8.203125 
Q 42.578125 3.328125 38.25 0.953125 
Q 33.9375 -1.421875 27.875 -1.421875 
Q 17.96875 -1.421875 11.734375 6.484375 
Q 5.515625 14.40625 5.515625 27.296875 
Q 5.515625 40.1875 11.734375 48.09375 
Q 17.96875 56 27.875 56 
Q 33.9375 56 38.25 53.625 
Q 42.578125 51.265625 45.40625 46.390625 
z
M 14.796875 27.296875 
Q 14.796875 17.390625 18.875 11.75 
Q 22.953125 6.109375 30.078125 6.109375 
Q 37.203125 6.109375 41.296875 11.75 
Q 45.40625 17.390625 45.40625 27.296875 
Q 45.40625 37.203125 41.296875 42.84375 
Q 37.203125 48.484375 30.078125 48.484375 
Q 22.953125 48.484375 18.875 42.84375 
Q 14.796875 37.203125 14.796875 27.296875 
z
" id="DejaVuSans-100"/>
      <path d="M 9.421875 54.6875 
L 18.40625 54.6875 
L 18.40625 0 
L 9.421875 0 
z
M 9.421875 75.984375 
L 18.40625 75.984375 
L 18.40625 64.59375 
L 9.421875 64.59375 
z
" id="DejaVuSans-105"/>
      <path d="M 8.5 21.578125 
L 8.5 54.6875 
L 17.484375 54.6875 
L 17.484375 21.921875 
Q 17.484375 14.15625 20.5 10.265625 
Q 23.53125 6.390625 29.59375 6.390625 
Q 36.859375 6.390625 41.078125 11.03125 
Q 45.3125 15.671875 45.3125 23.6875 
L 45.3125 54.6875 
L 54.296875 54.6875 
L 54.296875 0 
L 45.3125 0 
L 45.3125 8.40625 
Q 42.046875 3.421875 37.71875 1 
Q 33.40625 -1.421875 27.6875 -1.421875 
Q 18.265625 -1.421875 13.375 4.4375 
Q 8.5 10.296875 8.5 21.578125 
z
M 31.109375 56 
z
" id="DejaVuSans-117"/>
      <path d="M 44.28125 53.078125 
L 44.28125 44.578125 
Q 40.484375 46.53125 36.375 47.5 
Q 32.28125 48.484375 27.875 48.484375 
Q 21.1875 48.484375 17.84375 46.4375 
Q 14.5 44.390625 14.5 40.28125 
Q 14.5 37.15625 16.890625 35.375 
Q 19.28125 33.59375 26.515625 31.984375 
L 29.59375 31.296875 
Q 39.15625 29.25 43.1875 25.515625 
Q 47.21875 21.78125 47.21875 15.09375 
Q 47.21875 7.46875 41.1875 3.015625 
Q 35.15625 -1.421875 24.609375 -1.421875 
Q 20.21875 -1.421875 15.453125 -0.5625 
Q 10.6875 0.296875 5.421875 2 
L 5.421875 11.28125 
Q 10.40625 8.6875 15.234375 7.390625 
Q 20.0625 6.109375 24.8125 6.109375 
Q 31.15625 6.109375 34.5625 8.28125 
Q 37.984375 10.453125 37.984375 14.40625 
Q 37.984375 18.0625 35.515625 20.015625 
Q 33.0625 21.96875 24.703125 23.78125 
L 21.578125 24.515625 
Q 13.234375 26.265625 9.515625 29.90625 
Q 5.8125 33.546875 5.8125 39.890625 
Q 5.8125 47.609375 11.28125 51.796875 
Q 16.75 56 26.8125 56 
Q 31.78125 56 36.171875 55.265625 
Q 40.578125 54.546875 44.28125 53.078125 
z
" id="DejaVuSans-115"/>
      <path id="DejaVuSans-32"/>
      <path d="M 8.59375 75.984375 
L 29.296875 75.984375 
L 29.296875 69 
L 17.578125 69 
L 17.578125 -6.203125 
L 29.296875 -6.203125 
L 29.296875 -13.1875 
L 8.59375 -13.1875 
z
" id="DejaVuSans-91"/>
      <path d="M 25.203125 64.796875 
L 20.21875 38.921875 
L 32.90625 38.921875 
Q 40.375 38.921875 44.984375 43.046875 
Q 49.609375 47.171875 49.609375 53.8125 
Q 49.609375 59.125 46.5 61.953125 
Q 43.40625 64.796875 37.59375 64.796875 
z
M 43.3125 35.015625 
Q 46.4375 34.28125 48.515625 31.390625 
Q 50.59375 28.515625 53.328125 19.921875 
L 59.515625 0 
L 49.125 0 
L 43.40625 18.703125 
Q 41.21875 25.921875 38.328125 28.359375 
Q 35.453125 30.8125 29.5 30.8125 
L 18.609375 30.8125 
L 12.59375 0 
L 2.6875 0 
L 16.890625 72.90625 
L 39.109375 72.90625 
Q 49.21875 72.90625 54.609375 68.328125 
Q 60.015625 63.765625 60.015625 55.171875 
Q 60.015625 47.5625 55.421875 41.984375 
Q 50.828125 36.421875 43.3125 35.015625 
z
" id="DejaVuSans-Oblique-82"/>
      <path d="M 16.703125 72.90625 
L 26.609375 72.90625 
L 13.375 5.078125 
Q 10.796875 -8.15625 4.65625 -14.078125 
Q -1.46875 -20.015625 -12.5 -20.015625 
L -16.40625 -20.015625 
L -14.796875 -11.71875 
L -11.71875 -11.71875 
Q -5.125 -11.71875 -1.703125 -7.953125 
Q 1.703125 -4.203125 3.515625 5.078125 
z
" id="DejaVuSans-Oblique-74"/>
      <path d="M 30.421875 75.984375 
L 30.421875 -13.1875 
L 9.71875 -13.1875 
L 9.71875 -6.203125 
L 21.390625 -6.203125 
L 21.390625 69 
L 9.71875 69 
L 9.71875 75.984375 
z
" id="DejaVuSans-93"/>
     </defs>
     <g style="fill:#3f3d46;" transform="translate(38.80125 288.45)rotate(-90)scale(0.24 -0.24)">
      <use transform="translate(0 0.015625)" xlink:href="#DejaVuSans-82"/>
      <use transform="translate(69.482422 0.015625)" xlink:href="#DejaVuSans-97"/>
      <use transform="translate(130.761719 0.015625)" xlink:href="#DejaVuSans-100"/>
      <use transform="translate(194.238281 0.015625)" xlink:href="#DejaVuSans-105"/>
      <use transform="translate(222.021484 0.015625)" xlink:href="#DejaVuSans-117"/>
      <use transform="translate(285.400391 0.015625)" xlink:href="#DejaVuSans-115"/>
      <use transform="translate(337.5 0.015625)" xlink:href="#DejaVuSans-32"/>
      <use transform="translate(369.287109 0.015625)" xlink:href="#DejaVuSans-91"/>
      <use transform="translate(408.300781 0.015625)" xlink:href="#DejaVuSans-Oblique-82"/>
      <use transform="translate(477.783203 -16.390625)scale(0.7)" xlink:href="#DejaVuSans-Oblique-74"/>
      <use transform="translate(501.162109 0.015625)" xlink:href="#DejaVuSans-93"/>
     </g>
    </g>
   </g>
   <g id="line2d_15">
    <path clip-path="url(#p91dc9025a0)" d="M 96.637813 210.527169 
L 164.072656 227.270235 
L 231.5075 243.715174 
L 298.942344 259.902898 
L 366.377188 276.22913 
L 433.812031 292.052007 
L 501.246875 308.156851 
L 568.681719 324.485017 
L 636.116563 340.683918 
" style="fill:none;stroke:#00224e;stroke-dasharray:11.1,4.8;stroke-dashoffset:0;stroke-width:3;"/>
   </g>
   <g id="line2d_16">
    <path clip-path="url(#p91dc9025a0)" d="M 96.637813 193.963589 
L 164.072656 212.205961 
L 231.5075 229.833428 
L 298.942344 247.025432 
L 366.377188 264.18437 
L 433.812031 280.673579 
L 501.246875 297.308026 
L 568.681719 313.992055 
L 636.116563 330.270318 
" style="fill:none;stroke:#434e6c;stroke-dasharray:11.1,4.8;stroke-dashoffset:0;stroke-width:3;"/>
   </g>
   <g id="line2d_17">
    <path clip-path="url(#p91dc9025a0)" d="M 96.637813 115.506288 
L 164.072656 138.527179 
L 231.5075 160.591402 
L 298.942344 181.975219 
L 366.377188 203.150524 
L 433.812031 223.318023 
L 501.246875 243.561721 
L 568.681719 263.716646 
L 636.116563 283.277463 
" style="fill:none;stroke:#7c7b78;stroke-dasharray:11.1,4.8;stroke-dashoffset:0;stroke-width:3;"/>
   </g>
   <g id="line2d_18">
    <path clip-path="url(#p91dc9025a0)" d="M 96.637813 91.01615 
L 164.072656 115.663398 
L 231.5075 139.24416 
L 298.942344 161.990802 
L 366.377188 184.507694 
L 433.812031 205.860027 
L 501.246875 227.23313 
L 568.681719 248.458861 
L 636.116563 269.003891 
" style="fill:none;stroke:#bbad6c;stroke-dasharray:11.1,4.8;stroke-dashoffset:0;stroke-width:3;"/>
   </g>
   <g id="line2d_19">
    <path clip-path="url(#p91dc9025a0)" d="M 96.637813 210.527169 
L 96.637813 209.604915 
L 150.585688 221.438984 
L 204.533563 237.147099 
L 258.481438 254.125927 
L 312.429313 271.878189 
L 366.377188 288.814517 
L 420.325063 305.452583 
L 474.272938 321.643246 
L 528.220813 337.523995 
" style="fill:none;stroke:#00224e;stroke-linecap:square;stroke-width:3;"/>
   </g>
   <g id="line2d_20">
    <path clip-path="url(#p91dc9025a0)" d="M 298.942344 267.440124 
L 366.377188 288.814517 
L 433.812031 309.500249 
L 501.246875 329.583621 
L 568.681719 349.434557 
L 636.116563 369.285493 
" style="fill:none;stroke:#00224e;stroke-linecap:square;stroke-width:3;"/>
   </g>
   <g id="line2d_21">
    <path clip-path="url(#p91dc9025a0)" d="M 96.637813 193.963589 
L 150.585688 202.267757 
L 204.533563 216.079453 
L 258.481438 232.841156 
L 312.429313 252.33901 
L 366.377188 270.657683 
L 420.325063 288.183784 
L 474.272938 304.806929 
L 528.220813 321.045687 
" style="fill:none;stroke:#434e6c;stroke-linecap:square;stroke-width:3;"/>
   </g>
   <g id="line2d_22">
    <path clip-path="url(#p91dc9025a0)" d="M 298.942344 247.464547 
L 366.377188 270.657683 
L 433.812031 292.339571 
L 501.246875 312.926308 
L 568.681719 333.224755 
L 636.116563 353.523202 
" style="fill:none;stroke:#434e6c;stroke-linecap:square;stroke-width:3;"/>
   </g>
   <g id="line2d_23">
    <path clip-path="url(#p91dc9025a0)" d="M 96.637813 115.506288 
L 150.585688 88.560376 
L 204.533563 87.871329 
L 258.481438 104.225492 
L 312.429313 127.527966 
L 366.377188 147.870813 
L 420.325063 172.270534 
L 474.272938 195.638724 
L 528.220813 218.39283 
L 582.168688 241.830393 
L 636.116563 264.06965 
" style="fill:none;stroke:#7c7b78;stroke-linecap:square;stroke-width:3;"/>
   </g>
   <g id="line2d_24">
    <path clip-path="url(#p91dc9025a0)" d="M 298.942344 121.702347 
L 366.377188 147.870813 
L 433.812031 178.112581 
L 501.246875 207.015777 
L 568.681719 235.971002 
L 636.116563 264.06965 
" style="fill:none;stroke:#7c7b78;stroke-linecap:square;stroke-width:3;"/>
   </g>
   <g id="line2d_25">
    <path clip-path="url(#p91dc9025a0)" d="M 96.637813 91.01615 
L 150.585688 61.685905 
L 204.533563 61.137388 
L 258.481438 79.128148 
L 312.429313 102.94776 
L 366.377188 125.647468 
L 420.325063 152.979396 
L 474.272938 178.113788 
L 528.220813 202.705241 
L 582.168688 227.701832 
L 636.116563 251.408295 
" style="fill:none;stroke:#bbad6c;stroke-linecap:square;stroke-width:3;"/>
   </g>
   <g id="line2d_26">
    <path clip-path="url(#p91dc9025a0)" d="M 298.942344 96.992857 
L 366.377188 125.647468 
L 433.812031 159.262994 
L 501.246875 190.409514 
L 568.681719 221.452684 
L 636.116563 251.408295 
" style="fill:none;stroke:#bbad6c;stroke-linecap:square;stroke-width:3;"/>
   </g>
   <g id="patch_3">
    <path d="M 96.637813 401.46 
L 96.637813 45.6 
" style="fill:none;stroke:#6a737d;stroke-linecap:square;stroke-linejoin:miter;stroke-width:1.4;"/>
   </g>
   <g id="patch_4">
    <path d="M 636.116562 401.46 
L 636.116562 45.6 
" style="fill:none;stroke:#6a737d;stroke-linecap:square;stroke-linejoin:miter;stroke-width:1.4;"/>
   </g>
   <g id="patch_5">
    <path d="M 96.637813 401.46 
L 636.116563 401.46 
" style="fill:none;stroke:#6a737d;stroke-linecap:square;stroke-linejoin:miter;stroke-width:1.4;"/>
   </g>
   <g id="patch_6">
    <path d="M 96.637813 45.6 
L 636.116563 45.6 
" style="fill:none;stroke:#6a737d;stroke-linecap:square;stroke-linejoin:miter;stroke-width:1.4;"/>
   </g>
   <g id="text_7">
    <!-- (a) -->
    <defs>
     <path d="M 37.703125 -13.1875 
L 23.1875 -13.1875 
Q 15.71875 -1.125 12.15625 9.734375 
Q 8.59375 20.609375 8.59375 31.296875 
Q 8.59375 42 12.171875 52.953125 
Q 15.765625 63.921875 23.1875 75.875 
L 37.703125 75.875 
Q 31.453125 64.3125 28.328125 53.25 
Q 25.203125 42.1875 25.203125 31.390625 
Q 25.203125 20.609375 28.296875 9.515625 
Q 31.390625 -1.5625 37.703125 -13.1875 
z
" id="DejaVuSans-Bold-40"/>
     <path d="M 32.90625 24.609375 
Q 27.4375 24.609375 24.671875 22.75 
Q 21.921875 20.90625 21.921875 17.28125 
Q 21.921875 13.96875 24.140625 12.078125 
Q 26.375 10.203125 30.328125 10.203125 
Q 35.25 10.203125 38.625 13.734375 
Q 42 17.28125 42 22.609375 
L 42 24.609375 
z
M 59.625 31.203125 
L 59.625 0 
L 42 0 
L 42 8.109375 
Q 38.484375 3.125 34.078125 0.84375 
Q 29.6875 -1.421875 23.390625 -1.421875 
Q 14.890625 -1.421875 9.59375 3.53125 
Q 4.296875 8.5 4.296875 16.40625 
Q 4.296875 26.03125 10.90625 30.515625 
Q 17.53125 35.015625 31.6875 35.015625 
L 42 35.015625 
L 42 36.375 
Q 42 40.53125 38.71875 42.453125 
Q 35.453125 44.390625 28.515625 44.390625 
Q 22.90625 44.390625 18.0625 43.265625 
Q 13.234375 42.140625 9.078125 39.890625 
L 9.078125 53.21875 
Q 14.703125 54.59375 20.359375 55.296875 
Q 26.03125 56 31.6875 56 
Q 46.484375 56 53.046875 50.171875 
Q 59.625 44.34375 59.625 31.203125 
z
" id="DejaVuSans-Bold-97"/>
     <path d="M 8.015625 -13.1875 
Q 14.265625 -1.5625 17.390625 9.515625 
Q 20.515625 20.609375 20.515625 31.390625 
Q 20.515625 42.1875 17.390625 53.25 
Q 14.265625 64.3125 8.015625 75.875 
L 22.515625 75.875 
Q 29.9375 63.921875 33.515625 52.953125 
Q 37.109375 42 37.109375 31.296875 
Q 37.109375 20.609375 33.546875 9.734375 
Q 29.984375 -1.125 22.515625 -13.1875 
z
" id="DejaVuSans-Bold-41"/>
    </defs>
    <g transform="translate(150.585688 365.874)scale(0.22 -0.22)">
     <use xlink:href="#DejaVuSans-Bold-40"/>
     <use x="45.703125" xlink:href="#DejaVuSans-Bold-97"/>
     <use x="113.183594" xlink:href="#DejaVuSans-Bold-41"/>
    </g>
   </g>
   <g id="text_8">
    <!-- 0.2 $M_J$ | 0.5 Gyrs -->
    <defs>
     <path d="M 19.1875 8.296875 
L 53.609375 8.296875 
L 53.609375 0 
L 7.328125 0 
L 7.328125 8.296875 
Q 12.9375 14.109375 22.625 23.890625 
Q 32.328125 33.6875 34.8125 36.53125 
Q 39.546875 41.84375 41.421875 45.53125 
Q 43.3125 49.21875 43.3125 52.78125 
Q 43.3125 58.59375 39.234375 62.25 
Q 35.15625 65.921875 28.609375 65.921875 
Q 23.96875 65.921875 18.8125 64.3125 
Q 13.671875 62.703125 7.8125 59.421875 
L 7.8125 69.390625 
Q 13.765625 71.78125 18.9375 73 
Q 24.125 74.21875 28.421875 74.21875 
Q 39.75 74.21875 46.484375 68.546875 
Q 53.21875 62.890625 53.21875 53.421875 
Q 53.21875 48.921875 51.53125 44.890625 
Q 49.859375 40.875 45.40625 35.40625 
Q 44.1875 33.984375 37.640625 27.21875 
Q 31.109375 20.453125 19.1875 8.296875 
z
" id="DejaVuSans-50"/>
     <path d="M 16.890625 72.90625 
L 31.6875 72.90625 
L 40.1875 23.78125 
L 68.40625 72.90625 
L 83.59375 72.90625 
L 69.390625 0 
L 59.8125 0 
L 72.21875 63.921875 
L 43.609375 14.015625 
L 33.984375 14.015625 
L 24.703125 64.109375 
L 12.3125 0 
L 2.6875 0 
z
" id="DejaVuSans-Oblique-77"/>
     <path d="M 21 76.421875 
L 21 -23.578125 
L 12.703125 -23.578125 
L 12.703125 76.421875 
z
" id="DejaVuSans-124"/>
     <path d="M 10.796875 72.90625 
L 49.515625 72.90625 
L 49.515625 64.59375 
L 19.828125 64.59375 
L 19.828125 46.734375 
Q 21.96875 47.46875 24.109375 47.828125 
Q 26.265625 48.1875 28.421875 48.1875 
Q 40.625 48.1875 47.75 41.5 
Q 54.890625 34.8125 54.890625 23.390625 
Q 54.890625 11.625 47.5625 5.09375 
Q 40.234375 -1.421875 26.90625 -1.421875 
Q 22.3125 -1.421875 17.546875 -0.640625 
Q 12.796875 0.140625 7.71875 1.703125 
L 7.71875 11.625 
Q 12.109375 9.234375 16.796875 8.0625 
Q 21.484375 6.890625 26.703125 6.890625 
Q 35.15625 6.890625 40.078125 11.328125 
Q 45.015625 15.765625 45.015625 23.390625 
Q 45.015625 31 40.078125 35.4375 
Q 35.15625 39.890625 26.703125 39.890625 
Q 22.75 39.890625 18.8125 39.015625 
Q 14.890625 38.140625 10.796875 36.28125 
z
" id="DejaVuSans-53"/>
     <path d="M 59.515625 10.40625 
L 59.515625 29.984375 
L 43.40625 29.984375 
L 43.40625 38.09375 
L 69.28125 38.09375 
L 69.28125 6.78125 
Q 63.578125 2.734375 56.6875 0.65625 
Q 49.8125 -1.421875 42 -1.421875 
Q 24.90625 -1.421875 15.25 8.5625 
Q 5.609375 18.5625 5.609375 36.375 
Q 5.609375 54.25 15.25 64.234375 
Q 24.90625 74.21875 42 74.21875 
Q 49.125 74.21875 55.546875 72.453125 
Q 61.96875 70.703125 67.390625 67.28125 
L 67.390625 56.78125 
Q 61.921875 61.421875 55.765625 63.765625 
Q 49.609375 66.109375 42.828125 66.109375 
Q 29.4375 66.109375 22.71875 58.640625 
Q 16.015625 51.171875 16.015625 36.375 
Q 16.015625 21.625 22.71875 14.15625 
Q 29.4375 6.6875 42.828125 6.6875 
Q 48.046875 6.6875 52.140625 7.59375 
Q 56.25 8.5 59.515625 10.40625 
z
" id="DejaVuSans-71"/>
     <path d="M 32.171875 -5.078125 
Q 28.375 -14.84375 24.75 -17.8125 
Q 21.140625 -20.796875 15.09375 -20.796875 
L 7.90625 -20.796875 
L 7.90625 -13.28125 
L 13.1875 -13.28125 
Q 16.890625 -13.28125 18.9375 -11.515625 
Q 21 -9.765625 23.484375 -3.21875 
L 25.09375 0.875 
L 2.984375 54.6875 
L 12.5 54.6875 
L 29.59375 11.921875 
L 46.6875 54.6875 
L 56.203125 54.6875 
z
" id="DejaVuSans-121"/>
     <path d="M 41.109375 46.296875 
Q 39.59375 47.171875 37.8125 47.578125 
Q 36.03125 48 33.890625 48 
Q 26.265625 48 22.1875 43.046875 
Q 18.109375 38.09375 18.109375 28.8125 
L 18.109375 0 
L 9.078125 0 
L 9.078125 54.6875 
L 18.109375 54.6875 
L 18.109375 46.1875 
Q 20.953125 51.171875 25.484375 53.578125 
Q 30.03125 56 36.53125 56 
Q 37.453125 56 38.578125 55.875 
Q 39.703125 55.765625 41.0625 55.515625 
z
" id="DejaVuSans-114"/>
    </defs>
    <g style="fill:#3f3d46;" transform="translate(455.712781 88.393)scale(0.21 -0.21)">
     <use transform="translate(0 0.578125)" xlink:href="#DejaVuSans-48"/>
     <use transform="translate(63.623047 0.578125)" xlink:href="#DejaVuSans-46"/>
     <use transform="translate(95.332031 0.578125)" xlink:href="#DejaVuSans-50"/>
     <use transform="translate(158.955078 0.578125)" xlink:href="#DejaVuSans-32"/>
     <use transform="translate(190.742188 0.578125)" xlink:href="#DejaVuSans-Oblique-77"/>
     <use transform="translate(277.021484 -15.828125)scale(0.7)" xlink:href="#DejaVuSans-Oblique-74"/>
     <use transform="translate(300.400391 0.578125)" xlink:href="#DejaVuSans-32"/>
     <use transform="translate(332.1875 0.578125)" xlink:href="#DejaVuSans-124"/>
     <use transform="translate(365.878906 0.578125)" xlink:href="#DejaVuSans-32"/>
     <use transform="translate(397.666016 0.578125)" xlink:href="#DejaVuSans-48"/>
     <use transform="translate(461.289062 0.578125)" xlink:href="#DejaVuSans-46"/>
     <use transform="translate(493.076172 0.578125)" xlink:href="#DejaVuSans-53"/>
     <use transform="translate(556.699219 0.578125)" xlink:href="#DejaVuSans-32"/>
     <use transform="translate(588.486328 0.578125)" xlink:href="#DejaVuSans-71"/>
     <use transform="translate(665.976562 0.578125)" xlink:href="#DejaVuSans-121"/>
     <use transform="translate(725.15625 0.578125)" xlink:href="#DejaVuSans-114"/>
     <use transform="translate(766.269531 0.578125)" xlink:href="#DejaVuSans-115"/>
    </g>
   </g>
  </g>
  <g id="axes_2">
   <g id="patch_7">
    <path d="M 693.251563 401.46 
L 1232.730313 401.46 
L 1232.730313 45.6 
L 693.251563 45.6 
z
" style="fill:none;"/>
   </g>
   <g id="matplotlib.axis_3">
    <g id="xtick_10">
     <g id="line2d_27">
      <g>
       <use style="fill:#3f3d46;stroke:#3f3d46;" x="693.251563" xlink:href="#mbb89ecb095" y="401.46"/>
      </g>
     </g>
    </g>
    <g id="xtick_11">
     <g id="line2d_28">
      <g>
       <use style="fill:#3f3d46;stroke:#3f3d46;" x="760.686406" xlink:href="#mbb89ecb095" y="401.46"/>
      </g>
     </g>
    </g>
    <g id="xtick_12">
     <g id="line2d_29">
      <g>
       <use style="fill:#3f3d46;stroke:#3f3d46;" x="828.12125" xlink:href="#mbb89ecb095" y="401.46"/>
      </g>
     </g>
    </g>
    <g id="xtick_13">
     <g id="line2d_30">
      <g>
       <use style="fill:#3f3d46;stroke:#3f3d46;" x="895.556094" xlink:href="#mbb89ecb095" y="401.46"/>
      </g>
     </g>
    </g>
    <g id="xtick_14">
     <g id="line2d_31">
      <g>
       <use style="fill:#3f3d46;stroke:#3f3d46;" x="962.990938" xlink:href="#mbb89ecb095" y="401.46"/>
      </g>
     </g>
    </g>
    <g id="xtick_15">
     <g id="line2d_32">
      <g>
       <use style="fill:#3f3d46;stroke:#3f3d46;" x="1030.425781" xlink:href="#mbb89ecb095" y="401.46"/>
      </g>
     </g>
    </g>
    <g id="xtick_16">
     <g id="line2d_33">
      <g>
       <use style="fill:#3f3d46;stroke:#3f3d46;" x="1097.860625" xlink:href="#mbb89ecb095" y="401.46"/>
      </g>
     </g>
    </g>
    <g id="xtick_17">
     <g id="line2d_34">
      <g>
       <use style="fill:#3f3d46;stroke:#3f3d46;" x="1165.295469" xlink:href="#mbb89ecb095" y="401.46"/>
      </g>
     </g>
    </g>
    <g id="xtick_18">
     <g id="line2d_35">
      <g>
       <use style="fill:#3f3d46;stroke:#3f3d46;" x="1232.730313" xlink:href="#mbb89ecb095" y="401.46"/>
      </g>
     </g>
    </g>
   </g>
   <g id="matplotlib.axis_4">
    <g id="ytick_6">
     <g id="line2d_36">
      <g>
       <use style="fill:#3f3d46;stroke:#3f3d46;" x="693.251563" xlink:href="#m020c068989" y="365.874"/>
      </g>
     </g>
    </g>
    <g id="ytick_7">
     <g id="line2d_37">
      <g>
       <use style="fill:#3f3d46;stroke:#3f3d46;" x="693.251563" xlink:href="#m020c068989" y="294.702"/>
      </g>
     </g>
    </g>
    <g id="ytick_8">
     <g id="line2d_38">
      <g>
       <use style="fill:#3f3d46;stroke:#3f3d46;" x="693.251563" xlink:href="#m020c068989" y="223.53"/>
      </g>
     </g>
    </g>
    <g id="ytick_9">
     <g id="line2d_39">
      <g>
       <use style="fill:#3f3d46;stroke:#3f3d46;" x="693.251563" xlink:href="#m020c068989" y="152.358"/>
      </g>
     </g>
    </g>
    <g id="ytick_10">
     <g id="line2d_40">
      <g>
       <use style="fill:#3f3d46;stroke:#3f3d46;" x="693.251563" xlink:href="#m020c068989" y="81.186"/>
      </g>
     </g>
    </g>
   </g>
   <g id="line2d_41">
    <path clip-path="url(#p48096a6eba)" d="M 693.251563 270.559925 
L 760.686406 284.755489 
L 828.12125 298.490543 
L 895.556094 311.978565 
L 962.990938 325.446281 
L 1030.425781 338.494071 
L 1097.860625 351.628499 
L 1165.295469 364.843759 
L 1232.730313 377.745322 
" style="fill:none;stroke:#00224e;stroke-dasharray:11.1,4.8;stroke-dashoffset:0;stroke-width:3;"/>
   </g>
   <g id="line2d_42">
    <path clip-path="url(#p48096a6eba)" d="M 693.251563 245.148552 
L 760.686406 260.743768 
L 828.12125 275.857376 
L 895.556094 290.63389 
L 962.990938 305.397639 
L 1030.425781 319.587953 
L 1097.860625 333.943844 
L 1165.295469 348.32064 
L 1232.730313 362.360334 
" style="fill:none;stroke:#434e6c;stroke-dasharray:11.1,4.8;stroke-dashoffset:0;stroke-width:3;"/>
   </g>
   <g id="line2d_43">
    <path clip-path="url(#p48096a6eba)" d="M 693.251563 218.537478 
L 760.686406 235.523738 
L 828.12125 251.929095 
L 895.556094 267.897812 
L 962.990938 283.946478 
L 1030.425781 299.33408 
L 1097.860625 314.902601 
L 1165.295469 330.583971 
L 1232.730313 345.875659 
" style="fill:none;stroke:#7c7b78;stroke-dasharray:11.1,4.8;stroke-dashoffset:0;stroke-width:3;"/>
   </g>
   <g id="line2d_44">
    <path clip-path="url(#p48096a6eba)" d="M 693.251563 195.936535 
L 760.686406 214.233152 
L 828.12125 231.819324 
L 895.556094 248.920787 
L 962.990938 265.9461 
L 1030.425781 282.244826 
L 1097.860625 298.771864 
L 1165.295469 315.358883 
L 1232.730313 331.533498 
" style="fill:none;stroke:#bbad6c;stroke-dasharray:11.1,4.8;stroke-dashoffset:0;stroke-width:3;"/>
   </g>
   <g id="line2d_45">
    <path clip-path="url(#p48096a6eba)" d="M 693.251563 270.559925 
L 693.251563 268.693918 
L 747.199438 281.80326 
L 801.147313 297.261132 
L 855.095188 312.182001 
L 909.043063 325.436645 
L 962.990938 338.899505 
L 1016.938813 352.252525 
" style="fill:none;stroke:#00224e;stroke-linecap:square;stroke-width:3;"/>
   </g>
   <g id="line2d_46">
    <path clip-path="url(#p48096a6eba)" d="M 895.556094 322.122984 
L 962.990938 338.899505 
L 1030.425781 355.59078 
L 1097.860625 372.282056 
L 1165.295469 388.973331 
L 1232.730313 405.664607 
" style="fill:none;stroke:#00224e;stroke-linecap:square;stroke-width:3;"/>
   </g>
   <g id="line2d_47">
    <path clip-path="url(#p48096a6eba)" d="M 693.251563 245.148552 
L 747.199438 256.568464 
L 801.147313 271.31269 
L 855.095188 286.552016 
L 909.043063 301.960311 
L 962.990938 317.458402 
L 1016.938813 333.805661 
L 1070.886688 348.92449 
L 1124.834563 363.648995 
" style="fill:none;stroke:#434e6c;stroke-linecap:square;stroke-width:3;"/>
   </g>
   <g id="line2d_48">
    <path clip-path="url(#p48096a6eba)" d="M 895.556094 298.108237 
L 962.990938 317.458402 
L 1030.425781 337.585368 
L 1097.860625 356.286742 
L 1165.295469 374.692373 
L 1232.730313 393.098004 
" style="fill:none;stroke:#434e6c;stroke-linecap:square;stroke-width:3;"/>
   </g>
   <g id="line2d_49">
    <path clip-path="url(#p48096a6eba)" d="M 693.251563 218.537478 
L 747.199438 198.220592 
L 801.147313 197.98412 
L 855.095188 207.012799 
L 909.043063 227.610166 
L 962.990938 246.807874 
L 1016.938813 265.58274 
L 1070.886688 283.111517 
L 1124.834563 300.383382 
" style="fill:none;stroke:#7c7b78;stroke-linecap:square;stroke-width:3;"/>
   </g>
   <g id="line2d_50">
    <path clip-path="url(#p48096a6eba)" d="M 895.556094 222.460825 
L 962.990938 246.807874 
L 1030.425781 269.964934 
L 1097.860625 291.74745 
L 1165.295469 313.337282 
L 1232.730313 334.927113 
" style="fill:none;stroke:#7c7b78;stroke-linecap:square;stroke-width:3;"/>
   </g>
   <g id="line2d_51">
    <path clip-path="url(#p48096a6eba)" d="M 693.251563 195.936535 
L 747.199438 174.913879 
L 801.147313 174.899769 
L 855.095188 184.742412 
L 909.043063 207.573527 
L 962.990938 228.673319 
L 1016.938813 248.885017 
L 1070.886688 267.943013 
L 1124.834563 286.618666 
" style="fill:none;stroke:#bbad6c;stroke-linecap:square;stroke-width:3;"/>
   </g>
   <g id="line2d_52">
    <path clip-path="url(#p48096a6eba)" d="M 895.556094 201.865748 
L 962.990938 228.673319 
L 1030.425781 253.649516 
L 1097.860625 277.28084 
L 1165.295469 300.625406 
L 1232.730313 323.969972 
" style="fill:none;stroke:#bbad6c;stroke-linecap:square;stroke-width:3;"/>
   </g>
   <g id="patch_8">
    <path d="M 693.251563 401.46 
L 693.251563 45.6 
" style="fill:none;stroke:#6a737d;stroke-linecap:square;stroke-linejoin:miter;stroke-width:1.4;"/>
   </g>
   <g id="patch_9">
    <path d="M 1232.730313 401.46 
L 1232.730313 45.6 
" style="fill:none;stroke:#6a737d;stroke-linecap:square;stroke-linejoin:miter;stroke-width:1.4;"/>
   </g>
   <g id="patch_10">
    <path d="M 693.251563 401.46 
L 1232.730313 401.46 
" style="fill:none;stroke:#6a737d;stroke-linecap:square;stroke-linejoin:miter;stroke-width:1.4;"/>
   </g>
   <g id="patch_11">
    <path d="M 693.251563 45.6 
L 1232.730313 45.6 
" style="fill:none;stroke:#6a737d;stroke-linecap:square;stroke-linejoin:miter;stroke-width:1.4;"/>
   </g>
   <g id="text_9">
    <!-- (b) -->
    <defs>
     <path d="M 37.5 11.28125 
Q 43.109375 11.28125 46.0625 15.375 
Q 49.03125 19.484375 49.03125 27.296875 
Q 49.03125 35.109375 46.0625 39.203125 
Q 43.109375 43.3125 37.5 43.3125 
Q 31.890625 43.3125 28.875 39.1875 
Q 25.875 35.0625 25.875 27.296875 
Q 25.875 19.53125 28.875 15.40625 
Q 31.890625 11.28125 37.5 11.28125 
z
M 25.875 46.6875 
Q 29.5 51.46875 33.890625 53.734375 
Q 38.28125 56 44 56 
Q 54.109375 56 60.59375 47.96875 
Q 67.09375 39.9375 67.09375 27.296875 
Q 67.09375 14.65625 60.59375 6.609375 
Q 54.109375 -1.421875 44 -1.421875 
Q 38.28125 -1.421875 33.890625 0.84375 
Q 29.5 3.125 25.875 7.90625 
L 25.875 0 
L 8.40625 0 
L 8.40625 75.984375 
L 25.875 75.984375 
z
" id="DejaVuSans-Bold-98"/>
    </defs>
    <g transform="translate(747.199438 365.874)scale(0.22 -0.22)">
     <use xlink:href="#DejaVuSans-Bold-40"/>
     <use x="45.703125" xlink:href="#DejaVuSans-Bold-98"/>
     <use x="117.285156" xlink:href="#DejaVuSans-Bold-41"/>
    </g>
   </g>
   <g id="text_10">
    <!-- 0.2 $M_J$ | 5 Gyrs -->
    <g style="fill:#3f3d46;" transform="translate(711.745344 88.393)scale(0.21 -0.21)">
     <use transform="translate(0 0.578125)" xlink:href="#DejaVuSans-48"/>
     <use transform="translate(63.623047 0.578125)" xlink:href="#DejaVuSans-46"/>
     <use transform="translate(95.332031 0.578125)" xlink:href="#DejaVuSans-50"/>
     <use transform="translate(158.955078 0.578125)" xlink:href="#DejaVuSans-32"/>
     <use transform="translate(190.742188 0.578125)" xlink:href="#DejaVuSans-Oblique-77"/>
     <use transform="translate(277.021484 -15.828125)scale(0.7)" xlink:href="#DejaVuSans-Oblique-74"/>
     <use transform="translate(300.400391 0.578125)" xlink:href="#DejaVuSans-32"/>
     <use transform="translate(332.1875 0.578125)" xlink:href="#DejaVuSans-124"/>
     <use transform="translate(365.878906 0.578125)" xlink:href="#DejaVuSans-32"/>
     <use transform="translate(397.666016 0.578125)" xlink:href="#DejaVuSans-53"/>
     <use transform="translate(461.289062 0.578125)" xlink:href="#DejaVuSans-32"/>
     <use transform="translate(493.076172 0.578125)" xlink:href="#DejaVuSans-71"/>
     <use transform="translate(570.566406 0.578125)" xlink:href="#DejaVuSans-121"/>
     <use transform="translate(629.746094 0.578125)" xlink:href="#DejaVuSans-114"/>
     <use transform="translate(670.859375 0.578125)" xlink:href="#DejaVuSans-115"/>
    </g>
   </g>
  </g>
  <g id="axes_3">
   <g id="patch_12">
    <path d="M 96.637813 795.08 
L 636.116562 795.08 
L 636.116562 439.22 
L 96.637813 439.22 
z
" style="fill:none;"/>
   </g>
   <g id="matplotlib.axis_5">
    <g id="xtick_19">
     <g id="line2d_53">
      <g>
       <use style="fill:#3f3d46;stroke:#3f3d46;" x="96.637813" xlink:href="#mbb89ecb095" y="795.08"/>
      </g>
     </g>
     <g id="text_11">
      <!-- 0.00 -->
      <g style="fill:#3f3d46;" transform="translate(73.258906 824.036719)scale(0.21 -0.21)">
       <use xlink:href="#DejaVuSans-48"/>
       <use x="63.623047" xlink:href="#DejaVuSans-46"/>
       <use x="95.410156" xlink:href="#DejaVuSans-48"/>
       <use x="159.033203" xlink:href="#DejaVuSans-48"/>
      </g>
     </g>
    </g>
    <g id="xtick_20">
     <g id="line2d_54">
      <g>
       <use style="fill:#3f3d46;stroke:#3f3d46;" x="164.072656" xlink:href="#mbb89ecb095" y="795.08"/>
      </g>
     </g>
     <g id="text_12">
      <!-- 0.05 -->
      <g style="fill:#3f3d46;" transform="translate(140.69375 824.036719)scale(0.21 -0.21)">
       <use xlink:href="#DejaVuSans-48"/>
       <use x="63.623047" xlink:href="#DejaVuSans-46"/>
       <use x="95.410156" xlink:href="#DejaVuSans-48"/>
       <use x="159.033203" xlink:href="#DejaVuSans-53"/>
      </g>
     </g>
    </g>
    <g id="xtick_21">
     <g id="line2d_55">
      <g>
       <use style="fill:#3f3d46;stroke:#3f3d46;" x="231.5075" xlink:href="#mbb89ecb095" y="795.08"/>
      </g>
     </g>
     <g id="text_13">
      <!-- 0.10 -->
      <g style="fill:#3f3d46;" transform="translate(208.128594 824.036719)scale(0.21 -0.21)">
       <use xlink:href="#DejaVuSans-48"/>
       <use x="63.623047" xlink:href="#DejaVuSans-46"/>
       <use x="95.410156" xlink:href="#DejaVuSans-49"/>
       <use x="159.033203" xlink:href="#DejaVuSans-48"/>
      </g>
     </g>
    </g>
    <g id="xtick_22">
     <g id="line2d_56">
      <g>
       <use style="fill:#3f3d46;stroke:#3f3d46;" x="298.942344" xlink:href="#mbb89ecb095" y="795.08"/>
      </g>
     </g>
     <g id="text_14">
      <!-- 0.15 -->
      <g style="fill:#3f3d46;" transform="translate(275.563438 824.036719)scale(0.21 -0.21)">
       <use xlink:href="#DejaVuSans-48"/>
       <use x="63.623047" xlink:href="#DejaVuSans-46"/>
       <use x="95.410156" xlink:href="#DejaVuSans-49"/>
       <use x="159.033203" xlink:href="#DejaVuSans-53"/>
      </g>
     </g>
    </g>
    <g id="xtick_23">
     <g id="line2d_57">
      <g>
       <use style="fill:#3f3d46;stroke:#3f3d46;" x="366.377188" xlink:href="#mbb89ecb095" y="795.08"/>
      </g>
     </g>
     <g id="text_15">
      <!-- 0.20 -->
      <g style="fill:#3f3d46;" transform="translate(342.998281 824.036719)scale(0.21 -0.21)">
       <use xlink:href="#DejaVuSans-48"/>
       <use x="63.623047" xlink:href="#DejaVuSans-46"/>
       <use x="95.410156" xlink:href="#DejaVuSans-50"/>
       <use x="159.033203" xlink:href="#DejaVuSans-48"/>
      </g>
     </g>
    </g>
    <g id="xtick_24">
     <g id="line2d_58">
      <g>
       <use style="fill:#3f3d46;stroke:#3f3d46;" x="433.812031" xlink:href="#mbb89ecb095" y="795.08"/>
      </g>
     </g>
     <g id="text_16">
      <!-- 0.25 -->
      <g style="fill:#3f3d46;" transform="translate(410.433125 824.036719)scale(0.21 -0.21)">
       <use xlink:href="#DejaVuSans-48"/>
       <use x="63.623047" xlink:href="#DejaVuSans-46"/>
       <use x="95.410156" xlink:href="#DejaVuSans-50"/>
       <use x="159.033203" xlink:href="#DejaVuSans-53"/>
      </g>
     </g>
    </g>
    <g id="xtick_25">
     <g id="line2d_59">
      <g>
       <use style="fill:#3f3d46;stroke:#3f3d46;" x="501.246875" xlink:href="#mbb89ecb095" y="795.08"/>
      </g>
     </g>
     <g id="text_17">
      <!-- 0.30 -->
      <defs>
       <path d="M 40.578125 39.3125 
Q 47.65625 37.796875 51.625 33 
Q 55.609375 28.21875 55.609375 21.1875 
Q 55.609375 10.40625 48.1875 4.484375 
Q 40.765625 -1.421875 27.09375 -1.421875 
Q 22.515625 -1.421875 17.65625 -0.515625 
Q 12.796875 0.390625 7.625 2.203125 
L 7.625 11.71875 
Q 11.71875 9.328125 16.59375 8.109375 
Q 21.484375 6.890625 26.8125 6.890625 
Q 36.078125 6.890625 40.9375 10.546875 
Q 45.796875 14.203125 45.796875 21.1875 
Q 45.796875 27.640625 41.28125 31.265625 
Q 36.765625 34.90625 28.71875 34.90625 
L 20.21875 34.90625 
L 20.21875 43.015625 
L 29.109375 43.015625 
Q 36.375 43.015625 40.234375 45.921875 
Q 44.09375 48.828125 44.09375 54.296875 
Q 44.09375 59.90625 40.109375 62.90625 
Q 36.140625 65.921875 28.71875 65.921875 
Q 24.65625 65.921875 20.015625 65.03125 
Q 15.375 64.15625 9.8125 62.3125 
L 9.8125 71.09375 
Q 15.4375 72.65625 20.34375 73.4375 
Q 25.25 74.21875 29.59375 74.21875 
Q 40.828125 74.21875 47.359375 69.109375 
Q 53.90625 64.015625 53.90625 55.328125 
Q 53.90625 49.265625 50.4375 45.09375 
Q 46.96875 40.921875 40.578125 39.3125 
z
" id="DejaVuSans-51"/>
      </defs>
      <g style="fill:#3f3d46;" transform="translate(477.867969 824.036719)scale(0.21 -0.21)">
       <use xlink:href="#DejaVuSans-48"/>
       <use x="63.623047" xlink:href="#DejaVuSans-46"/>
       <use x="95.410156" xlink:href="#DejaVuSans-51"/>
       <use x="159.033203" xlink:href="#DejaVuSans-48"/>
      </g>
     </g>
    </g>
    <g id="xtick_26">
     <g id="line2d_60">
      <g>
       <use style="fill:#3f3d46;stroke:#3f3d46;" x="568.681719" xlink:href="#mbb89ecb095" y="795.08"/>
      </g>
     </g>
     <g id="text_18">
      <!-- 0.35 -->
      <g style="fill:#3f3d46;" transform="translate(545.302813 824.036719)scale(0.21 -0.21)">
       <use xlink:href="#DejaVuSans-48"/>
       <use x="63.623047" xlink:href="#DejaVuSans-46"/>
       <use x="95.410156" xlink:href="#DejaVuSans-51"/>
       <use x="159.033203" xlink:href="#DejaVuSans-53"/>
      </g>
     </g>
    </g>
    <g id="xtick_27">
     <g id="line2d_61">
      <g>
       <use style="fill:#3f3d46;stroke:#3f3d46;" x="636.116563" xlink:href="#mbb89ecb095" y="795.08"/>
      </g>
     </g>
     <g id="text_19">
      <!-- 0.40 -->
      <defs>
       <path d="M 37.796875 64.3125 
L 12.890625 25.390625 
L 37.796875 25.390625 
z
M 35.203125 72.90625 
L 47.609375 72.90625 
L 47.609375 25.390625 
L 58.015625 25.390625 
L 58.015625 17.1875 
L 47.609375 17.1875 
L 47.609375 0 
L 37.796875 0 
L 37.796875 17.1875 
L 4.890625 17.1875 
L 4.890625 26.703125 
z
" id="DejaVuSans-52"/>
      </defs>
      <g style="fill:#3f3d46;" transform="translate(612.737656 824.036719)scale(0.21 -0.21)">
       <use xlink:href="#DejaVuSans-48"/>
       <use x="63.623047" xlink:href="#DejaVuSans-46"/>
       <use x="95.410156" xlink:href="#DejaVuSans-52"/>
       <use x="159.033203" xlink:href="#DejaVuSans-48"/>
      </g>
     </g>
    </g>
    <g id="text_20">
     <!-- Planetery Bulk Metallicity -->
     <defs>
      <path d="M 19.671875 64.796875 
L 19.671875 37.40625 
L 32.078125 37.40625 
Q 38.96875 37.40625 42.71875 40.96875 
Q 46.484375 44.53125 46.484375 51.125 
Q 46.484375 57.671875 42.71875 61.234375 
Q 38.96875 64.796875 32.078125 64.796875 
z
M 9.8125 72.90625 
L 32.078125 72.90625 
Q 44.34375 72.90625 50.609375 67.359375 
Q 56.890625 61.8125 56.890625 51.125 
Q 56.890625 40.328125 50.609375 34.8125 
Q 44.34375 29.296875 32.078125 29.296875 
L 19.671875 29.296875 
L 19.671875 0 
L 9.8125 0 
z
" id="DejaVuSans-80"/>
      <path d="M 9.421875 75.984375 
L 18.40625 75.984375 
L 18.40625 0 
L 9.421875 0 
z
" id="DejaVuSans-108"/>
      <path d="M 54.890625 33.015625 
L 54.890625 0 
L 45.90625 0 
L 45.90625 32.71875 
Q 45.90625 40.484375 42.875 44.328125 
Q 39.84375 48.1875 33.796875 48.1875 
Q 26.515625 48.1875 22.3125 43.546875 
Q 18.109375 38.921875 18.109375 30.90625 
L 18.109375 0 
L 9.078125 0 
L 9.078125 54.6875 
L 18.109375 54.6875 
L 18.109375 46.1875 
Q 21.34375 51.125 25.703125 53.5625 
Q 30.078125 56 35.796875 56 
Q 45.21875 56 50.046875 50.171875 
Q 54.890625 44.34375 54.890625 33.015625 
z
" id="DejaVuSans-110"/>
      <path d="M 56.203125 29.59375 
L 56.203125 25.203125 
L 14.890625 25.203125 
Q 15.484375 15.921875 20.484375 11.0625 
Q 25.484375 6.203125 34.421875 6.203125 
Q 39.59375 6.203125 44.453125 7.46875 
Q 49.3125 8.734375 54.109375 11.28125 
L 54.109375 2.78125 
Q 49.265625 0.734375 44.1875 -0.34375 
Q 39.109375 -1.421875 33.890625 -1.421875 
Q 20.796875 -1.421875 13.15625 6.1875 
Q 5.515625 13.8125 5.515625 26.8125 
Q 5.515625 40.234375 12.765625 48.109375 
Q 20.015625 56 32.328125 56 
Q 43.359375 56 49.78125 48.890625 
Q 56.203125 41.796875 56.203125 29.59375 
z
M 47.21875 32.234375 
Q 47.125 39.59375 43.09375 43.984375 
Q 39.0625 48.390625 32.421875 48.390625 
Q 24.90625 48.390625 20.390625 44.140625 
Q 15.875 39.890625 15.1875 32.171875 
z
" id="DejaVuSans-101"/>
      <path d="M 18.3125 70.21875 
L 18.3125 54.6875 
L 36.8125 54.6875 
L 36.8125 47.703125 
L 18.3125 47.703125 
L 18.3125 18.015625 
Q 18.3125 11.328125 20.140625 9.421875 
Q 21.96875 7.515625 27.59375 7.515625 
L 36.8125 7.515625 
L 36.8125 0 
L 27.59375 0 
Q 17.1875 0 13.234375 3.875 
Q 9.28125 7.765625 9.28125 18.015625 
L 9.28125 47.703125 
L 2.6875 47.703125 
L 2.6875 54.6875 
L 9.28125 54.6875 
L 9.28125 70.21875 
z
" id="DejaVuSans-116"/>
      <path d="M 19.671875 34.8125 
L 19.671875 8.109375 
L 35.5 8.109375 
Q 43.453125 8.109375 47.28125 11.40625 
Q 51.125 14.703125 51.125 21.484375 
Q 51.125 28.328125 47.28125 31.5625 
Q 43.453125 34.8125 35.5 34.8125 
z
M 19.671875 64.796875 
L 19.671875 42.828125 
L 34.28125 42.828125 
Q 41.5 42.828125 45.03125 45.53125 
Q 48.578125 48.25 48.578125 53.8125 
Q 48.578125 59.328125 45.03125 62.0625 
Q 41.5 64.796875 34.28125 64.796875 
z
M 9.8125 72.90625 
L 35.015625 72.90625 
Q 46.296875 72.90625 52.390625 68.21875 
Q 58.5 63.53125 58.5 54.890625 
Q 58.5 48.1875 55.375 44.234375 
Q 52.25 40.28125 46.1875 39.3125 
Q 53.46875 37.75 57.5 32.78125 
Q 61.53125 27.828125 61.53125 20.40625 
Q 61.53125 10.640625 54.890625 5.3125 
Q 48.25 0 35.984375 0 
L 9.8125 0 
z
" id="DejaVuSans-66"/>
      <path d="M 9.078125 75.984375 
L 18.109375 75.984375 
L 18.109375 31.109375 
L 44.921875 54.6875 
L 56.390625 54.6875 
L 27.390625 29.109375 
L 57.625 0 
L 45.90625 0 
L 18.109375 26.703125 
L 18.109375 0 
L 9.078125 0 
z
" id="DejaVuSans-107"/>
      <path d="M 9.8125 72.90625 
L 24.515625 72.90625 
L 43.109375 23.296875 
L 61.8125 72.90625 
L 76.515625 72.90625 
L 76.515625 0 
L 66.890625 0 
L 66.890625 64.015625 
L 48.09375 14.015625 
L 38.1875 14.015625 
L 19.390625 64.015625 
L 19.390625 0 
L 9.8125 0 
z
" id="DejaVuSans-77"/>
      <path d="M 48.78125 52.59375 
L 48.78125 44.1875 
Q 44.96875 46.296875 41.140625 47.34375 
Q 37.3125 48.390625 33.40625 48.390625 
Q 24.65625 48.390625 19.8125 42.84375 
Q 14.984375 37.3125 14.984375 27.296875 
Q 14.984375 17.28125 19.8125 11.734375 
Q 24.65625 6.203125 33.40625 6.203125 
Q 37.3125 6.203125 41.140625 7.25 
Q 44.96875 8.296875 48.78125 10.40625 
L 48.78125 2.09375 
Q 45.015625 0.34375 40.984375 -0.53125 
Q 36.96875 -1.421875 32.421875 -1.421875 
Q 20.0625 -1.421875 12.78125 6.34375 
Q 5.515625 14.109375 5.515625 27.296875 
Q 5.515625 40.671875 12.859375 48.328125 
Q 20.21875 56 33.015625 56 
Q 37.15625 56 41.109375 55.140625 
Q 45.0625 54.296875 48.78125 52.59375 
z
" id="DejaVuSans-99"/>
     </defs>
     <g style="fill:#3f3d46;" transform="translate(214.057812 850.640312)scale(0.24 -0.24)">
      <use xlink:href="#DejaVuSans-80"/>
      <use x="60.302734" xlink:href="#DejaVuSans-108"/>
      <use x="88.085938" xlink:href="#DejaVuSans-97"/>
      <use x="149.365234" xlink:href="#DejaVuSans-110"/>
      <use x="212.744141" xlink:href="#DejaVuSans-101"/>
      <use x="274.267578" xlink:href="#DejaVuSans-116"/>
      <use x="313.476562" xlink:href="#DejaVuSans-101"/>
      <use x="375" xlink:href="#DejaVuSans-114"/>
      <use x="416.113281" xlink:href="#DejaVuSans-121"/>
      <use x="475.292969" xlink:href="#DejaVuSans-32"/>
      <use x="507.080078" xlink:href="#DejaVuSans-66"/>
      <use x="575.683594" xlink:href="#DejaVuSans-117"/>
      <use x="639.0625" xlink:href="#DejaVuSans-108"/>
      <use x="666.845703" xlink:href="#DejaVuSans-107"/>
      <use x="724.755859" xlink:href="#DejaVuSans-32"/>
      <use x="756.542969" xlink:href="#DejaVuSans-77"/>
      <use x="842.822266" xlink:href="#DejaVuSans-101"/>
      <use x="904.345703" xlink:href="#DejaVuSans-116"/>
      <use x="943.554688" xlink:href="#DejaVuSans-97"/>
      <use x="1004.833984" xlink:href="#DejaVuSans-108"/>
      <use x="1032.617188" xlink:href="#DejaVuSans-108"/>
      <use x="1060.400391" xlink:href="#DejaVuSans-105"/>
      <use x="1088.183594" xlink:href="#DejaVuSans-99"/>
      <use x="1143.164062" xlink:href="#DejaVuSans-105"/>
      <use x="1170.947266" xlink:href="#DejaVuSans-116"/>
      <use x="1210.15625" xlink:href="#DejaVuSans-121"/>
     </g>
    </g>
   </g>
   <g id="matplotlib.axis_6">
    <g id="ytick_11">
     <g id="line2d_62">
      <g>
       <use style="fill:#3f3d46;stroke:#3f3d46;" x="96.637813" xlink:href="#m020c068989" y="795.08"/>
      </g>
     </g>
     <g id="text_21">
      <!-- 0.80 -->
      <g style="fill:#3f3d46;" transform="translate(36.88 803.058359)scale(0.21 -0.21)">
       <use xlink:href="#DejaVuSans-48"/>
       <use x="63.623047" xlink:href="#DejaVuSans-46"/>
       <use x="95.410156" xlink:href="#DejaVuSans-56"/>
       <use x="159.033203" xlink:href="#DejaVuSans-48"/>
      </g>
     </g>
    </g>
    <g id="ytick_12">
     <g id="line2d_63">
      <g>
       <use style="fill:#3f3d46;stroke:#3f3d46;" x="96.637813" xlink:href="#m020c068989" y="744.242857"/>
      </g>
     </g>
     <g id="text_22">
      <!-- 0.85 -->
      <g style="fill:#3f3d46;" transform="translate(36.88 752.221217)scale(0.21 -0.21)">
       <use xlink:href="#DejaVuSans-48"/>
       <use x="63.623047" xlink:href="#DejaVuSans-46"/>
       <use x="95.410156" xlink:href="#DejaVuSans-56"/>
       <use x="159.033203" xlink:href="#DejaVuSans-53"/>
      </g>
     </g>
    </g>
    <g id="ytick_13">
     <g id="line2d_64">
      <g>
       <use style="fill:#3f3d46;stroke:#3f3d46;" x="96.637813" xlink:href="#m020c068989" y="693.405714"/>
      </g>
     </g>
     <g id="text_23">
      <!-- 0.90 -->
      <g style="fill:#3f3d46;" transform="translate(36.88 701.384074)scale(0.21 -0.21)">
       <use xlink:href="#DejaVuSans-48"/>
       <use x="63.623047" xlink:href="#DejaVuSans-46"/>
       <use x="95.410156" xlink:href="#DejaVuSans-57"/>
       <use x="159.033203" xlink:href="#DejaVuSans-48"/>
      </g>
     </g>
    </g>
    <g id="ytick_14">
     <g id="line2d_65">
      <g>
       <use style="fill:#3f3d46;stroke:#3f3d46;" x="96.637813" xlink:href="#m020c068989" y="642.568571"/>
      </g>
     </g>
     <g id="text_24">
      <!-- 0.95 -->
      <g style="fill:#3f3d46;" transform="translate(36.88 650.546931)scale(0.21 -0.21)">
       <use xlink:href="#DejaVuSans-48"/>
       <use x="63.623047" xlink:href="#DejaVuSans-46"/>
       <use x="95.410156" xlink:href="#DejaVuSans-57"/>
       <use x="159.033203" xlink:href="#DejaVuSans-53"/>
      </g>
     </g>
    </g>
    <g id="ytick_15">
     <g id="line2d_66">
      <g>
       <use style="fill:#3f3d46;stroke:#3f3d46;" x="96.637813" xlink:href="#m020c068989" y="591.731429"/>
      </g>
     </g>
     <g id="text_25">
      <!-- 1.00 -->
      <g style="fill:#3f3d46;" transform="translate(36.88 599.709788)scale(0.21 -0.21)">
       <use xlink:href="#DejaVuSans-49"/>
       <use x="63.623047" xlink:href="#DejaVuSans-46"/>
       <use x="95.410156" xlink:href="#DejaVuSans-48"/>
       <use x="159.033203" xlink:href="#DejaVuSans-48"/>
      </g>
     </g>
    </g>
    <g id="ytick_16">
     <g id="line2d_67">
      <g>
       <use style="fill:#3f3d46;stroke:#3f3d46;" x="96.637813" xlink:href="#m020c068989" y="540.894286"/>
      </g>
     </g>
     <g id="text_26">
      <!-- 1.05 -->
      <g style="fill:#3f3d46;" transform="translate(36.88 548.872645)scale(0.21 -0.21)">
       <use xlink:href="#DejaVuSans-49"/>
       <use x="63.623047" xlink:href="#DejaVuSans-46"/>
       <use x="95.410156" xlink:href="#DejaVuSans-48"/>
       <use x="159.033203" xlink:href="#DejaVuSans-53"/>
      </g>
     </g>
    </g>
    <g id="ytick_17">
     <g id="line2d_68">
      <g>
       <use style="fill:#3f3d46;stroke:#3f3d46;" x="96.637813" xlink:href="#m020c068989" y="490.057143"/>
      </g>
     </g>
     <g id="text_27">
      <!-- 1.10 -->
      <g style="fill:#3f3d46;" transform="translate(36.88 498.035502)scale(0.21 -0.21)">
       <use xlink:href="#DejaVuSans-49"/>
       <use x="63.623047" xlink:href="#DejaVuSans-46"/>
       <use x="95.410156" xlink:href="#DejaVuSans-49"/>
       <use x="159.033203" xlink:href="#DejaVuSans-48"/>
      </g>
     </g>
    </g>
    <g id="ytick_18">
     <g id="line2d_69">
      <g>
       <use style="fill:#3f3d46;stroke:#3f3d46;" x="96.637813" xlink:href="#m020c068989" y="439.22"/>
      </g>
     </g>
     <g id="text_28">
      <!-- 1.15 -->
      <g style="fill:#3f3d46;" transform="translate(36.88 447.198359)scale(0.21 -0.21)">
       <use xlink:href="#DejaVuSans-49"/>
       <use x="63.623047" xlink:href="#DejaVuSans-46"/>
       <use x="95.410156" xlink:href="#DejaVuSans-49"/>
       <use x="159.033203" xlink:href="#DejaVuSans-53"/>
      </g>
     </g>
    </g>
    <g id="text_29">
     <!-- Radius [$R_J$] -->
     <g style="fill:#3f3d46;" transform="translate(25.44 682.07)rotate(-90)scale(0.24 -0.24)">
      <use transform="translate(0 0.015625)" xlink:href="#DejaVuSans-82"/>
      <use transform="translate(69.482422 0.015625)" xlink:href="#DejaVuSans-97"/>
      <use transform="translate(130.761719 0.015625)" xlink:href="#DejaVuSans-100"/>
      <use transform="translate(194.238281 0.015625)" xlink:href="#DejaVuSans-105"/>
      <use transform="translate(222.021484 0.015625)" xlink:href="#DejaVuSans-117"/>
      <use transform="translate(285.400391 0.015625)" xlink:href="#DejaVuSans-115"/>
      <use transform="translate(337.5 0.015625)" xlink:href="#DejaVuSans-32"/>
      <use transform="translate(369.287109 0.015625)" xlink:href="#DejaVuSans-91"/>
      <use transform="translate(408.300781 0.015625)" xlink:href="#DejaVuSans-Oblique-82"/>
      <use transform="translate(477.783203 -16.390625)scale(0.7)" xlink:href="#DejaVuSans-Oblique-74"/>
      <use transform="translate(501.162109 0.015625)" xlink:href="#DejaVuSans-93"/>
     </g>
    </g>
   </g>
   <g id="line2d_70">
    <path clip-path="url(#p6338e28e75)" d="M 96.637813 540.767115 
L 164.072656 567.747582 
L 231.5075 595.156896 
L 298.942344 621.010932 
L 366.377188 647.42756 
L 433.812031 672.654429 
L 501.246875 698.224665 
L 568.681719 723.951915 
L 636.116563 748.336405 
" style="fill:none;stroke:#00224e;stroke-dasharray:11.1,4.8;stroke-dashoffset:0;stroke-width:3;"/>
   </g>
   <g id="line2d_71">
    <path clip-path="url(#p6338e28e75)" d="M 96.637813 537.584696 
L 164.072656 565.246285 
L 231.5075 592.297392 
L 298.942344 618.635615 
L 366.377188 645.254452 
L 433.812031 670.639044 
L 501.246875 696.342533 
L 568.681719 722.201168 
L 636.116563 746.706033 
" style="fill:none;stroke:#434e6c;stroke-dasharray:11.1,4.8;stroke-dashoffset:0;stroke-width:3;"/>
   </g>
   <g id="line2d_72">
    <path clip-path="url(#p6338e28e75)" d="M 96.637813 486.811674 
L 164.072656 517.50636 
L 231.5075 547.408526 
L 298.942344 576.397193 
L 366.377188 605.596198 
L 433.812031 633.34421 
L 501.246875 661.362447 
L 568.681719 689.47601 
L 636.116563 716.064529 
" style="fill:none;stroke:#7c7b78;stroke-dasharray:11.1,4.8;stroke-dashoffset:0;stroke-width:3;"/>
   </g>
   <g id="line2d_73">
    <path clip-path="url(#p6338e28e75)" d="M 96.637813 479.862759 
L 164.072656 510.950428 
L 231.5075 541.210823 
L 298.942344 570.531776 
L 366.377188 600.062126 
L 433.812031 628.100249 
L 501.246875 656.401204 
L 568.681719 684.770512 
L 636.116563 711.59405 
" style="fill:none;stroke:#bbad6c;stroke-dasharray:11.1,4.8;stroke-dashoffset:0;stroke-width:3;"/>
   </g>
   <g id="line2d_74">
    <path clip-path="url(#p6338e28e75)" d="M 96.637813 540.767115 
L 150.585688 529.624695 
L 204.533563 538.552641 
L 258.481438 557.851784 
L 312.429313 584.043198 
L 366.377188 610.746814 
L 420.325063 637.512213 
L 474.272938 663.337225 
L 528.220813 688.963724 
L 582.168688 715.956702 
" style="fill:none;stroke:#00224e;stroke-linecap:square;stroke-width:3;"/>
   </g>
   <g id="line2d_75">
    <path clip-path="url(#p6338e28e75)" d="M 298.942344 577.495344 
L 366.377188 610.746814 
L 433.812031 643.968466 
L 501.246875 676.150475 
L 568.681719 709.208458 
L 636.116563 742.94968 
" style="fill:none;stroke:#00224e;stroke-linecap:square;stroke-width:3;"/>
   </g>
   <g id="line2d_76">
    <path clip-path="url(#p6338e28e75)" d="M 96.637813 537.584696 
L 150.585688 522.674196 
L 204.533563 532.491652 
L 258.481438 551.009099 
L 312.429313 577.672522 
L 366.377188 604.500625 
L 420.325063 632.985478 
L 474.272938 659.162793 
L 528.220813 685.200885 
L 582.168688 713.05895 
" style="fill:none;stroke:#434e6c;stroke-linecap:square;stroke-width:3;"/>
   </g>
   <g id="line2d_77">
    <path clip-path="url(#p6338e28e75)" d="M 298.942344 571.006666 
L 366.377188 604.500625 
L 433.812031 639.529807 
L 501.246875 672.181839 
L 568.681719 706.094434 
L 636.116563 740.917016 
" style="fill:none;stroke:#434e6c;stroke-linecap:square;stroke-width:3;"/>
   </g>
   <g id="line2d_78">
    <path clip-path="url(#p6338e28e75)" d="M 96.637813 486.811674 
L 150.585688 470.280621 
L 204.533563 474.91556 
L 258.481438 493.634679 
L 312.429313 522.602417 
L 366.377188 550.533618 
L 420.325063 577.759314 
L 474.272938 604.584612 
L 528.220813 632.193621 
L 582.168688 660.548858 
L 636.116563 688.122049 
" style="fill:none;stroke:#7c7b78;stroke-linecap:square;stroke-width:3;"/>
   </g>
   <g id="line2d_79">
    <path clip-path="url(#p6338e28e75)" d="M 298.942344 515.360482 
L 366.377188 550.533618 
L 433.812031 584.465639 
L 501.246875 618.389116 
L 568.681719 653.460048 
L 636.116563 688.122049 
" style="fill:none;stroke:#7c7b78;stroke-linecap:square;stroke-width:3;"/>
   </g>
   <g id="line2d_80">
    <path clip-path="url(#p6338e28e75)" d="M 96.637813 479.862759 
L 150.585688 461.661469 
L 204.533563 466.348282 
L 258.481438 485.385513 
L 312.429313 514.493959 
L 366.377188 542.570223 
L 420.325063 570.213874 
L 474.272938 597.3157 
L 528.220813 625.156546 
L 582.168688 653.905436 
L 636.116563 681.794956 
" style="fill:none;stroke:#bbad6c;stroke-linecap:square;stroke-width:3;"/>
   </g>
   <g id="line2d_81">
    <path clip-path="url(#p6338e28e75)" d="M 298.942344 507.216848 
L 366.377188 542.570223 
L 433.812031 576.989331 
L 501.246875 611.236123 
L 568.681719 646.718213 
L 636.116563 681.794956 
" style="fill:none;stroke:#bbad6c;stroke-linecap:square;stroke-width:3;"/>
   </g>
   <g id="patch_13">
    <path d="M 96.637813 795.08 
L 96.637813 439.22 
" style="fill:none;stroke:#6a737d;stroke-linecap:square;stroke-linejoin:miter;stroke-width:1.4;"/>
   </g>
   <g id="patch_14">
    <path d="M 636.116562 795.08 
L 636.116562 439.22 
" style="fill:none;stroke:#6a737d;stroke-linecap:square;stroke-linejoin:miter;stroke-width:1.4;"/>
   </g>
   <g id="patch_15">
    <path d="M 96.637813 795.08 
L 636.116563 795.08 
" style="fill:none;stroke:#6a737d;stroke-linecap:square;stroke-linejoin:miter;stroke-width:1.4;"/>
   </g>
   <g id="patch_16">
    <path d="M 96.637813 439.22 
L 636.116563 439.22 
" style="fill:none;stroke:#6a737d;stroke-linecap:square;stroke-linejoin:miter;stroke-width:1.4;"/>
   </g>
   <g id="text_30">
    <!-- (c) -->
    <defs>
     <path d="M 52.59375 52.984375 
L 52.59375 38.71875 
Q 49.03125 41.15625 45.4375 42.328125 
Q 41.84375 43.5 37.984375 43.5 
Q 30.671875 43.5 26.59375 39.234375 
Q 22.515625 34.96875 22.515625 27.296875 
Q 22.515625 19.625 26.59375 15.34375 
Q 30.671875 11.078125 37.984375 11.078125 
Q 42.09375 11.078125 45.78125 12.296875 
Q 49.46875 13.53125 52.59375 15.921875 
L 52.59375 1.609375 
Q 48.484375 0.09375 44.265625 -0.65625 
Q 40.046875 -1.421875 35.796875 -1.421875 
Q 21 -1.421875 12.640625 6.171875 
Q 4.296875 13.765625 4.296875 27.296875 
Q 4.296875 40.828125 12.640625 48.40625 
Q 21 56 35.796875 56 
Q 40.09375 56 44.265625 55.25 
Q 48.4375 54.5 52.59375 52.984375 
z
" id="DejaVuSans-Bold-99"/>
    </defs>
    <g transform="translate(150.585688 759.494)scale(0.22 -0.22)">
     <use xlink:href="#DejaVuSans-Bold-40"/>
     <use x="45.703125" xlink:href="#DejaVuSans-Bold-99"/>
     <use x="104.980469" xlink:href="#DejaVuSans-Bold-41"/>
    </g>
   </g>
   <g id="text_31">
    <!-- 1 $M_J$ | 0.5 Gyrs -->
    <g style="fill:#3f3d46;" transform="translate(465.687781 482.013)scale(0.21 -0.21)">
     <use transform="translate(0 0.578125)" xlink:href="#DejaVuSans-49"/>
     <use transform="translate(63.623047 0.578125)" xlink:href="#DejaVuSans-32"/>
     <use transform="translate(95.410156 0.578125)" xlink:href="#DejaVuSans-Oblique-77"/>
     <use transform="translate(181.689453 -15.828125)scale(0.7)" xlink:href="#DejaVuSans-Oblique-74"/>
     <use transform="translate(205.068359 0.578125)" xlink:href="#DejaVuSans-32"/>
     <use transform="translate(236.855469 0.578125)" xlink:href="#DejaVuSans-124"/>
     <use transform="translate(270.546875 0.578125)" xlink:href="#DejaVuSans-32"/>
     <use transform="translate(302.333984 0.578125)" xlink:href="#DejaVuSans-48"/>
     <use transform="translate(365.957031 0.578125)" xlink:href="#DejaVuSans-46"/>
     <use transform="translate(397.744141 0.578125)" xlink:href="#DejaVuSans-53"/>
     <use transform="translate(461.367188 0.578125)" xlink:href="#DejaVuSans-32"/>
     <use transform="translate(493.154297 0.578125)" xlink:href="#DejaVuSans-71"/>
     <use transform="translate(570.644531 0.578125)" xlink:href="#DejaVuSans-121"/>
     <use transform="translate(629.824219 0.578125)" xlink:href="#DejaVuSans-114"/>
     <use transform="translate(670.9375 0.578125)" xlink:href="#DejaVuSans-115"/>
    </g>
   </g>
  </g>
  <g id="axes_4">
   <g id="patch_17">
    <path d="M 693.251563 795.08 
L 1232.730313 795.08 
L 1232.730313 439.22 
L 693.251563 439.22 
z
" style="fill:none;"/>
   </g>
   <g id="matplotlib.axis_7">
    <g id="xtick_28">
     <g id="line2d_82">
      <g>
       <use style="fill:#3f3d46;stroke:#3f3d46;" x="693.251563" xlink:href="#mbb89ecb095" y="795.08"/>
      </g>
     </g>
     <g id="text_32">
      <!-- 0.00 -->
      <g style="fill:#3f3d46;" transform="translate(669.872656 824.036719)scale(0.21 -0.21)">
       <use xlink:href="#DejaVuSans-48"/>
       <use x="63.623047" xlink:href="#DejaVuSans-46"/>
       <use x="95.410156" xlink:href="#DejaVuSans-48"/>
       <use x="159.033203" xlink:href="#DejaVuSans-48"/>
      </g>
     </g>
    </g>
    <g id="xtick_29">
     <g id="line2d_83">
      <g>
       <use style="fill:#3f3d46;stroke:#3f3d46;" x="760.686406" xlink:href="#mbb89ecb095" y="795.08"/>
      </g>
     </g>
     <g id="text_33">
      <!-- 0.05 -->
      <g style="fill:#3f3d46;" transform="translate(737.3075 824.036719)scale(0.21 -0.21)">
       <use xlink:href="#DejaVuSans-48"/>
       <use x="63.623047" xlink:href="#DejaVuSans-46"/>
       <use x="95.410156" xlink:href="#DejaVuSans-48"/>
       <use x="159.033203" xlink:href="#DejaVuSans-53"/>
      </g>
     </g>
    </g>
    <g id="xtick_30">
     <g id="line2d_84">
      <g>
       <use style="fill:#3f3d46;stroke:#3f3d46;" x="828.12125" xlink:href="#mbb89ecb095" y="795.08"/>
      </g>
     </g>
     <g id="text_34">
      <!-- 0.10 -->
      <g style="fill:#3f3d46;" transform="translate(804.742344 824.036719)scale(0.21 -0.21)">
       <use xlink:href="#DejaVuSans-48"/>
       <use x="63.623047" xlink:href="#DejaVuSans-46"/>
       <use x="95.410156" xlink:href="#DejaVuSans-49"/>
       <use x="159.033203" xlink:href="#DejaVuSans-48"/>
      </g>
     </g>
    </g>
    <g id="xtick_31">
     <g id="line2d_85">
      <g>
       <use style="fill:#3f3d46;stroke:#3f3d46;" x="895.556094" xlink:href="#mbb89ecb095" y="795.08"/>
      </g>
     </g>
     <g id="text_35">
      <!-- 0.15 -->
      <g style="fill:#3f3d46;" transform="translate(872.177188 824.036719)scale(0.21 -0.21)">
       <use xlink:href="#DejaVuSans-48"/>
       <use x="63.623047" xlink:href="#DejaVuSans-46"/>
       <use x="95.410156" xlink:href="#DejaVuSans-49"/>
       <use x="159.033203" xlink:href="#DejaVuSans-53"/>
      </g>
     </g>
    </g>
    <g id="xtick_32">
     <g id="line2d_86">
      <g>
       <use style="fill:#3f3d46;stroke:#3f3d46;" x="962.990938" xlink:href="#mbb89ecb095" y="795.08"/>
      </g>
     </g>
     <g id="text_36">
      <!-- 0.20 -->
      <g style="fill:#3f3d46;" transform="translate(939.612031 824.036719)scale(0.21 -0.21)">
       <use xlink:href="#DejaVuSans-48"/>
       <use x="63.623047" xlink:href="#DejaVuSans-46"/>
       <use x="95.410156" xlink:href="#DejaVuSans-50"/>
       <use x="159.033203" xlink:href="#DejaVuSans-48"/>
      </g>
     </g>
    </g>
    <g id="xtick_33">
     <g id="line2d_87">
      <g>
       <use style="fill:#3f3d46;stroke:#3f3d46;" x="1030.425781" xlink:href="#mbb89ecb095" y="795.08"/>
      </g>
     </g>
     <g id="text_37">
      <!-- 0.25 -->
      <g style="fill:#3f3d46;" transform="translate(1007.046875 824.036719)scale(0.21 -0.21)">
       <use xlink:href="#DejaVuSans-48"/>
       <use x="63.623047" xlink:href="#DejaVuSans-46"/>
       <use x="95.410156" xlink:href="#DejaVuSans-50"/>
       <use x="159.033203" xlink:href="#DejaVuSans-53"/>
      </g>
     </g>
    </g>
    <g id="xtick_34">
     <g id="line2d_88">
      <g>
       <use style="fill:#3f3d46;stroke:#3f3d46;" x="1097.860625" xlink:href="#mbb89ecb095" y="795.08"/>
      </g>
     </g>
     <g id="text_38">
      <!-- 0.30 -->
      <g style="fill:#3f3d46;" transform="translate(1074.481719 824.036719)scale(0.21 -0.21)">
       <use xlink:href="#DejaVuSans-48"/>
       <use x="63.623047" xlink:href="#DejaVuSans-46"/>
       <use x="95.410156" xlink:href="#DejaVuSans-51"/>
       <use x="159.033203" xlink:href="#DejaVuSans-48"/>
      </g>
     </g>
    </g>
    <g id="xtick_35">
     <g id="line2d_89">
      <g>
       <use style="fill:#3f3d46;stroke:#3f3d46;" x="1165.295469" xlink:href="#mbb89ecb095" y="795.08"/>
      </g>
     </g>
     <g id="text_39">
      <!-- 0.35 -->
      <g style="fill:#3f3d46;" transform="translate(1141.916563 824.036719)scale(0.21 -0.21)">
       <use xlink:href="#DejaVuSans-48"/>
       <use x="63.623047" xlink:href="#DejaVuSans-46"/>
       <use x="95.410156" xlink:href="#DejaVuSans-51"/>
       <use x="159.033203" xlink:href="#DejaVuSans-53"/>
      </g>
     </g>
    </g>
    <g id="xtick_36">
     <g id="line2d_90">
      <g>
       <use style="fill:#3f3d46;stroke:#3f3d46;" x="1232.730313" xlink:href="#mbb89ecb095" y="795.08"/>
      </g>
     </g>
     <g id="text_40">
      <!-- 0.40 -->
      <g style="fill:#3f3d46;" transform="translate(1209.351406 824.036719)scale(0.21 -0.21)">
       <use xlink:href="#DejaVuSans-48"/>
       <use x="63.623047" xlink:href="#DejaVuSans-46"/>
       <use x="95.410156" xlink:href="#DejaVuSans-52"/>
       <use x="159.033203" xlink:href="#DejaVuSans-48"/>
      </g>
     </g>
    </g>
    <g id="text_41">
     <!-- Planetary Bulk Metallicity -->
     <g style="fill:#3f3d46;" transform="translate(810.701563 850.640312)scale(0.24 -0.24)">
      <use xlink:href="#DejaVuSans-80"/>
      <use x="60.302734" xlink:href="#DejaVuSans-108"/>
      <use x="88.085938" xlink:href="#DejaVuSans-97"/>
      <use x="149.365234" xlink:href="#DejaVuSans-110"/>
      <use x="212.744141" xlink:href="#DejaVuSans-101"/>
      <use x="274.267578" xlink:href="#DejaVuSans-116"/>
      <use x="313.476562" xlink:href="#DejaVuSans-97"/>
      <use x="374.755859" xlink:href="#DejaVuSans-114"/>
      <use x="415.869141" xlink:href="#DejaVuSans-121"/>
      <use x="475.048828" xlink:href="#DejaVuSans-32"/>
      <use x="506.835938" xlink:href="#DejaVuSans-66"/>
      <use x="575.439453" xlink:href="#DejaVuSans-117"/>
      <use x="638.818359" xlink:href="#DejaVuSans-108"/>
      <use x="666.601562" xlink:href="#DejaVuSans-107"/>
      <use x="724.511719" xlink:href="#DejaVuSans-32"/>
      <use x="756.298828" xlink:href="#DejaVuSans-77"/>
      <use x="842.578125" xlink:href="#DejaVuSans-101"/>
      <use x="904.101562" xlink:href="#DejaVuSans-116"/>
      <use x="943.310547" xlink:href="#DejaVuSans-97"/>
      <use x="1004.589844" xlink:href="#DejaVuSans-108"/>
      <use x="1032.373047" xlink:href="#DejaVuSans-108"/>
      <use x="1060.15625" xlink:href="#DejaVuSans-105"/>
      <use x="1087.939453" xlink:href="#DejaVuSans-99"/>
      <use x="1142.919922" xlink:href="#DejaVuSans-105"/>
      <use x="1170.703125" xlink:href="#DejaVuSans-116"/>
      <use x="1209.912109" xlink:href="#DejaVuSans-121"/>
     </g>
    </g>
   </g>
   <g id="matplotlib.axis_8">
    <g id="ytick_19">
     <g id="line2d_91">
      <g>
       <use style="fill:#3f3d46;stroke:#3f3d46;" x="693.251563" xlink:href="#m020c068989" y="795.08"/>
      </g>
     </g>
    </g>
    <g id="ytick_20">
     <g id="line2d_92">
      <g>
       <use style="fill:#3f3d46;stroke:#3f3d46;" x="693.251563" xlink:href="#m020c068989" y="744.242857"/>
      </g>
     </g>
    </g>
    <g id="ytick_21">
     <g id="line2d_93">
      <g>
       <use style="fill:#3f3d46;stroke:#3f3d46;" x="693.251563" xlink:href="#m020c068989" y="693.405714"/>
      </g>
     </g>
    </g>
    <g id="ytick_22">
     <g id="line2d_94">
      <g>
       <use style="fill:#3f3d46;stroke:#3f3d46;" x="693.251563" xlink:href="#m020c068989" y="642.568571"/>
      </g>
     </g>
    </g>
    <g id="ytick_23">
     <g id="line2d_95">
      <g>
       <use style="fill:#3f3d46;stroke:#3f3d46;" x="693.251563" xlink:href="#m020c068989" y="591.731429"/>
      </g>
     </g>
    </g>
    <g id="ytick_24">
     <g id="line2d_96">
      <g>
       <use style="fill:#3f3d46;stroke:#3f3d46;" x="693.251563" xlink:href="#m020c068989" y="540.894286"/>
      </g>
     </g>
    </g>
    <g id="ytick_25">
     <g id="line2d_97">
      <g>
       <use style="fill:#3f3d46;stroke:#3f3d46;" x="693.251563" xlink:href="#m020c068989" y="490.057143"/>
      </g>
     </g>
    </g>
    <g id="ytick_26">
     <g id="line2d_98">
      <g>
       <use style="fill:#3f3d46;stroke:#3f3d46;" x="693.251563" xlink:href="#m020c068989" y="439.22"/>
      </g>
     </g>
    </g>
   </g>
   <g id="line2d_99">
    <path clip-path="url(#p52a3e95f7c)" d="M 693.251563 608.638623 
L 760.686406 632.496852 
L 828.12125 656.746515 
L 895.556094 679.620526 
L 962.990938 703.007314 
L 1030.425781 725.344235 
L 1097.860625 747.990031 
L 1165.295469 770.802478 
L 1232.730313 792.458583 
" style="fill:none;stroke:#00224e;stroke-dasharray:11.1,4.8;stroke-dashoffset:0;stroke-width:3;"/>
   </g>
   <g id="line2d_100">
    <path clip-path="url(#p52a3e95f7c)" d="M 693.251563 597.322036 
L 760.686406 622.242877 
L 828.12125 646.595368 
L 895.556094 670.274722 
L 962.990938 694.195101 
L 1030.425781 717.006028 
L 1097.860625 740.104922 
L 1165.295469 763.355592 
L 1232.730313 785.396876 
" style="fill:none;stroke:#434e6c;stroke-dasharray:11.1,4.8;stroke-dashoffset:0;stroke-width:3;"/>
   </g>
   <g id="line2d_101">
    <path clip-path="url(#p52a3e95f7c)" d="M 693.251563 569.927206 
L 760.686406 596.476476 
L 828.12125 622.404536 
L 895.556094 647.647517 
L 962.990938 673.201476 
L 1030.425781 697.575668 
L 1097.860625 722.213162 
L 1165.295469 746.981141 
L 1232.730313 770.409691 
" style="fill:none;stroke:#7c7b78;stroke-dasharray:11.1,4.8;stroke-dashoffset:0;stroke-width:3;"/>
   </g>
   <g id="line2d_102">
    <path clip-path="url(#p52a3e95f7c)" d="M 693.251563 562.913791 
L 760.686406 589.819403 
L 828.12125 616.102926 
L 895.556094 641.660712 
L 962.990938 667.483488 
L 1030.425781 692.147592 
L 1097.860625 717.079304 
L 1165.295469 742.156159 
L 1232.730313 765.86946 
" style="fill:none;stroke:#bbad6c;stroke-dasharray:11.1,4.8;stroke-dashoffset:0;stroke-width:3;"/>
   </g>
   <g id="line2d_103">
    <path clip-path="url(#p52a3e95f7c)" d="M 693.251563 608.638623 
L 747.199438 625.907724 
L 801.147313 646.950818 
L 855.095188 668.511953 
L 909.043063 690.289192 
L 962.990938 712.342314 
L 1016.938813 735.341871 
L 1070.886688 757.318607 
L 1124.834563 779.0208 
" style="fill:none;stroke:#00224e;stroke-linecap:square;stroke-width:3;"/>
   </g>
   <g id="line2d_104">
    <path clip-path="url(#p52a3e95f7c)" d="M 895.556094 684.844882 
L 962.990938 712.342314 
L 1030.425781 740.836055 
L 1097.860625 768.169704 
L 1165.295469 795.297445 
L 1232.730313 822.425186 
" style="fill:none;stroke:#00224e;stroke-linecap:square;stroke-width:3;"/>
   </g>
   <g id="line2d_105">
    <path clip-path="url(#p52a3e95f7c)" d="M 693.251563 597.322036 
L 747.199438 615.098282 
L 801.147313 636.773358 
L 855.095188 658.907046 
L 909.043063 680.61829 
L 962.990938 702.340727 
L 1016.938813 726.396865 
L 1070.886688 750.235052 
L 1124.834563 771.93298 
" style="fill:none;stroke:#434e6c;stroke-linecap:square;stroke-width:3;"/>
   </g>
   <g id="line2d_106">
    <path clip-path="url(#p52a3e95f7c)" d="M 895.556094 675.190479 
L 962.990938 702.340727 
L 1030.425781 732.356412 
L 1097.860625 761.084016 
L 1165.295469 788.206427 
L 1232.730313 815.328837 
" style="fill:none;stroke:#434e6c;stroke-linecap:square;stroke-width:3;"/>
   </g>
   <g id="line2d_107">
    <path clip-path="url(#p52a3e95f7c)" d="M 693.251563 569.927206 
L 747.199438 561.451937 
L 801.147313 564.073872 
L 855.095188 579.353472 
L 909.043063 606.016988 
L 962.990938 631.453228 
L 1016.938813 656.796831 
L 1070.886688 681.71474 
L 1124.834563 706.497507 
L 1178.782438 732.03899 
" style="fill:none;stroke:#7c7b78;stroke-linecap:square;stroke-width:3;"/>
   </g>
   <g id="line2d_108">
    <path clip-path="url(#p52a3e95f7c)" d="M 895.556094 599.351109 
L 962.990938 631.453228 
L 1030.425781 663.026308 
L 1097.860625 694.106123 
L 1165.295469 725.653619 
L 1232.730313 757.580473 
" style="fill:none;stroke:#7c7b78;stroke-linecap:square;stroke-width:3;"/>
   </g>
   <g id="line2d_109">
    <path clip-path="url(#p52a3e95f7c)" d="M 693.251563 562.913791 
L 747.199438 552.904993 
L 801.147313 553.942432 
L 855.095188 568.89873 
L 909.043063 596.049559 
L 962.990938 622.253123 
L 1016.938813 648.19703 
L 1070.886688 673.743337 
L 1124.834563 699.246351 
L 1178.782438 725.21098 
L 1232.730313 750.775552 
" style="fill:none;stroke:#bbad6c;stroke-linecap:square;stroke-width:3;"/>
   </g>
   <g id="line2d_110">
    <path clip-path="url(#p52a3e95f7c)" d="M 895.556094 589.261852 
L 962.990938 622.253123 
L 1030.425781 654.583607 
L 1097.860625 686.494844 
L 1165.295469 718.719823 
L 1232.730313 750.775552 
" style="fill:none;stroke:#bbad6c;stroke-linecap:square;stroke-width:3;"/>
   </g>
   <g id="patch_18">
    <path d="M 693.251563 795.08 
L 693.251563 439.22 
" style="fill:none;stroke:#6a737d;stroke-linecap:square;stroke-linejoin:miter;stroke-width:1.4;"/>
   </g>
   <g id="patch_19">
    <path d="M 1232.730313 795.08 
L 1232.730313 439.22 
" style="fill:none;stroke:#6a737d;stroke-linecap:square;stroke-linejoin:miter;stroke-width:1.4;"/>
   </g>
   <g id="patch_20">
    <path d="M 693.251563 795.08 
L 1232.730313 795.08 
" style="fill:none;stroke:#6a737d;stroke-linecap:square;stroke-linejoin:miter;stroke-width:1.4;"/>
   </g>
   <g id="patch_21">
    <path d="M 693.251563 439.22 
L 1232.730313 439.22 
" style="fill:none;stroke:#6a737d;stroke-linecap:square;stroke-linejoin:miter;stroke-width:1.4;"/>
   </g>
   <g id="text_42">
    <!-- (d) -->
    <defs>
     <path d="M 45.609375 46.6875 
L 45.609375 75.984375 
L 63.1875 75.984375 
L 63.1875 0 
L 45.609375 0 
L 45.609375 7.90625 
Q 42 3.078125 37.640625 0.828125 
Q 33.296875 -1.421875 27.59375 -1.421875 
Q 17.484375 -1.421875 10.984375 6.609375 
Q 4.5 14.65625 4.5 27.296875 
Q 4.5 39.9375 10.984375 47.96875 
Q 17.484375 56 27.59375 56 
Q 33.25 56 37.625 53.734375 
Q 42 51.46875 45.609375 46.6875 
z
M 34.078125 11.28125 
Q 39.703125 11.28125 42.65625 15.375 
Q 45.609375 19.484375 45.609375 27.296875 
Q 45.609375 35.109375 42.65625 39.203125 
Q 39.703125 43.3125 34.078125 43.3125 
Q 28.515625 43.3125 25.5625 39.203125 
Q 22.609375 35.109375 22.609375 27.296875 
Q 22.609375 19.484375 25.5625 15.375 
Q 28.515625 11.28125 34.078125 11.28125 
z
" id="DejaVuSans-Bold-100"/>
    </defs>
    <g transform="translate(747.199438 759.494)scale(0.22 -0.22)">
     <use xlink:href="#DejaVuSans-Bold-40"/>
     <use x="45.703125" xlink:href="#DejaVuSans-Bold-100"/>
     <use x="117.285156" xlink:href="#DejaVuSans-Bold-41"/>
    </g>
   </g>
   <g id="text_43">
    <!-- 1 $M_J$ | 5 Gyrs -->
    <g style="fill:#3f3d46;" transform="translate(721.720344 482.013)scale(0.21 -0.21)">
     <use transform="translate(0 0.578125)" xlink:href="#DejaVuSans-49"/>
     <use transform="translate(63.623047 0.578125)" xlink:href="#DejaVuSans-32"/>
     <use transform="translate(95.410156 0.578125)" xlink:href="#DejaVuSans-Oblique-77"/>
     <use transform="translate(181.689453 -15.828125)scale(0.7)" xlink:href="#DejaVuSans-Oblique-74"/>
     <use transform="translate(205.068359 0.578125)" xlink:href="#DejaVuSans-32"/>
     <use transform="translate(236.855469 0.578125)" xlink:href="#DejaVuSans-124"/>
     <use transform="translate(270.546875 0.578125)" xlink:href="#DejaVuSans-32"/>
     <use transform="translate(302.333984 0.578125)" xlink:href="#DejaVuSans-53"/>
     <use transform="translate(365.957031 0.578125)" xlink:href="#DejaVuSans-32"/>
     <use transform="translate(397.744141 0.578125)" xlink:href="#DejaVuSans-71"/>
     <use transform="translate(475.234375 0.578125)" xlink:href="#DejaVuSans-121"/>
     <use transform="translate(534.414062 0.578125)" xlink:href="#DejaVuSans-114"/>
     <use transform="translate(575.527344 0.578125)" xlink:href="#DejaVuSans-115"/>
    </g>
   </g>
   <g id="legend_1">
    <g id="patch_22">
     <path d="M 918.130313 557.04375 
L 1217.330313 557.04375 
Q 1221.730313 557.04375 1221.730313 552.64375 
L 1221.730313 454.62 
Q 1221.730313 450.22 1217.330313 450.22 
L 918.130313 450.22 
Q 913.730313 450.22 913.730313 454.62 
L 913.730313 552.64375 
Q 913.730313 557.04375 918.130313 557.04375 
z
" style="fill:#808080;opacity:0.1;stroke:#cccccc;stroke-linejoin:miter;stroke-width:0.2;"/>
    </g>
    <g id="text_44">
     <!-- Stellar Flux [erg cm$^{-2}$ s$^{-1}$] -->
     <defs>
      <path d="M 53.515625 70.515625 
L 53.515625 60.890625 
Q 47.90625 63.578125 42.921875 64.890625 
Q 37.9375 66.21875 33.296875 66.21875 
Q 25.25 66.21875 20.875 63.09375 
Q 16.5 59.96875 16.5 54.203125 
Q 16.5 49.359375 19.40625 46.890625 
Q 22.3125 44.4375 30.421875 42.921875 
L 36.375 41.703125 
Q 47.40625 39.59375 52.65625 34.296875 
Q 57.90625 29 57.90625 20.125 
Q 57.90625 9.515625 50.796875 4.046875 
Q 43.703125 -1.421875 29.984375 -1.421875 
Q 24.8125 -1.421875 18.96875 -0.25 
Q 13.140625 0.921875 6.890625 3.21875 
L 6.890625 13.375 
Q 12.890625 10.015625 18.65625 8.296875 
Q 24.421875 6.59375 29.984375 6.59375 
Q 38.421875 6.59375 43.015625 9.90625 
Q 47.609375 13.234375 47.609375 19.390625 
Q 47.609375 24.75 44.3125 27.78125 
Q 41.015625 30.8125 33.5 32.328125 
L 27.484375 33.5 
Q 16.453125 35.6875 11.515625 40.375 
Q 6.59375 45.0625 6.59375 53.421875 
Q 6.59375 63.09375 13.40625 68.65625 
Q 20.21875 74.21875 32.171875 74.21875 
Q 37.3125 74.21875 42.625 73.28125 
Q 47.953125 72.359375 53.515625 70.515625 
z
" id="DejaVuSans-83"/>
      <path d="M 9.8125 72.90625 
L 51.703125 72.90625 
L 51.703125 64.59375 
L 19.671875 64.59375 
L 19.671875 43.109375 
L 48.578125 43.109375 
L 48.578125 34.8125 
L 19.671875 34.8125 
L 19.671875 0 
L 9.8125 0 
z
" id="DejaVuSans-70"/>
      <path d="M 54.890625 54.6875 
L 35.109375 28.078125 
L 55.90625 0 
L 45.3125 0 
L 29.390625 21.484375 
L 13.484375 0 
L 2.875 0 
L 24.125 28.609375 
L 4.6875 54.6875 
L 15.28125 54.6875 
L 29.78125 35.203125 
L 44.28125 54.6875 
z
" id="DejaVuSans-120"/>
      <path d="M 45.40625 27.984375 
Q 45.40625 37.75 41.375 43.109375 
Q 37.359375 48.484375 30.078125 48.484375 
Q 22.859375 48.484375 18.828125 43.109375 
Q 14.796875 37.75 14.796875 27.984375 
Q 14.796875 18.265625 18.828125 12.890625 
Q 22.859375 7.515625 30.078125 7.515625 
Q 37.359375 7.515625 41.375 12.890625 
Q 45.40625 18.265625 45.40625 27.984375 
z
M 54.390625 6.78125 
Q 54.390625 -7.171875 48.1875 -13.984375 
Q 42 -20.796875 29.203125 -20.796875 
Q 24.46875 -20.796875 20.265625 -20.09375 
Q 16.0625 -19.390625 12.109375 -17.921875 
L 12.109375 -9.1875 
Q 16.0625 -11.328125 19.921875 -12.34375 
Q 23.78125 -13.375 27.78125 -13.375 
Q 36.625 -13.375 41.015625 -8.765625 
Q 45.40625 -4.15625 45.40625 5.171875 
L 45.40625 9.625 
Q 42.625 4.78125 38.28125 2.390625 
Q 33.9375 0 27.875 0 
Q 17.828125 0 11.671875 7.65625 
Q 5.515625 15.328125 5.515625 27.984375 
Q 5.515625 40.671875 11.671875 48.328125 
Q 17.828125 56 27.875 56 
Q 33.9375 56 38.28125 53.609375 
Q 42.625 51.21875 45.40625 46.390625 
L 45.40625 54.6875 
L 54.390625 54.6875 
z
" id="DejaVuSans-103"/>
      <path d="M 52 44.1875 
Q 55.375 50.25 60.0625 53.125 
Q 64.75 56 71.09375 56 
Q 79.640625 56 84.28125 50.015625 
Q 88.921875 44.046875 88.921875 33.015625 
L 88.921875 0 
L 79.890625 0 
L 79.890625 32.71875 
Q 79.890625 40.578125 77.09375 44.375 
Q 74.3125 48.1875 68.609375 48.1875 
Q 61.625 48.1875 57.5625 43.546875 
Q 53.515625 38.921875 53.515625 30.90625 
L 53.515625 0 
L 44.484375 0 
L 44.484375 32.71875 
Q 44.484375 40.625 41.703125 44.40625 
Q 38.921875 48.1875 33.109375 48.1875 
Q 26.21875 48.1875 22.15625 43.53125 
Q 18.109375 38.875 18.109375 30.90625 
L 18.109375 0 
L 9.078125 0 
L 9.078125 54.6875 
L 18.109375 54.6875 
L 18.109375 46.1875 
Q 21.1875 51.21875 25.484375 53.609375 
Q 29.78125 56 35.6875 56 
Q 41.65625 56 45.828125 52.96875 
Q 50 49.953125 52 44.1875 
z
" id="DejaVuSans-109"/>
      <path d="M 10.59375 35.5 
L 73.1875 35.5 
L 73.1875 27.203125 
L 10.59375 27.203125 
z
" id="DejaVuSans-8722"/>
     </defs>
     <g style="fill:#3f3d46;" transform="translate(922.530313 479.04)scale(0.22 -0.22)">
      <use transform="translate(0 0.765625)" xlink:href="#DejaVuSans-83"/>
      <use transform="translate(63.476562 0.765625)" xlink:href="#DejaVuSans-116"/>
      <use transform="translate(102.685547 0.765625)" xlink:href="#DejaVuSans-101"/>
      <use transform="translate(164.208984 0.765625)" xlink:href="#DejaVuSans-108"/>
      <use transform="translate(191.992188 0.765625)" xlink:href="#DejaVuSans-108"/>
      <use transform="translate(219.775391 0.765625)" xlink:href="#DejaVuSans-97"/>
      <use transform="translate(281.054688 0.765625)" xlink:href="#DejaVuSans-114"/>
      <use transform="translate(322.167969 0.765625)" xlink:href="#DejaVuSans-32"/>
      <use transform="translate(353.955078 0.765625)" xlink:href="#DejaVuSans-70"/>
      <use transform="translate(411.474609 0.765625)" xlink:href="#DejaVuSans-108"/>
      <use transform="translate(439.257812 0.765625)" xlink:href="#DejaVuSans-117"/>
      <use transform="translate(502.636719 0.765625)" xlink:href="#DejaVuSans-120"/>
      <use transform="translate(561.816406 0.765625)" xlink:href="#DejaVuSans-32"/>
      <use transform="translate(593.603516 0.765625)" xlink:href="#DejaVuSans-91"/>
      <use transform="translate(632.617188 0.765625)" xlink:href="#DejaVuSans-101"/>
      <use transform="translate(694.140625 0.765625)" xlink:href="#DejaVuSans-114"/>
      <use transform="translate(735.253906 0.765625)" xlink:href="#DejaVuSans-103"/>
      <use transform="translate(798.730469 0.765625)" xlink:href="#DejaVuSans-32"/>
      <use transform="translate(830.517578 0.765625)" xlink:href="#DejaVuSans-99"/>
      <use transform="translate(885.498047 0.765625)" xlink:href="#DejaVuSans-109"/>
      <use transform="translate(983.867188 39.046875)scale(0.7)" xlink:href="#DejaVuSans-8722"/>
      <use transform="translate(1042.519531 39.046875)scale(0.7)" xlink:href="#DejaVuSans-50"/>
      <use transform="translate(1089.790039 0.765625)" xlink:href="#DejaVuSans-32"/>
      <use transform="translate(1121.577148 0.765625)" xlink:href="#DejaVuSans-115"/>
      <use transform="translate(1174.633789 39.046875)scale(0.7)" xlink:href="#DejaVuSans-8722"/>
      <use transform="translate(1233.286133 39.046875)scale(0.7)" xlink:href="#DejaVuSans-49"/>
      <use transform="translate(1280.556641 0.765625)" xlink:href="#DejaVuSans-93"/>
     </g>
    </g>
    <g id="line2d_111">
     <path d="M 945.410313 503.676563 
L 989.410313 503.676563 
" style="fill:none;stroke:#00224e;stroke-linecap:square;stroke-width:3;"/>
    </g>
    <g id="line2d_112"/>
    <g id="text_45">
     <!-- 0 -->
     <g style="fill:#3f3d46;" transform="translate(1007.010313 511.376563)scale(0.22 -0.22)">
      <use xlink:href="#DejaVuSans-48"/>
     </g>
    </g>
    <g id="line2d_113">
     <path d="M 945.410313 535.968437 
L 989.410313 535.968437 
" style="fill:none;stroke:#434e6c;stroke-linecap:square;stroke-width:3;"/>
    </g>
    <g id="line2d_114"/>
    <g id="text_46">
     <!-- $10^5$ -->
     <g style="fill:#3f3d46;" transform="translate(1007.010313 543.668437)scale(0.22 -0.22)">
      <use transform="translate(0 0.684375)" xlink:href="#DejaVuSans-49"/>
      <use transform="translate(63.623047 0.684375)" xlink:href="#DejaVuSans-48"/>
      <use transform="translate(128.203125 38.965625)scale(0.7)" xlink:href="#DejaVuSans-53"/>
     </g>
    </g>
    <g id="line2d_115">
     <path d="M 1089.730313 503.676563 
L 1133.730313 503.676563 
" style="fill:none;stroke:#7c7b78;stroke-linecap:square;stroke-width:3;"/>
    </g>
    <g id="line2d_116"/>
    <g id="text_47">
     <!-- $10^7$ -->
     <g style="fill:#3f3d46;" transform="translate(1151.330313 511.376563)scale(0.22 -0.22)">
      <use transform="translate(0 0.684375)" xlink:href="#DejaVuSans-49"/>
      <use transform="translate(63.623047 0.684375)" xlink:href="#DejaVuSans-48"/>
      <use transform="translate(128.203125 38.965625)scale(0.7)" xlink:href="#DejaVuSans-55"/>
     </g>
    </g>
    <g id="line2d_117">
     <path d="M 1089.730313 535.968437 
L 1133.730313 535.968437 
" style="fill:none;stroke:#bbad6c;stroke-linecap:square;stroke-width:3;"/>
    </g>
    <g id="line2d_118"/>
    <g id="text_48">
     <!-- $10^8$ -->
     <g style="fill:#3f3d46;" transform="translate(1151.330313 543.668437)scale(0.22 -0.22)">
      <use transform="translate(0 0.765625)" xlink:href="#DejaVuSans-49"/>
      <use transform="translate(63.623047 0.765625)" xlink:href="#DejaVuSans-48"/>
      <use transform="translate(128.203125 39.046875)scale(0.7)" xlink:href="#DejaVuSans-56"/>
     </g>
    </g>
   </g>
  </g>
  <g id="text_49">
   <!-- Heavy-element Enhanced Opacity Inflates Low-Metallicity Planets -->
   <defs>
    <path d="M 9.8125 72.90625 
L 19.671875 72.90625 
L 19.671875 43.015625 
L 55.515625 43.015625 
L 55.515625 72.90625 
L 65.375 72.90625 
L 65.375 0 
L 55.515625 0 
L 55.515625 34.71875 
L 19.671875 34.71875 
L 19.671875 0 
L 9.8125 0 
z
" id="DejaVuSans-72"/>
    <path d="M 2.984375 54.6875 
L 12.5 54.6875 
L 29.59375 8.796875 
L 46.6875 54.6875 
L 56.203125 54.6875 
L 35.6875 0 
L 23.484375 0 
z
" id="DejaVuSans-118"/>
    <path d="M 4.890625 31.390625 
L 31.203125 31.390625 
L 31.203125 23.390625 
L 4.890625 23.390625 
z
" id="DejaVuSans-45"/>
    <path d="M 9.8125 72.90625 
L 55.90625 72.90625 
L 55.90625 64.59375 
L 19.671875 64.59375 
L 19.671875 43.015625 
L 54.390625 43.015625 
L 54.390625 34.71875 
L 19.671875 34.71875 
L 19.671875 8.296875 
L 56.78125 8.296875 
L 56.78125 0 
L 9.8125 0 
z
" id="DejaVuSans-69"/>
    <path d="M 54.890625 33.015625 
L 54.890625 0 
L 45.90625 0 
L 45.90625 32.71875 
Q 45.90625 40.484375 42.875 44.328125 
Q 39.84375 48.1875 33.796875 48.1875 
Q 26.515625 48.1875 22.3125 43.546875 
Q 18.109375 38.921875 18.109375 30.90625 
L 18.109375 0 
L 9.078125 0 
L 9.078125 75.984375 
L 18.109375 75.984375 
L 18.109375 46.1875 
Q 21.34375 51.125 25.703125 53.5625 
Q 30.078125 56 35.796875 56 
Q 45.21875 56 50.046875 50.171875 
Q 54.890625 44.34375 54.890625 33.015625 
z
" id="DejaVuSans-104"/>
    <path d="M 39.40625 66.21875 
Q 28.65625 66.21875 22.328125 58.203125 
Q 16.015625 50.203125 16.015625 36.375 
Q 16.015625 22.609375 22.328125 14.59375 
Q 28.65625 6.59375 39.40625 6.59375 
Q 50.140625 6.59375 56.421875 14.59375 
Q 62.703125 22.609375 62.703125 36.375 
Q 62.703125 50.203125 56.421875 58.203125 
Q 50.140625 66.21875 39.40625 66.21875 
z
M 39.40625 74.21875 
Q 54.734375 74.21875 63.90625 63.9375 
Q 73.09375 53.65625 73.09375 36.375 
Q 73.09375 19.140625 63.90625 8.859375 
Q 54.734375 -1.421875 39.40625 -1.421875 
Q 24.03125 -1.421875 14.8125 8.828125 
Q 5.609375 19.09375 5.609375 36.375 
Q 5.609375 53.65625 14.8125 63.9375 
Q 24.03125 74.21875 39.40625 74.21875 
z
" id="DejaVuSans-79"/>
    <path d="M 18.109375 8.203125 
L 18.109375 -20.796875 
L 9.078125 -20.796875 
L 9.078125 54.6875 
L 18.109375 54.6875 
L 18.109375 46.390625 
Q 20.953125 51.265625 25.265625 53.625 
Q 29.59375 56 35.59375 56 
Q 45.5625 56 51.78125 48.09375 
Q 58.015625 40.1875 58.015625 27.296875 
Q 58.015625 14.40625 51.78125 6.484375 
Q 45.5625 -1.421875 35.59375 -1.421875 
Q 29.59375 -1.421875 25.265625 0.953125 
Q 20.953125 3.328125 18.109375 8.203125 
z
M 48.6875 27.296875 
Q 48.6875 37.203125 44.609375 42.84375 
Q 40.53125 48.484375 33.40625 48.484375 
Q 26.265625 48.484375 22.1875 42.84375 
Q 18.109375 37.203125 18.109375 27.296875 
Q 18.109375 17.390625 22.1875 11.75 
Q 26.265625 6.109375 33.40625 6.109375 
Q 40.53125 6.109375 44.609375 11.75 
Q 48.6875 17.390625 48.6875 27.296875 
z
" id="DejaVuSans-112"/>
    <path d="M 9.8125 72.90625 
L 19.671875 72.90625 
L 19.671875 0 
L 9.8125 0 
z
" id="DejaVuSans-73"/>
    <path d="M 37.109375 75.984375 
L 37.109375 68.5 
L 28.515625 68.5 
Q 23.6875 68.5 21.796875 66.546875 
Q 19.921875 64.59375 19.921875 59.515625 
L 19.921875 54.6875 
L 34.71875 54.6875 
L 34.71875 47.703125 
L 19.921875 47.703125 
L 19.921875 0 
L 10.890625 0 
L 10.890625 47.703125 
L 2.296875 47.703125 
L 2.296875 54.6875 
L 10.890625 54.6875 
L 10.890625 58.5 
Q 10.890625 67.625 15.140625 71.796875 
Q 19.390625 75.984375 28.609375 75.984375 
z
" id="DejaVuSans-102"/>
    <path d="M 9.8125 72.90625 
L 19.671875 72.90625 
L 19.671875 8.296875 
L 55.171875 8.296875 
L 55.171875 0 
L 9.8125 0 
z
" id="DejaVuSans-76"/>
    <path d="M 30.609375 48.390625 
Q 23.390625 48.390625 19.1875 42.75 
Q 14.984375 37.109375 14.984375 27.296875 
Q 14.984375 17.484375 19.15625 11.84375 
Q 23.34375 6.203125 30.609375 6.203125 
Q 37.796875 6.203125 41.984375 11.859375 
Q 46.1875 17.53125 46.1875 27.296875 
Q 46.1875 37.015625 41.984375 42.703125 
Q 37.796875 48.390625 30.609375 48.390625 
z
M 30.609375 56 
Q 42.328125 56 49.015625 48.375 
Q 55.71875 40.765625 55.71875 27.296875 
Q 55.71875 13.875 49.015625 6.21875 
Q 42.328125 -1.421875 30.609375 -1.421875 
Q 18.84375 -1.421875 12.171875 6.21875 
Q 5.515625 13.875 5.515625 27.296875 
Q 5.515625 40.765625 12.171875 48.375 
Q 18.84375 56 30.609375 56 
z
" id="DejaVuSans-111"/>
    <path d="M 4.203125 54.6875 
L 13.1875 54.6875 
L 24.421875 12.015625 
L 35.59375 54.6875 
L 46.1875 54.6875 
L 57.421875 12.015625 
L 68.609375 54.6875 
L 77.59375 54.6875 
L 63.28125 0 
L 52.6875 0 
L 40.921875 44.828125 
L 29.109375 0 
L 18.5 0 
z
" id="DejaVuSans-119"/>
   </defs>
   <g style="fill:#3f3d46;" transform="translate(230.854062 25.43625)scale(0.24 -0.24)">
    <use xlink:href="#DejaVuSans-72"/>
    <use x="75.195312" xlink:href="#DejaVuSans-101"/>
    <use x="136.71875" xlink:href="#DejaVuSans-97"/>
    <use x="197.998047" xlink:href="#DejaVuSans-118"/>
    <use x="257.177734" xlink:href="#DejaVuSans-121"/>
    <use x="316.341797" xlink:href="#DejaVuSans-45"/>
    <use x="352.425781" xlink:href="#DejaVuSans-101"/>
    <use x="413.949219" xlink:href="#DejaVuSans-108"/>
    <use x="441.732422" xlink:href="#DejaVuSans-101"/>
    <use x="503.255859" xlink:href="#DejaVuSans-109"/>
    <use x="600.667969" xlink:href="#DejaVuSans-101"/>
    <use x="662.191406" xlink:href="#DejaVuSans-110"/>
    <use x="725.570312" xlink:href="#DejaVuSans-116"/>
    <use x="764.779297" xlink:href="#DejaVuSans-32"/>
    <use x="796.566406" xlink:href="#DejaVuSans-69"/>
    <use x="859.75" xlink:href="#DejaVuSans-110"/>
    <use x="923.128906" xlink:href="#DejaVuSans-104"/>
    <use x="986.507812" xlink:href="#DejaVuSans-97"/>
    <use x="1047.787109" xlink:href="#DejaVuSans-110"/>
    <use x="1111.166016" xlink:href="#DejaVuSans-99"/>
    <use x="1166.146484" xlink:href="#DejaVuSans-101"/>
    <use x="1227.669922" xlink:href="#DejaVuSans-100"/>
    <use x="1291.146484" xlink:href="#DejaVuSans-32"/>
    <use x="1322.933594" xlink:href="#DejaVuSans-79"/>
    <use x="1401.644531" xlink:href="#DejaVuSans-112"/>
    <use x="1465.121094" xlink:href="#DejaVuSans-97"/>
    <use x="1526.400391" xlink:href="#DejaVuSans-99"/>
    <use x="1581.380859" xlink:href="#DejaVuSans-105"/>
    <use x="1609.164062" xlink:href="#DejaVuSans-116"/>
    <use x="1648.373047" xlink:href="#DejaVuSans-121"/>
    <use x="1707.552734" xlink:href="#DejaVuSans-32"/>
    <use x="1739.339844" xlink:href="#DejaVuSans-73"/>
    <use x="1768.832031" xlink:href="#DejaVuSans-110"/>
    <use x="1832.210938" xlink:href="#DejaVuSans-102"/>
    <use x="1867.416016" xlink:href="#DejaVuSans-108"/>
    <use x="1895.199219" xlink:href="#DejaVuSans-97"/>
    <use x="1956.478516" xlink:href="#DejaVuSans-116"/>
    <use x="1995.6875" xlink:href="#DejaVuSans-101"/>
    <use x="2057.210938" xlink:href="#DejaVuSans-115"/>
    <use x="2109.310547" xlink:href="#DejaVuSans-32"/>
    <use x="2141.097656" xlink:href="#DejaVuSans-76"/>
    <use x="2196.794922" xlink:href="#DejaVuSans-111"/>
    <use x="2257.976562" xlink:href="#DejaVuSans-119"/>
    <use x="2339.763672" xlink:href="#DejaVuSans-45"/>
    <use x="2375.847656" xlink:href="#DejaVuSans-77"/>
    <use x="2462.126953" xlink:href="#DejaVuSans-101"/>
    <use x="2523.650391" xlink:href="#DejaVuSans-116"/>
    <use x="2562.859375" xlink:href="#DejaVuSans-97"/>
    <use x="2624.138672" xlink:href="#DejaVuSans-108"/>
    <use x="2651.921875" xlink:href="#DejaVuSans-108"/>
    <use x="2679.705078" xlink:href="#DejaVuSans-105"/>
    <use x="2707.488281" xlink:href="#DejaVuSans-99"/>
    <use x="2762.46875" xlink:href="#DejaVuSans-105"/>
    <use x="2790.251953" xlink:href="#DejaVuSans-116"/>
    <use x="2829.460938" xlink:href="#DejaVuSans-121"/>
    <use x="2888.640625" xlink:href="#DejaVuSans-32"/>
    <use x="2920.427734" xlink:href="#DejaVuSans-80"/>
    <use x="2980.730469" xlink:href="#DejaVuSans-108"/>
    <use x="3008.513672" xlink:href="#DejaVuSans-97"/>
    <use x="3069.792969" xlink:href="#DejaVuSans-110"/>
    <use x="3133.171875" xlink:href="#DejaVuSans-101"/>
    <use x="3194.695312" xlink:href="#DejaVuSans-116"/>
    <use x="3233.904297" xlink:href="#DejaVuSans-115"/>
   </g>
  </g>
 </g>
 <defs>
  <clipPath id="p91dc9025a0">
   <rect height="355.86" width="539.47875" x="96.637813" y="45.6"/>
  </clipPath>
  <clipPath id="p48096a6eba">
   <rect height="355.86" width="539.47875" x="693.251563" y="45.6"/>
  </clipPath>
  <clipPath id="p6338e28e75">
   <rect height="355.86" width="539.47875" x="96.637813" y="439.22"/>
  </clipPath>
  <clipPath id="p52a3e95f7c">
   <rect height="355.86" width="539.47875" x="693.251563" y="439.22"/>
  </clipPath>
 </defs>
</svg>
