<?xml version="1.0" encoding="utf-8" standalone="no"?>
<!DOCTYPE svg PUBLIC "-//W3C//DTD SVG 1.1//EN"
  "http://www.w3.org/Graphics/SVG/1.1/DTD/svg11.dtd">
<!-- Created with matplotlib (https://matplotlib.org/) -->
<svg height="974.409922pt" version="1.1" viewBox="0 0 824.631562 974.409922" width="824.631562pt" xmlns="http://www.w3.org/2000/svg" xmlns:xlink="http://www.w3.org/1999/xlink">
 <defs>
  <style type="text/css">
*{stroke-linecap:butt;stroke-linejoin:round;}
  </style>
 </defs>
 <g id="figure_1">
  <g id="patch_1">
   <path d="M 0 974.409922 
L 824.631562 974.409922 
L 824.631562 0 
L 0 0 
z
" style="fill:none;"/>
  </g>
  <g id="axes_1">
   <g id="patch_2">
    <path d="M 83.276563 283.165026 
L 429.130312 283.165026 
L 429.130312 15.178359 
L 83.276563 15.178359 
z
" style="fill:none;"/>
   </g>
   <g id="matplotlib.axis_1">
    <g id="xtick_1">
     <g id="line2d_1">
      <defs>
       <path d="M 0 0 
L 0 6 
" id="me6fc3141ee" style="stroke:#3f3d46;"/>
      </defs>
      <g>
       <use style="fill:#3f3d46;stroke:#3f3d46;" x="83.276563" xlink:href="#me6fc3141ee" y="283.165026"/>
      </g>
     </g>
    </g>
    <g id="xtick_2">
     <g id="line2d_2">
      <g>
       <use style="fill:#3f3d46;stroke:#3f3d46;" x="206.795759" xlink:href="#me6fc3141ee" y="283.165026"/>
      </g>
     </g>
    </g>
    <g id="xtick_3">
     <g id="line2d_3">
      <g>
       <use style="fill:#3f3d46;stroke:#3f3d46;" x="330.314955" xlink:href="#me6fc3141ee" y="283.165026"/>
      </g>
     </g>
    </g>
   </g>
   <g id="matplotlib.axis_2">
    <g id="ytick_1">
     <g id="line2d_4">
      <defs>
       <path d="M 0 0 
L -6 0 
" id="m944bf7c8d8" style="stroke:#3f3d46;"/>
      </defs>
      <g>
       <use style="fill:#3f3d46;stroke:#3f3d46;" x="83.276563" xlink:href="#m944bf7c8d8" y="283.165026"/>
      </g>
     </g>
     <g id="text_1">
      <!-- 0.9 -->
      <defs>
       <path d="M 31.78125 66.40625 
Q 24.171875 66.40625 20.328125 58.90625 
Q 16.5 51.421875 16.5 36.375 
Q 16.5 21.390625 20.328125 13.890625 
Q 24.171875 6.390625 31.78125 6.390625 
Q 39.453125 6.390625 43.28125 13.890625 
Q 47.125 21.390625 47.125 36.375 
Q 47.125 51.421875 43.28125 58.90625 
Q 39.453125 66.40625 31.78125 66.40625 
z
M 31.78125 74.21875 
Q 44.046875 74.21875 50.515625 64.515625 
Q 56.984375 54.828125 56.984375 36.375 
Q 56.984375 17.96875 50.515625 8.265625 
Q 44.046875 -1.421875 31.78125 -1.421875 
Q 19.53125 -1.421875 13.0625 8.265625 
Q 6.59375 17.96875 6.59375 36.375 
Q 6.59375 54.828125 13.0625 64.515625 
Q 19.53125 74.21875 31.78125 74.21875 
z
" id="DejaVuSans-48"/>
       <path d="M 10.6875 12.40625 
L 21 12.40625 
L 21 0 
L 10.6875 0 
z
" id="DejaVuSans-46"/>
       <path d="M 10.984375 1.515625 
L 10.984375 10.5 
Q 14.703125 8.734375 18.5 7.8125 
Q 22.3125 6.890625 25.984375 6.890625 
Q 35.75 6.890625 40.890625 13.453125 
Q 46.046875 20.015625 46.78125 33.40625 
Q 43.953125 29.203125 39.59375 26.953125 
Q 35.25 24.703125 29.984375 24.703125 
Q 19.046875 24.703125 12.671875 31.3125 
Q 6.296875 37.9375 6.296875 49.421875 
Q 6.296875 60.640625 12.9375 67.421875 
Q 19.578125 74.21875 30.609375 74.21875 
Q 43.265625 74.21875 49.921875 64.515625 
Q 56.59375 54.828125 56.59375 36.375 
Q 56.59375 19.140625 48.40625 8.859375 
Q 40.234375 -1.421875 26.421875 -1.421875 
Q 22.703125 -1.421875 18.890625 -0.6875 
Q 15.09375 0.046875 10.984375 1.515625 
z
M 30.609375 32.421875 
Q 37.25 32.421875 41.125 36.953125 
Q 45.015625 41.5 45.015625 49.421875 
Q 45.015625 57.28125 41.125 61.84375 
Q 37.25 66.40625 30.609375 66.40625 
Q 23.96875 66.40625 20.09375 61.84375 
Q 16.21875 57.28125 16.21875 49.421875 
Q 16.21875 41.5 20.09375 36.953125 
Q 23.96875 32.421875 30.609375 32.421875 
z
" id="DejaVuSans-57"/>
      </defs>
      <g style="fill:#3f3d46;" transform="translate(36.88 291.143385)scale(0.21 -0.21)">
       <use xlink:href="#DejaVuSans-48"/>
       <use x="63.623047" xlink:href="#DejaVuSans-46"/>
       <use x="95.410156" xlink:href="#DejaVuSans-57"/>
      </g>
     </g>
    </g>
    <g id="ytick_2">
     <g id="line2d_5">
      <g>
       <use style="fill:#3f3d46;stroke:#3f3d46;" x="83.276563" xlink:href="#m944bf7c8d8" y="193.836137"/>
      </g>
     </g>
     <g id="text_2">
      <!-- 1.0 -->
      <defs>
       <path d="M 12.40625 8.296875 
L 28.515625 8.296875 
L 28.515625 63.921875 
L 10.984375 60.40625 
L 10.984375 69.390625 
L 28.421875 72.90625 
L 38.28125 72.90625 
L 38.28125 8.296875 
L 54.390625 8.296875 
L 54.390625 0 
L 12.40625 0 
z
" id="DejaVuSans-49"/>
      </defs>
      <g style="fill:#3f3d46;" transform="translate(36.88 201.814497)scale(0.21 -0.21)">
       <use xlink:href="#DejaVuSans-49"/>
       <use x="63.623047" xlink:href="#DejaVuSans-46"/>
       <use x="95.410156" xlink:href="#DejaVuSans-48"/>
      </g>
     </g>
    </g>
    <g id="ytick_3">
     <g id="line2d_6">
      <g>
       <use style="fill:#3f3d46;stroke:#3f3d46;" x="83.276563" xlink:href="#m944bf7c8d8" y="104.507248"/>
      </g>
     </g>
     <g id="text_3">
      <!-- 1.1 -->
      <g style="fill:#3f3d46;" transform="translate(36.88 112.485608)scale(0.21 -0.21)">
       <use xlink:href="#DejaVuSans-49"/>
       <use x="63.623047" xlink:href="#DejaVuSans-46"/>
       <use x="95.410156" xlink:href="#DejaVuSans-49"/>
      </g>
     </g>
    </g>
    <g id="ytick_4">
     <g id="line2d_7">
      <g>
       <use style="fill:#3f3d46;stroke:#3f3d46;" x="83.276563" xlink:href="#m944bf7c8d8" y="15.178359"/>
      </g>
     </g>
     <g id="text_4">
      <!-- 1.2 -->
      <defs>
       <path d="M 19.1875 8.296875 
L 53.609375 8.296875 
L 53.609375 0 
L 7.328125 0 
L 7.328125 8.296875 
Q 12.9375 14.109375 22.625 23.890625 
Q 32.328125 33.6875 34.8125 36.53125 
Q 39.546875 41.84375 41.421875 45.53125 
Q 43.3125 49.21875 43.3125 52.78125 
Q 43.3125 58.59375 39.234375 62.25 
Q 35.15625 65.921875 28.609375 65.921875 
Q 23.96875 65.921875 18.8125 64.3125 
Q 13.671875 62.703125 7.8125 59.421875 
L 7.8125 69.390625 
Q 13.765625 71.78125 18.9375 73 
Q 24.125 74.21875 28.421875 74.21875 
Q 39.75 74.21875 46.484375 68.546875 
Q 53.21875 62.890625 53.21875 53.421875 
Q 53.21875 48.921875 51.53125 44.890625 
Q 49.859375 40.875 45.40625 35.40625 
Q 44.1875 33.984375 37.640625 27.21875 
Q 31.109375 20.453125 19.1875 8.296875 
z
" id="DejaVuSans-50"/>
      </defs>
      <g style="fill:#3f3d46;" transform="translate(36.88 23.156719)scale(0.21 -0.21)">
       <use xlink:href="#DejaVuSans-49"/>
       <use x="63.623047" xlink:href="#DejaVuSans-46"/>
       <use x="95.410156" xlink:href="#DejaVuSans-50"/>
      </g>
     </g>
    </g>
    <g id="text_5">
     <!-- Radius  [$R_J$] -->
     <defs>
      <path d="M 44.390625 34.1875 
Q 47.5625 33.109375 50.5625 29.59375 
Q 53.5625 26.078125 56.59375 19.921875 
L 66.609375 0 
L 56 0 
L 46.6875 18.703125 
Q 43.0625 26.03125 39.671875 28.421875 
Q 36.28125 30.8125 30.421875 30.8125 
L 19.671875 30.8125 
L 19.671875 0 
L 9.8125 0 
L 9.8125 72.90625 
L 32.078125 72.90625 
Q 44.578125 72.90625 50.734375 67.671875 
Q 56.890625 62.453125 56.890625 51.90625 
Q 56.890625 45.015625 53.6875 40.46875 
Q 50.484375 35.9375 44.390625 34.1875 
z
M 19.671875 64.796875 
L 19.671875 38.921875 
L 32.078125 38.921875 
Q 39.203125 38.921875 42.84375 42.21875 
Q 46.484375 45.515625 46.484375 51.90625 
Q 46.484375 58.296875 42.84375 61.546875 
Q 39.203125 64.796875 32.078125 64.796875 
z
" id="DejaVuSans-82"/>
      <path d="M 34.28125 27.484375 
Q 23.390625 27.484375 19.1875 25 
Q 14.984375 22.515625 14.984375 16.5 
Q 14.984375 11.71875 18.140625 8.90625 
Q 21.296875 6.109375 26.703125 6.109375 
Q 34.1875 6.109375 38.703125 11.40625 
Q 43.21875 16.703125 43.21875 25.484375 
L 43.21875 27.484375 
z
M 52.203125 31.203125 
L 52.203125 0 
L 43.21875 0 
L 43.21875 8.296875 
Q 40.140625 3.328125 35.546875 0.953125 
Q 30.953125 -1.421875 24.3125 -1.421875 
Q 15.921875 -1.421875 10.953125 3.296875 
Q 6 8.015625 6 15.921875 
Q 6 25.140625 12.171875 29.828125 
Q 18.359375 34.515625 30.609375 34.515625 
L 43.21875 34.515625 
L 43.21875 35.40625 
Q 43.21875 41.609375 39.140625 45 
Q 35.0625 48.390625 27.6875 48.390625 
Q 23 48.390625 18.546875 47.265625 
Q 14.109375 46.140625 10.015625 43.890625 
L 10.015625 52.203125 
Q 14.9375 54.109375 19.578125 55.046875 
Q 24.21875 56 28.609375 56 
Q 40.484375 56 46.34375 49.84375 
Q 52.203125 43.703125 52.203125 31.203125 
z
" id="DejaVuSans-97"/>
      <path d="M 45.40625 46.390625 
L 45.40625 75.984375 
L 54.390625 75.984375 
L 54.390625 0 
L 45.40625 0 
L 45.40625 8.203125 
Q 42.578125 3.328125 38.25 0.953125 
Q 33.9375 -1.421875 27.875 -1.421875 
Q 17.96875 -1.421875 11.734375 6.484375 
Q 5.515625 14.40625 5.515625 27.296875 
Q 5.515625 40.1875 11.734375 48.09375 
Q 17.96875 56 27.875 56 
Q 33.9375 56 38.25 53.625 
Q 42.578125 51.265625 45.40625 46.390625 
z
M 14.796875 27.296875 
Q 14.796875 17.390625 18.875 11.75 
Q 22.953125 6.109375 30.078125 6.109375 
Q 37.203125 6.109375 41.296875 11.75 
Q 45.40625 17.390625 45.40625 27.296875 
Q 45.40625 37.203125 41.296875 42.84375 
Q 37.203125 48.484375 30.078125 48.484375 
Q 22.953125 48.484375 18.875 42.84375 
Q 14.796875 37.203125 14.796875 27.296875 
z
" id="DejaVuSans-100"/>
      <path d="M 9.421875 54.6875 
L 18.40625 54.6875 
L 18.40625 0 
L 9.421875 0 
z
M 9.421875 75.984375 
L 18.40625 75.984375 
L 18.40625 64.59375 
L 9.421875 64.59375 
z
" id="DejaVuSans-105"/>
      <path d="M 8.5 21.578125 
L 8.5 54.6875 
L 17.484375 54.6875 
L 17.484375 21.921875 
Q 17.484375 14.15625 20.5 10.265625 
Q 23.53125 6.390625 29.59375 6.390625 
Q 36.859375 6.390625 41.078125 11.03125 
Q 45.3125 15.671875 45.3125 23.6875 
L 45.3125 54.6875 
L 54.296875 54.6875 
L 54.296875 0 
L 45.3125 0 
L 45.3125 8.40625 
Q 42.046875 3.421875 37.71875 1 
Q 33.40625 -1.421875 27.6875 -1.421875 
Q 18.265625 -1.421875 13.375 4.4375 
Q 8.5 10.296875 8.5 21.578125 
z
M 31.109375 56 
z
" id="DejaVuSans-117"/>
      <path d="M 44.28125 53.078125 
L 44.28125 44.578125 
Q 40.484375 46.53125 36.375 47.5 
Q 32.28125 48.484375 27.875 48.484375 
Q 21.1875 48.484375 17.84375 46.4375 
Q 14.5 44.390625 14.5 40.28125 
Q 14.5 37.15625 16.890625 35.375 
Q 19.28125 33.59375 26.515625 31.984375 
L 29.59375 31.296875 
Q 39.15625 29.25 43.1875 25.515625 
Q 47.21875 21.78125 47.21875 15.09375 
Q 47.21875 7.46875 41.1875 3.015625 
Q 35.15625 -1.421875 24.609375 -1.421875 
Q 20.21875 -1.421875 15.453125 -0.5625 
Q 10.6875 0.296875 5.421875 2 
L 5.421875 11.28125 
Q 10.40625 8.6875 15.234375 7.390625 
Q 20.0625 6.109375 24.8125 6.109375 
Q 31.15625 6.109375 34.5625 8.28125 
Q 37.984375 10.453125 37.984375 14.40625 
Q 37.984375 18.0625 35.515625 20.015625 
Q 33.0625 21.96875 24.703125 23.78125 
L 21.578125 24.515625 
Q 13.234375 26.265625 9.515625 29.90625 
Q 5.8125 33.546875 5.8125 39.890625 
Q 5.8125 47.609375 11.28125 51.796875 
Q 16.75 56 26.8125 56 
Q 31.78125 56 36.171875 55.265625 
Q 40.578125 54.546875 44.28125 53.078125 
z
" id="DejaVuSans-115"/>
      <path id="DejaVuSans-32"/>
      <path d="M 8.59375 75.984375 
L 29.296875 75.984375 
L 29.296875 69 
L 17.578125 69 
L 17.578125 -6.203125 
L 29.296875 -6.203125 
L 29.296875 -13.1875 
L 8.59375 -13.1875 
z
" id="DejaVuSans-91"/>
      <path d="M 25.203125 64.796875 
L 20.21875 38.921875 
L 32.90625 38.921875 
Q 40.375 38.921875 44.984375 43.046875 
Q 49.609375 47.171875 49.609375 53.8125 
Q 49.609375 59.125 46.5 61.953125 
Q 43.40625 64.796875 37.59375 64.796875 
z
M 43.3125 35.015625 
Q 46.4375 34.28125 48.515625 31.390625 
Q 50.59375 28.515625 53.328125 19.921875 
L 59.515625 0 
L 49.125 0 
L 43.40625 18.703125 
Q 41.21875 25.921875 38.328125 28.359375 
Q 35.453125 30.8125 29.5 30.8125 
L 18.609375 30.8125 
L 12.59375 0 
L 2.6875 0 
L 16.890625 72.90625 
L 39.109375 72.90625 
Q 49.21875 72.90625 54.609375 68.328125 
Q 60.015625 63.765625 60.015625 55.171875 
Q 60.015625 47.5625 55.421875 41.984375 
Q 50.828125 36.421875 43.3125 35.015625 
z
" id="DejaVuSans-Oblique-82"/>
      <path d="M 16.703125 72.90625 
L 26.609375 72.90625 
L 13.375 5.078125 
Q 10.796875 -8.15625 4.65625 -14.078125 
Q -1.46875 -20.015625 -12.5 -20.015625 
L -16.40625 -20.015625 
L -14.796875 -11.71875 
L -11.71875 -11.71875 
Q -5.125 -11.71875 -1.703125 -7.953125 
Q 1.703125 -4.203125 3.515625 5.078125 
z
" id="DejaVuSans-Oblique-74"/>
      <path d="M 30.421875 75.984375 
L 30.421875 -13.1875 
L 9.71875 -13.1875 
L 9.71875 -6.203125 
L 21.390625 -6.203125 
L 21.390625 69 
L 9.71875 69 
L 9.71875 75.984375 
z
" id="DejaVuSans-93"/>
     </defs>
     <g style="fill:#3f3d46;" transform="translate(25.44 217.811693)rotate(-90)scale(0.24 -0.24)">
      <use transform="translate(0 0.015625)" xlink:href="#DejaVuSans-82"/>
      <use transform="translate(69.482422 0.015625)" xlink:href="#DejaVuSans-97"/>
      <use transform="translate(130.761719 0.015625)" xlink:href="#DejaVuSans-100"/>
      <use transform="translate(194.238281 0.015625)" xlink:href="#DejaVuSans-105"/>
      <use transform="translate(222.021484 0.015625)" xlink:href="#DejaVuSans-117"/>
      <use transform="translate(285.400391 0.015625)" xlink:href="#DejaVuSans-115"/>
      <use transform="translate(337.5 0.015625)" xlink:href="#DejaVuSans-32"/>
      <use transform="translate(369.287109 0.015625)" xlink:href="#DejaVuSans-32"/>
      <use transform="translate(401.074219 0.015625)" xlink:href="#DejaVuSans-91"/>
      <use transform="translate(440.087891 0.015625)" xlink:href="#DejaVuSans-Oblique-82"/>
      <use transform="translate(509.570312 -16.390625)scale(0.7)" xlink:href="#DejaVuSans-Oblique-74"/>
      <use transform="translate(532.949219 0.015625)" xlink:href="#DejaVuSans-93"/>
     </g>
    </g>
   </g>
   <g id="LineCollection_1">
    <path clip-path="url(#pbc2cb0b3e2)" d="M 194.443839 184.903248 
L 357.489179 184.903248 
" style="fill:none;stroke:#000000;stroke-opacity:0.3;stroke-width:3;"/>
   </g>
   <g id="LineCollection_2">
    <path clip-path="url(#pbc2cb0b3e2)" d="M 275.966509 211.701915 
L 275.966509 158.104582 
" style="fill:none;stroke:#000000;stroke-opacity:0.3;stroke-width:3;"/>
   </g>
   <g id="line2d_8">
    <path clip-path="url(#pbc2cb0b3e2)" d="M 85.214557 -1 
L 85.409383 5.614268 
L 85.674079 12.789307 
L 86.003366 20.719791 
L 86.364912 28.668899 
L 86.750804 35.786217 
L 87.199427 42.854177 
L 87.712576 49.814527 
L 88.293039 56.550518 
L 88.95996 63.2467 
L 89.715198 69.852574 
L 90.560927 76.294022 
L 91.507112 82.146087 
L 92.637831 88.219221 
L 93.93261 94.775584 
L 95.28166 100.21068 
L 96.903492 105.447343 
L 98.8958 111.319094 
L 101.03802 117.162659 
L 103.331601 122.096187 
L 106.118442 127.304678 
L 109.265234 132.849038 
L 112.597557 137.761686 
L 116.432017 142.737267 
L 120.698782 147.877518 
L 125.241982 152.557583 
L 130.350151 157.230076 
L 135.955668 161.842993 
L 142.130493 166.230108 
L 149.010322 170.773044 
L 156.403081 174.766093 
L 164.840829 179.031151 
L 173.954186 183.073372 
L 183.915857 187.121189 
L 194.726282 190.667671 
L 207.19936 194.772211 
L 220.06484 198.087336 
L 235.031209 202.255128 
L 248.125067 208.813542 
L 256.745666 210.621898 
L 267.184006 211.365855 
L 282.215216 212.330296 
L 303.860158 213.651136 
L 335.028875 215.556839 
L 378.764608 218.46638 
L 427.387324 221.386847 
L 429.130312 221.518316 
" style="fill:none;stroke:#ffbc79;stroke-linecap:square;stroke-width:3;"/>
   </g>
   <g id="line2d_9">
    <defs>
     <path d="M 0 3.5 
C 0.928211 3.5 1.81853 3.131218 2.474874 2.474874 
C 3.131218 1.81853 3.5 0.928211 3.5 0 
C 3.5 -0.928211 3.131218 -1.81853 2.474874 -2.474874 
C 1.81853 -3.131218 0.928211 -3.5 0 -3.5 
C -0.928211 -3.5 -1.81853 -3.131218 -2.474874 -2.474874 
C -3.131218 -1.81853 -3.5 -0.928211 -3.5 0 
C -3.5 0.928211 -3.131218 1.81853 -2.474874 2.474874 
C -1.81853 3.131218 -0.928211 3.5 0 3.5 
z
" id="m904bc0f41d"/>
    </defs>
    <g clip-path="url(#pbc2cb0b3e2)">
     <use style="fill-opacity:0.3;" x="275.966509" xlink:href="#m904bc0f41d" y="184.903248"/>
    </g>
   </g>
   <g id="patch_3">
    <path d="M 83.276563 283.165026 
L 83.276563 15.178359 
" style="fill:none;stroke:#6a737d;stroke-linecap:square;stroke-linejoin:miter;stroke-width:1.4;"/>
   </g>
   <g id="patch_4">
    <path d="M 429.130312 283.165026 
L 429.130312 15.178359 
" style="fill:none;stroke:#6a737d;stroke-linecap:square;stroke-linejoin:miter;stroke-width:1.4;"/>
   </g>
   <g id="patch_5">
    <path d="M 83.276563 283.165026 
L 429.130312 283.165026 
" style="fill:none;stroke:#6a737d;stroke-linecap:square;stroke-linejoin:miter;stroke-width:1.4;"/>
   </g>
   <g id="patch_6">
    <path d="M 83.276563 15.178359 
L 429.130312 15.178359 
" style="fill:none;stroke:#6a737d;stroke-linecap:square;stroke-linejoin:miter;stroke-width:1.4;"/>
   </g>
   <g id="text_6">
    <!-- HAT-P-17b  -->
    <defs>
     <path d="M 9.8125 72.90625 
L 19.671875 72.90625 
L 19.671875 43.015625 
L 55.515625 43.015625 
L 55.515625 72.90625 
L 65.375 72.90625 
L 65.375 0 
L 55.515625 0 
L 55.515625 34.71875 
L 19.671875 34.71875 
L 19.671875 0 
L 9.8125 0 
z
" id="DejaVuSans-72"/>
     <path d="M 34.1875 63.1875 
L 20.796875 26.90625 
L 47.609375 26.90625 
z
M 28.609375 72.90625 
L 39.796875 72.90625 
L 67.578125 0 
L 57.328125 0 
L 50.6875 18.703125 
L 17.828125 18.703125 
L 11.1875 0 
L 0.78125 0 
z
" id="DejaVuSans-65"/>
     <path d="M -0.296875 72.90625 
L 61.375 72.90625 
L 61.375 64.59375 
L 35.5 64.59375 
L 35.5 0 
L 25.59375 0 
L 25.59375 64.59375 
L -0.296875 64.59375 
z
" id="DejaVuSans-84"/>
     <path d="M 4.890625 31.390625 
L 31.203125 31.390625 
L 31.203125 23.390625 
L 4.890625 23.390625 
z
" id="DejaVuSans-45"/>
     <path d="M 19.671875 64.796875 
L 19.671875 37.40625 
L 32.078125 37.40625 
Q 38.96875 37.40625 42.71875 40.96875 
Q 46.484375 44.53125 46.484375 51.125 
Q 46.484375 57.671875 42.71875 61.234375 
Q 38.96875 64.796875 32.078125 64.796875 
z
M 9.8125 72.90625 
L 32.078125 72.90625 
Q 44.34375 72.90625 50.609375 67.359375 
Q 56.890625 61.8125 56.890625 51.125 
Q 56.890625 40.328125 50.609375 34.8125 
Q 44.34375 29.296875 32.078125 29.296875 
L 19.671875 29.296875 
L 19.671875 0 
L 9.8125 0 
z
" id="DejaVuSans-80"/>
     <path d="M 8.203125 72.90625 
L 55.078125 72.90625 
L 55.078125 68.703125 
L 28.609375 0 
L 18.3125 0 
L 43.21875 64.59375 
L 8.203125 64.59375 
z
" id="DejaVuSans-55"/>
     <path d="M 48.6875 27.296875 
Q 48.6875 37.203125 44.609375 42.84375 
Q 40.53125 48.484375 33.40625 48.484375 
Q 26.265625 48.484375 22.1875 42.84375 
Q 18.109375 37.203125 18.109375 27.296875 
Q 18.109375 17.390625 22.1875 11.75 
Q 26.265625 6.109375 33.40625 6.109375 
Q 40.53125 6.109375 44.609375 11.75 
Q 48.6875 17.390625 48.6875 27.296875 
z
M 18.109375 46.390625 
Q 20.953125 51.265625 25.265625 53.625 
Q 29.59375 56 35.59375 56 
Q 45.5625 56 51.78125 48.09375 
Q 58.015625 40.1875 58.015625 27.296875 
Q 58.015625 14.40625 51.78125 6.484375 
Q 45.5625 -1.421875 35.59375 -1.421875 
Q 29.59375 -1.421875 25.265625 0.953125 
Q 20.953125 3.328125 18.109375 8.203125 
L 18.109375 0 
L 9.078125 0 
L 9.078125 75.984375 
L 18.109375 75.984375 
z
" id="DejaVuSans-98"/>
    </defs>
    <g transform="translate(293.857437 46.402297)scale(0.18 -0.18)">
     <use xlink:href="#DejaVuSans-72"/>
     <use x="75.195312" xlink:href="#DejaVuSans-65"/>
     <use x="143.494141" xlink:href="#DejaVuSans-84"/>
     <use x="204.4375" xlink:href="#DejaVuSans-45"/>
     <use x="240.521484" xlink:href="#DejaVuSans-80"/>
     <use x="300.792969" xlink:href="#DejaVuSans-45"/>
     <use x="336.876953" xlink:href="#DejaVuSans-49"/>
     <use x="400.5" xlink:href="#DejaVuSans-55"/>
     <use x="464.123047" xlink:href="#DejaVuSans-98"/>
     <use x="527.599609" xlink:href="#DejaVuSans-32"/>
    </g>
    <!-- 9.0$\times$$10^7$ erg/s/cm$^2$  -->
    <defs>
     <path d="M 70.125 53.71875 
L 47.796875 31.296875 
L 70.125 8.984375 
L 64.3125 3.078125 
L 41.890625 25.484375 
L 19.484375 3.078125 
L 13.71875 8.984375 
L 35.984375 31.296875 
L 13.71875 53.71875 
L 19.484375 59.625 
L 41.890625 37.203125 
L 64.3125 59.625 
z
" id="DejaVuSans-215"/>
     <path d="M 56.203125 29.59375 
L 56.203125 25.203125 
L 14.890625 25.203125 
Q 15.484375 15.921875 20.484375 11.0625 
Q 25.484375 6.203125 34.421875 6.203125 
Q 39.59375 6.203125 44.453125 7.46875 
Q 49.3125 8.734375 54.109375 11.28125 
L 54.109375 2.78125 
Q 49.265625 0.734375 44.1875 -0.34375 
Q 39.109375 -1.421875 33.890625 -1.421875 
Q 20.796875 -1.421875 13.15625 6.1875 
Q 5.515625 13.8125 5.515625 26.8125 
Q 5.515625 40.234375 12.765625 48.109375 
Q 20.015625 56 32.328125 56 
Q 43.359375 56 49.78125 48.890625 
Q 56.203125 41.796875 56.203125 29.59375 
z
M 47.21875 32.234375 
Q 47.125 39.59375 43.09375 43.984375 
Q 39.0625 48.390625 32.421875 48.390625 
Q 24.90625 48.390625 20.390625 44.140625 
Q 15.875 39.890625 15.1875 32.171875 
z
" id="DejaVuSans-101"/>
     <path d="M 41.109375 46.296875 
Q 39.59375 47.171875 37.8125 47.578125 
Q 36.03125 48 33.890625 48 
Q 26.265625 48 22.1875 43.046875 
Q 18.109375 38.09375 18.109375 28.8125 
L 18.109375 0 
L 9.078125 0 
L 9.078125 54.6875 
L 18.109375 54.6875 
L 18.109375 46.1875 
Q 20.953125 51.171875 25.484375 53.578125 
Q 30.03125 56 36.53125 56 
Q 37.453125 56 38.578125 55.875 
Q 39.703125 55.765625 41.0625 55.515625 
z
" id="DejaVuSans-114"/>
     <path d="M 45.40625 27.984375 
Q 45.40625 37.75 41.375 43.109375 
Q 37.359375 48.484375 30.078125 48.484375 
Q 22.859375 48.484375 18.828125 43.109375 
Q 14.796875 37.75 14.796875 27.984375 
Q 14.796875 18.265625 18.828125 12.890625 
Q 22.859375 7.515625 30.078125 7.515625 
Q 37.359375 7.515625 41.375 12.890625 
Q 45.40625 18.265625 45.40625 27.984375 
z
M 54.390625 6.78125 
Q 54.390625 -7.171875 48.1875 -13.984375 
Q 42 -20.796875 29.203125 -20.796875 
Q 24.46875 -20.796875 20.265625 -20.09375 
Q 16.0625 -19.390625 12.109375 -17.921875 
L 12.109375 -9.1875 
Q 16.0625 -11.328125 19.921875 -12.34375 
Q 23.78125 -13.375 27.78125 -13.375 
Q 36.625 -13.375 41.015625 -8.765625 
Q 45.40625 -4.15625 45.40625 5.171875 
L 45.40625 9.625 
Q 42.625 4.78125 38.28125 2.390625 
Q 33.9375 0 27.875 0 
Q 17.828125 0 11.671875 7.65625 
Q 5.515625 15.328125 5.515625 27.984375 
Q 5.515625 40.671875 11.671875 48.328125 
Q 17.828125 56 27.875 56 
Q 33.9375 56 38.28125 53.609375 
Q 42.625 51.21875 45.40625 46.390625 
L 45.40625 54.6875 
L 54.390625 54.6875 
z
" id="DejaVuSans-103"/>
     <path d="M 25.390625 72.90625 
L 33.6875 72.90625 
L 8.296875 -9.28125 
L 0 -9.28125 
z
" id="DejaVuSans-47"/>
     <path d="M 48.78125 52.59375 
L 48.78125 44.1875 
Q 44.96875 46.296875 41.140625 47.34375 
Q 37.3125 48.390625 33.40625 48.390625 
Q 24.65625 48.390625 19.8125 42.84375 
Q 14.984375 37.3125 14.984375 27.296875 
Q 14.984375 17.28125 19.8125 11.734375 
Q 24.65625 6.203125 33.40625 6.203125 
Q 37.3125 6.203125 41.140625 7.25 
Q 44.96875 8.296875 48.78125 10.40625 
L 48.78125 2.09375 
Q 45.015625 0.34375 40.984375 -0.53125 
Q 36.96875 -1.421875 32.421875 -1.421875 
Q 20.0625 -1.421875 12.78125 6.34375 
Q 5.515625 14.109375 5.515625 27.296875 
Q 5.515625 40.671875 12.859375 48.328125 
Q 20.21875 56 33.015625 56 
Q 37.15625 56 41.109375 55.140625 
Q 45.0625 54.296875 48.78125 52.59375 
z
" id="DejaVuSans-99"/>
     <path d="M 52 44.1875 
Q 55.375 50.25 60.0625 53.125 
Q 64.75 56 71.09375 56 
Q 79.640625 56 84.28125 50.015625 
Q 88.921875 44.046875 88.921875 33.015625 
L 88.921875 0 
L 79.890625 0 
L 79.890625 32.71875 
Q 79.890625 40.578125 77.09375 44.375 
Q 74.3125 48.1875 68.609375 48.1875 
Q 61.625 48.1875 57.5625 43.546875 
Q 53.515625 38.921875 53.515625 30.90625 
L 53.515625 0 
L 44.484375 0 
L 44.484375 32.71875 
Q 44.484375 40.625 41.703125 44.40625 
Q 38.921875 48.1875 33.109375 48.1875 
Q 26.21875 48.1875 22.15625 43.53125 
Q 18.109375 38.875 18.109375 30.90625 
L 18.109375 0 
L 9.078125 0 
L 9.078125 54.6875 
L 18.109375 54.6875 
L 18.109375 46.1875 
Q 21.1875 51.21875 25.484375 53.609375 
Q 29.78125 56 35.6875 56 
Q 41.65625 56 45.828125 52.96875 
Q 50 49.953125 52 44.1875 
z
" id="DejaVuSans-109"/>
    </defs>
    <g transform="translate(220.124937 69.801734)scale(0.18 -0.18)">
     <use transform="translate(0 0.765625)" xlink:href="#DejaVuSans-57"/>
     <use transform="translate(63.623047 0.765625)" xlink:href="#DejaVuSans-46"/>
     <use transform="translate(95.410156 0.765625)" xlink:href="#DejaVuSans-48"/>
     <use transform="translate(159.033203 0.765625)" xlink:href="#DejaVuSans-215"/>
     <use transform="translate(242.822266 0.765625)" xlink:href="#DejaVuSans-49"/>
     <use transform="translate(306.445312 0.765625)" xlink:href="#DejaVuSans-48"/>
     <use transform="translate(371.025391 39.046875)scale(0.7)" xlink:href="#DejaVuSans-55"/>
     <use transform="translate(418.295898 0.765625)" xlink:href="#DejaVuSans-32"/>
     <use transform="translate(450.083008 0.765625)" xlink:href="#DejaVuSans-101"/>
     <use transform="translate(511.606445 0.765625)" xlink:href="#DejaVuSans-114"/>
     <use transform="translate(552.719727 0.765625)" xlink:href="#DejaVuSans-103"/>
     <use transform="translate(616.196289 0.765625)" xlink:href="#DejaVuSans-47"/>
     <use transform="translate(649.887695 0.765625)" xlink:href="#DejaVuSans-115"/>
     <use transform="translate(701.987305 0.765625)" xlink:href="#DejaVuSans-47"/>
     <use transform="translate(735.678711 0.765625)" xlink:href="#DejaVuSans-99"/>
     <use transform="translate(790.65918 0.765625)" xlink:href="#DejaVuSans-109"/>
     <use transform="translate(889.02832 39.046875)scale(0.7)" xlink:href="#DejaVuSans-50"/>
     <use transform="translate(936.298828 0.765625)" xlink:href="#DejaVuSans-32"/>
    </g>
    <!-- 0.5 $M_J$ -->
    <defs>
     <path d="M 10.796875 72.90625 
L 49.515625 72.90625 
L 49.515625 64.59375 
L 19.828125 64.59375 
L 19.828125 46.734375 
Q 21.96875 47.46875 24.109375 47.828125 
Q 26.265625 48.1875 28.421875 48.1875 
Q 40.625 48.1875 47.75 41.5 
Q 54.890625 34.8125 54.890625 23.390625 
Q 54.890625 11.625 47.5625 5.09375 
Q 40.234375 -1.421875 26.90625 -1.421875 
Q 22.3125 -1.421875 17.546875 -0.640625 
Q 12.796875 0.140625 7.71875 1.703125 
L 7.71875 11.625 
Q 12.109375 9.234375 16.796875 8.0625 
Q 21.484375 6.890625 26.703125 6.890625 
Q 35.15625 6.890625 40.078125 11.328125 
Q 45.015625 15.765625 45.015625 23.390625 
Q 45.015625 31 40.078125 35.4375 
Q 35.15625 39.890625 26.703125 39.890625 
Q 22.75 39.890625 18.8125 39.015625 
Q 14.890625 38.140625 10.796875 36.28125 
z
" id="DejaVuSans-53"/>
     <path d="M 16.890625 72.90625 
L 31.6875 72.90625 
L 40.1875 23.78125 
L 68.40625 72.90625 
L 83.59375 72.90625 
L 69.390625 0 
L 59.8125 0 
L 72.21875 63.921875 
L 43.609375 14.015625 
L 33.984375 14.015625 
L 24.703125 64.109375 
L 12.3125 0 
L 2.6875 0 
z
" id="DejaVuSans-Oblique-77"/>
    </defs>
    <g transform="translate(340.364937 89.994359)scale(0.18 -0.18)">
     <use transform="translate(0 0.78125)" xlink:href="#DejaVuSans-48"/>
     <use transform="translate(63.623047 0.78125)" xlink:href="#DejaVuSans-46"/>
     <use transform="translate(95.410156 0.78125)" xlink:href="#DejaVuSans-53"/>
     <use transform="translate(159.033203 0.78125)" xlink:href="#DejaVuSans-32"/>
     <use transform="translate(190.820312 0.78125)" xlink:href="#DejaVuSans-Oblique-77"/>
     <use transform="translate(277.099609 -15.625)scale(0.7)" xlink:href="#DejaVuSans-Oblique-74"/>
    </g>
   </g>
  </g>
  <g id="axes_2">
   <g id="patch_7">
    <path d="M 465.577812 283.165026 
L 811.431563 283.165026 
L 811.431563 15.178359 
L 465.577812 15.178359 
z
" style="fill:none;"/>
   </g>
   <g id="matplotlib.axis_3">
    <g id="xtick_4">
     <g id="line2d_10">
      <g>
       <use style="fill:#3f3d46;stroke:#3f3d46;" x="465.577812" xlink:href="#me6fc3141ee" y="283.165026"/>
      </g>
     </g>
    </g>
    <g id="xtick_5">
     <g id="line2d_11">
      <g>
       <use style="fill:#3f3d46;stroke:#3f3d46;" x="589.097009" xlink:href="#me6fc3141ee" y="283.165026"/>
      </g>
     </g>
    </g>
    <g id="xtick_6">
     <g id="line2d_12">
      <g>
       <use style="fill:#3f3d46;stroke:#3f3d46;" x="712.616205" xlink:href="#me6fc3141ee" y="283.165026"/>
      </g>
     </g>
    </g>
   </g>
   <g id="matplotlib.axis_4">
    <g id="ytick_5">
     <g id="line2d_13">
      <g>
       <use style="fill:#3f3d46;stroke:#3f3d46;" x="465.577812" xlink:href="#m944bf7c8d8" y="283.165026"/>
      </g>
     </g>
    </g>
    <g id="ytick_6">
     <g id="line2d_14">
      <g>
       <use style="fill:#3f3d46;stroke:#3f3d46;" x="465.577812" xlink:href="#m944bf7c8d8" y="193.836137"/>
      </g>
     </g>
    </g>
    <g id="ytick_7">
     <g id="line2d_15">
      <g>
       <use style="fill:#3f3d46;stroke:#3f3d46;" x="465.577812" xlink:href="#m944bf7c8d8" y="104.507248"/>
      </g>
     </g>
    </g>
    <g id="ytick_8">
     <g id="line2d_16">
      <g>
       <use style="fill:#3f3d46;stroke:#3f3d46;" x="465.577812" xlink:href="#m944bf7c8d8" y="15.178359"/>
      </g>
     </g>
    </g>
   </g>
   <g id="LineCollection_3">
    <path clip-path="url(#pcf212c5961)" d="M 613.800848 238.500582 
L 825.631562 238.500582 
" style="fill:none;stroke:#000000;stroke-opacity:0.3;stroke-width:3;"/>
   </g>
   <g id="LineCollection_4">
    <path clip-path="url(#pcf212c5961)" d="M 747.20158 274.232137 
L 747.20158 202.769026 
" style="fill:none;stroke:#000000;stroke-opacity:0.3;stroke-width:3;"/>
   </g>
   <g id="line2d_17">
    <path clip-path="url(#pcf212c5961)" d="M 468.877415 -1 
L 469.362672 11.276846 
L 470.315793 32.575339 
L 470.821065 41.130456 
L 472.181232 59.057238 
L 472.96448 68.657169 
L 473.793937 76.822554 
L 475.954847 92.988428 
L 477.215886 101.603992 
L 478.580987 108.719813 
L 482.149258 124.280223 
L 484.150146 131.84314 
L 486.392677 138.707074 
L 488.988094 146.143979 
L 491.751874 153.307064 
L 494.793984 159.752304 
L 498.277557 166.827319 
L 501.999417 173.151772 
L 506.164121 179.654069 
L 510.694375 185.732307 
L 515.761365 192.111903 
L 521.117371 197.709575 
L 534.036407 209.47985 
L 541.1754 214.348352 
L 549.33601 221.108739 
L 556.803999 228.207173 
L 569.062085 240.731781 
L 574.695335 243.823912 
L 582.400955 245.239513 
L 593.497048 246.826464 
L 609.475423 249.380457 
L 631.301347 254.034196 
L 655.240132 258.043062 
L 683.119954 262.125908 
L 714.826155 266.020697 
L 751.151892 269.972839 
L 791.494481 273.890456 
L 811.431563 275.609881 
L 811.431563 275.609881 
" style="fill:none;stroke:#ffbc79;stroke-linecap:square;stroke-width:3;"/>
   </g>
   <g id="line2d_18">
    <g clip-path="url(#pcf212c5961)">
     <use style="fill-opacity:0.3;" x="747.20158" xlink:href="#m904bc0f41d" y="238.500582"/>
    </g>
   </g>
   <g id="patch_8">
    <path d="M 465.577812 283.165026 
L 465.577812 15.178359 
" style="fill:none;stroke:#6a737d;stroke-linecap:square;stroke-linejoin:miter;stroke-width:1.4;"/>
   </g>
   <g id="patch_9">
    <path d="M 811.431563 283.165026 
L 811.431563 15.178359 
" style="fill:none;stroke:#6a737d;stroke-linecap:square;stroke-linejoin:miter;stroke-width:1.4;"/>
   </g>
   <g id="patch_10">
    <path d="M 465.577812 283.165026 
L 811.431563 283.165026 
" style="fill:none;stroke:#6a737d;stroke-linecap:square;stroke-linejoin:miter;stroke-width:1.4;"/>
   </g>
   <g id="patch_11">
    <path d="M 465.577812 15.178359 
L 811.431563 15.178359 
" style="fill:none;stroke:#6a737d;stroke-linecap:square;stroke-linejoin:miter;stroke-width:1.4;"/>
   </g>
   <g id="text_7">
    <!-- HAT-P-18b  -->
    <defs>
     <path d="M 31.78125 34.625 
Q 24.75 34.625 20.71875 30.859375 
Q 16.703125 27.09375 16.703125 20.515625 
Q 16.703125 13.921875 20.71875 10.15625 
Q 24.75 6.390625 31.78125 6.390625 
Q 38.8125 6.390625 42.859375 10.171875 
Q 46.921875 13.96875 46.921875 20.515625 
Q 46.921875 27.09375 42.890625 30.859375 
Q 38.875 34.625 31.78125 34.625 
z
M 21.921875 38.8125 
Q 15.578125 40.375 12.03125 44.71875 
Q 8.5 49.078125 8.5 55.328125 
Q 8.5 64.0625 14.71875 69.140625 
Q 20.953125 74.21875 31.78125 74.21875 
Q 42.671875 74.21875 48.875 69.140625 
Q 55.078125 64.0625 55.078125 55.328125 
Q 55.078125 49.078125 51.53125 44.71875 
Q 48 40.375 41.703125 38.8125 
Q 48.828125 37.15625 52.796875 32.3125 
Q 56.78125 27.484375 56.78125 20.515625 
Q 56.78125 9.90625 50.3125 4.234375 
Q 43.84375 -1.421875 31.78125 -1.421875 
Q 19.734375 -1.421875 13.25 4.234375 
Q 6.78125 9.90625 6.78125 20.515625 
Q 6.78125 27.484375 10.78125 32.3125 
Q 14.796875 37.15625 21.921875 38.8125 
z
M 18.3125 54.390625 
Q 18.3125 48.734375 21.84375 45.5625 
Q 25.390625 42.390625 31.78125 42.390625 
Q 38.140625 42.390625 41.71875 45.5625 
Q 45.3125 48.734375 45.3125 54.390625 
Q 45.3125 60.0625 41.71875 63.234375 
Q 38.140625 66.40625 31.78125 66.40625 
Q 25.390625 66.40625 21.84375 63.234375 
Q 18.3125 60.0625 18.3125 54.390625 
z
" id="DejaVuSans-56"/>
    </defs>
    <g transform="translate(676.158688 46.402297)scale(0.18 -0.18)">
     <use xlink:href="#DejaVuSans-72"/>
     <use x="75.195312" xlink:href="#DejaVuSans-65"/>
     <use x="143.494141" xlink:href="#DejaVuSans-84"/>
     <use x="204.4375" xlink:href="#DejaVuSans-45"/>
     <use x="240.521484" xlink:href="#DejaVuSans-80"/>
     <use x="300.792969" xlink:href="#DejaVuSans-45"/>
     <use x="336.876953" xlink:href="#DejaVuSans-49"/>
     <use x="400.5" xlink:href="#DejaVuSans-56"/>
     <use x="464.123047" xlink:href="#DejaVuSans-98"/>
     <use x="527.599609" xlink:href="#DejaVuSans-32"/>
    </g>
    <!-- 1.2$\times$$10^8$ erg/s/cm$^2$  -->
    <g transform="translate(602.426188 69.801734)scale(0.18 -0.18)">
     <use transform="translate(0 0.765625)" xlink:href="#DejaVuSans-49"/>
     <use transform="translate(63.623047 0.765625)" xlink:href="#DejaVuSans-46"/>
     <use transform="translate(95.332031 0.765625)" xlink:href="#DejaVuSans-50"/>
     <use transform="translate(158.955078 0.765625)" xlink:href="#DejaVuSans-215"/>
     <use transform="translate(242.744141 0.765625)" xlink:href="#DejaVuSans-49"/>
     <use transform="translate(306.367188 0.765625)" xlink:href="#DejaVuSans-48"/>
     <use transform="translate(370.947266 39.046875)scale(0.7)" xlink:href="#DejaVuSans-56"/>
     <use transform="translate(418.217773 0.765625)" xlink:href="#DejaVuSans-32"/>
     <use transform="translate(450.004883 0.765625)" xlink:href="#DejaVuSans-101"/>
     <use transform="translate(511.52832 0.765625)" xlink:href="#DejaVuSans-114"/>
     <use transform="translate(552.641602 0.765625)" xlink:href="#DejaVuSans-103"/>
     <use transform="translate(616.118164 0.765625)" xlink:href="#DejaVuSans-47"/>
     <use transform="translate(649.80957 0.765625)" xlink:href="#DejaVuSans-115"/>
     <use transform="translate(701.90918 0.765625)" xlink:href="#DejaVuSans-47"/>
     <use transform="translate(735.600586 0.765625)" xlink:href="#DejaVuSans-99"/>
     <use transform="translate(790.581055 0.765625)" xlink:href="#DejaVuSans-109"/>
     <use transform="translate(888.950195 39.046875)scale(0.7)" xlink:href="#DejaVuSans-50"/>
     <use transform="translate(936.220703 0.765625)" xlink:href="#DejaVuSans-32"/>
    </g>
    <!-- 0.2 $M_J$ -->
    <g transform="translate(722.666187 89.994359)scale(0.18 -0.18)">
     <use transform="translate(0 0.78125)" xlink:href="#DejaVuSans-48"/>
     <use transform="translate(63.623047 0.78125)" xlink:href="#DejaVuSans-46"/>
     <use transform="translate(95.332031 0.78125)" xlink:href="#DejaVuSans-50"/>
     <use transform="translate(158.955078 0.78125)" xlink:href="#DejaVuSans-32"/>
     <use transform="translate(190.742188 0.78125)" xlink:href="#DejaVuSans-Oblique-77"/>
     <use transform="translate(277.021484 -15.625)scale(0.7)" xlink:href="#DejaVuSans-Oblique-74"/>
    </g>
   </g>
  </g>
  <g id="axes_3">
   <g id="patch_12">
    <path d="M 83.276563 594.911693 
L 429.130312 594.911693 
L 429.130312 326.925026 
L 83.276563 326.925026 
z
" style="fill:none;"/>
   </g>
   <g id="matplotlib.axis_5">
    <g id="xtick_7">
     <g id="line2d_19">
      <g>
       <use style="fill:#3f3d46;stroke:#3f3d46;" x="83.276563" xlink:href="#me6fc3141ee" y="594.911693"/>
      </g>
     </g>
    </g>
    <g id="xtick_8">
     <g id="line2d_20">
      <g>
       <use style="fill:#3f3d46;stroke:#3f3d46;" x="206.795759" xlink:href="#me6fc3141ee" y="594.911693"/>
      </g>
     </g>
    </g>
    <g id="xtick_9">
     <g id="line2d_21">
      <g>
       <use style="fill:#3f3d46;stroke:#3f3d46;" x="330.314955" xlink:href="#me6fc3141ee" y="594.911693"/>
      </g>
     </g>
    </g>
   </g>
   <g id="matplotlib.axis_6">
    <g id="ytick_9">
     <g id="line2d_22">
      <g>
       <use style="fill:#3f3d46;stroke:#3f3d46;" x="83.276563" xlink:href="#m944bf7c8d8" y="594.911693"/>
      </g>
     </g>
     <g id="text_8">
      <!-- 0.9 -->
      <g style="fill:#3f3d46;" transform="translate(36.88 602.890052)scale(0.21 -0.21)">
       <use xlink:href="#DejaVuSans-48"/>
       <use x="63.623047" xlink:href="#DejaVuSans-46"/>
       <use x="95.410156" xlink:href="#DejaVuSans-57"/>
      </g>
     </g>
    </g>
    <g id="ytick_10">
     <g id="line2d_23">
      <g>
       <use style="fill:#3f3d46;stroke:#3f3d46;" x="83.276563" xlink:href="#m944bf7c8d8" y="505.582804"/>
      </g>
     </g>
     <g id="text_9">
      <!-- 1.0 -->
      <g style="fill:#3f3d46;" transform="translate(36.88 513.561163)scale(0.21 -0.21)">
       <use xlink:href="#DejaVuSans-49"/>
       <use x="63.623047" xlink:href="#DejaVuSans-46"/>
       <use x="95.410156" xlink:href="#DejaVuSans-48"/>
      </g>
     </g>
    </g>
    <g id="ytick_11">
     <g id="line2d_24">
      <g>
       <use style="fill:#3f3d46;stroke:#3f3d46;" x="83.276563" xlink:href="#m944bf7c8d8" y="416.253915"/>
      </g>
     </g>
     <g id="text_10">
      <!-- 1.1 -->
      <g style="fill:#3f3d46;" transform="translate(36.88 424.232274)scale(0.21 -0.21)">
       <use xlink:href="#DejaVuSans-49"/>
       <use x="63.623047" xlink:href="#DejaVuSans-46"/>
       <use x="95.410156" xlink:href="#DejaVuSans-49"/>
      </g>
     </g>
    </g>
    <g id="ytick_12">
     <g id="line2d_25">
      <g>
       <use style="fill:#3f3d46;stroke:#3f3d46;" x="83.276563" xlink:href="#m944bf7c8d8" y="326.925026"/>
      </g>
     </g>
     <g id="text_11">
      <!-- 1.2 -->
      <g style="fill:#3f3d46;" transform="translate(36.88 334.903385)scale(0.21 -0.21)">
       <use xlink:href="#DejaVuSans-49"/>
       <use x="63.623047" xlink:href="#DejaVuSans-46"/>
       <use x="95.410156" xlink:href="#DejaVuSans-50"/>
      </g>
     </g>
    </g>
    <g id="text_12">
     <!-- Radius  [$R_J$] -->
     <g style="fill:#3f3d46;" transform="translate(25.44 529.558359)rotate(-90)scale(0.24 -0.24)">
      <use transform="translate(0 0.015625)" xlink:href="#DejaVuSans-82"/>
      <use transform="translate(69.482422 0.015625)" xlink:href="#DejaVuSans-97"/>
      <use transform="translate(130.761719 0.015625)" xlink:href="#DejaVuSans-100"/>
      <use transform="translate(194.238281 0.015625)" xlink:href="#DejaVuSans-105"/>
      <use transform="translate(222.021484 0.015625)" xlink:href="#DejaVuSans-117"/>
      <use transform="translate(285.400391 0.015625)" xlink:href="#DejaVuSans-115"/>
      <use transform="translate(337.5 0.015625)" xlink:href="#DejaVuSans-32"/>
      <use transform="translate(369.287109 0.015625)" xlink:href="#DejaVuSans-32"/>
      <use transform="translate(401.074219 0.015625)" xlink:href="#DejaVuSans-91"/>
      <use transform="translate(440.087891 0.015625)" xlink:href="#DejaVuSans-Oblique-82"/>
      <use transform="translate(509.570312 -16.390625)scale(0.7)" xlink:href="#DejaVuSans-Oblique-74"/>
      <use transform="translate(532.949219 0.015625)" xlink:href="#DejaVuSans-93"/>
     </g>
    </g>
   </g>
   <g id="LineCollection_5">
    <path clip-path="url(#p0f4ef9d1ff)" d="M 174.680768 523.448582 
L 187.032688 523.448582 
" style="fill:none;stroke:#000000;stroke-opacity:0.3;stroke-width:3;"/>
   </g>
   <g id="LineCollection_6">
    <path clip-path="url(#p0f4ef9d1ff)" d="M 180.856728 532.38147 
L 180.856728 514.515693 
" style="fill:none;stroke:#000000;stroke-opacity:0.3;stroke-width:3;"/>
   </g>
   <g id="line2d_26">
    <path clip-path="url(#p0f4ef9d1ff)" d="M 83.276563 340.429348 
L 83.276563 339.20133 
L 83.276563 338.304673 
L 83.276563 337.485743 
L 83.276563 336.703253 
L 83.276563 335.936549 
L 83.276563 335.174118 
L 83.276563 334.400937 
L 83.276563 333.617928 
L 83.276563 332.815669 
L 83.276563 332.018741 
L 83.276563 331.185959 
L 83.276563 330.305753 
L 83.276563 329.416349 
L 83.276563 328.526466 
L 83.276563 327.61346 
L 83.276563 326.671012 
L 83.276563 325.719769 
L 83.276563 324.753609 
L 83.276563 323.714599 
L 83.276563 322.64891 
L 83.276563 321.583158 
L 83.276563 320.481324 
L 83.276563 319.319863 
L 83.276563 318.104815 
L 83.276563 316.855075 
L 83.276563 315.590007 
L 83.276563 314.325456 
L 83.276563 313.074824 
L 83.276564 311.850192 
L 83.276564 310.658126 
L 83.276565 309.504177 
L 83.276566 308.396384 
L 83.276567 307.336589 
L 83.276569 306.328023 
L 83.276571 305.369708 
L 83.276575 304.460558 
L 83.276581 303.601404 
L 83.276589 302.797044 
L 83.276601 302.058086 
L 83.276618 301.402491 
L 83.276642 300.851842 
L 83.276677 300.431183 
L 83.276727 300.158392 
L 83.2768 300.040783 
L 83.276904 300.076894 
L 83.277055 300.245045 
L 83.277272 300.497388 
L 83.277584 300.7843 
L 83.278033 301.092537 
L 83.27868 301.433142 
L 83.279611 301.806473 
L 83.280953 302.239869 
L 83.282885 302.734618 
L 83.285667 303.296467 
L 83.289672 303.917949 
L 83.295441 304.613623 
L 83.303747 305.374957 
L 83.315708 306.265508 
L 83.332932 307.298477 
L 83.357735 307.849639 
L 83.39345 308.841197 
L 83.444881 310.269837 
L 83.518941 312.306029 
L 83.625588 315.119772 
L 83.779159 318.807312 
L 84.000301 323.408496 
L 84.318746 329.069385 
L 84.777307 336.190748 
L 85.413673 345.662611 
L 86.135464 356.024652 
L 86.917247 365.310888 
L 87.828879 373.676734 
L 88.914792 382.726982 
L 90.105863 392.375438 
L 91.384529 400.410248 
L 92.907653 408.278783 
L 94.670656 416.980948 
L 96.544306 425.466537 
L 98.612426 432.923843 
L 101.016711 440.788107 
L 103.607149 448.828893 
L 106.382548 455.732665 
L 109.591704 463.165236 
L 113.082114 470.321115 
L 116.880061 477.116805 
L 121.046423 483.801813 
L 125.692077 490.373807 
L 130.699361 496.915335 
L 136.18705 502.464324 
L 142.482454 509.247313 
L 149.027378 514.624521 
L 156.46285 520.79442 
L 164.229568 528.11889 
L 171.775873 535.756046 
L 178.989698 542.997849 
L 185.966145 548.94313 
L 194.251642 551.122861 
L 206.182757 553.027509 
L 223.363562 556.227363 
L 245.945381 561.398031 
L 270.142261 565.793454 
L 297.756952 570.102728 
L 329.136508 574.229892 
L 364.761507 578.415978 
L 404.176265 582.502716 
L 429.130312 584.81209 
" style="fill:none;stroke:#ffbc79;stroke-linecap:square;stroke-width:3;"/>
   </g>
   <g id="line2d_27">
    <g clip-path="url(#p0f4ef9d1ff)">
     <use style="fill-opacity:0.3;" x="180.856728" xlink:href="#m904bc0f41d" y="523.448582"/>
    </g>
   </g>
   <g id="patch_13">
    <path d="M 83.276563 594.911693 
L 83.276563 326.925026 
" style="fill:none;stroke:#6a737d;stroke-linecap:square;stroke-linejoin:miter;stroke-width:1.4;"/>
   </g>
   <g id="patch_14">
    <path d="M 429.130312 594.911693 
L 429.130312 326.925026 
" style="fill:none;stroke:#6a737d;stroke-linecap:square;stroke-linejoin:miter;stroke-width:1.4;"/>
   </g>
   <g id="patch_15">
    <path d="M 83.276563 594.911693 
L 429.130312 594.911693 
" style="fill:none;stroke:#6a737d;stroke-linecap:square;stroke-linejoin:miter;stroke-width:1.4;"/>
   </g>
   <g id="patch_16">
    <path d="M 83.276563 326.925026 
L 429.130312 326.925026 
" style="fill:none;stroke:#6a737d;stroke-linecap:square;stroke-linejoin:miter;stroke-width:1.4;"/>
   </g>
   <g id="text_13">
    <!-- Kepler-89d  -->
    <defs>
     <path d="M 9.8125 72.90625 
L 19.671875 72.90625 
L 19.671875 42.09375 
L 52.390625 72.90625 
L 65.09375 72.90625 
L 28.90625 38.921875 
L 67.671875 0 
L 54.6875 0 
L 19.671875 35.109375 
L 19.671875 0 
L 9.8125 0 
z
" id="DejaVuSans-75"/>
     <path d="M 18.109375 8.203125 
L 18.109375 -20.796875 
L 9.078125 -20.796875 
L 9.078125 54.6875 
L 18.109375 54.6875 
L 18.109375 46.390625 
Q 20.953125 51.265625 25.265625 53.625 
Q 29.59375 56 35.59375 56 
Q 45.5625 56 51.78125 48.09375 
Q 58.015625 40.1875 58.015625 27.296875 
Q 58.015625 14.40625 51.78125 6.484375 
Q 45.5625 -1.421875 35.59375 -1.421875 
Q 29.59375 -1.421875 25.265625 0.953125 
Q 20.953125 3.328125 18.109375 8.203125 
z
M 48.6875 27.296875 
Q 48.6875 37.203125 44.609375 42.84375 
Q 40.53125 48.484375 33.40625 48.484375 
Q 26.265625 48.484375 22.1875 42.84375 
Q 18.109375 37.203125 18.109375 27.296875 
Q 18.109375 17.390625 22.1875 11.75 
Q 26.265625 6.109375 33.40625 6.109375 
Q 40.53125 6.109375 44.609375 11.75 
Q 48.6875 17.390625 48.6875 27.296875 
z
" id="DejaVuSans-112"/>
     <path d="M 9.421875 75.984375 
L 18.40625 75.984375 
L 18.40625 0 
L 9.421875 0 
z
" id="DejaVuSans-108"/>
    </defs>
    <g transform="translate(290.246187 358.148964)scale(0.18 -0.18)">
     <use xlink:href="#DejaVuSans-75"/>
     <use x="65.498047" xlink:href="#DejaVuSans-101"/>
     <use x="127.021484" xlink:href="#DejaVuSans-112"/>
     <use x="190.498047" xlink:href="#DejaVuSans-108"/>
     <use x="218.28125" xlink:href="#DejaVuSans-101"/>
     <use x="279.804688" xlink:href="#DejaVuSans-114"/>
     <use x="320.824219" xlink:href="#DejaVuSans-45"/>
     <use x="356.908203" xlink:href="#DejaVuSans-56"/>
     <use x="420.53125" xlink:href="#DejaVuSans-57"/>
     <use x="484.154297" xlink:href="#DejaVuSans-100"/>
     <use x="547.630859" xlink:href="#DejaVuSans-32"/>
    </g>
    <!-- 1.6$\times$$10^8$ erg/s/cm$^2$  -->
    <defs>
     <path d="M 33.015625 40.375 
Q 26.375 40.375 22.484375 35.828125 
Q 18.609375 31.296875 18.609375 23.390625 
Q 18.609375 15.53125 22.484375 10.953125 
Q 26.375 6.390625 33.015625 6.390625 
Q 39.65625 6.390625 43.53125 10.953125 
Q 47.40625 15.53125 47.40625 23.390625 
Q 47.40625 31.296875 43.53125 35.828125 
Q 39.65625 40.375 33.015625 40.375 
z
M 52.59375 71.296875 
L 52.59375 62.3125 
Q 48.875 64.0625 45.09375 64.984375 
Q 41.3125 65.921875 37.59375 65.921875 
Q 27.828125 65.921875 22.671875 59.328125 
Q 17.53125 52.734375 16.796875 39.40625 
Q 19.671875 43.65625 24.015625 45.921875 
Q 28.375 48.1875 33.59375 48.1875 
Q 44.578125 48.1875 50.953125 41.515625 
Q 57.328125 34.859375 57.328125 23.390625 
Q 57.328125 12.15625 50.6875 5.359375 
Q 44.046875 -1.421875 33.015625 -1.421875 
Q 20.359375 -1.421875 13.671875 8.265625 
Q 6.984375 17.96875 6.984375 36.375 
Q 6.984375 53.65625 15.1875 63.9375 
Q 23.390625 74.21875 37.203125 74.21875 
Q 40.921875 74.21875 44.703125 73.484375 
Q 48.484375 72.75 52.59375 71.296875 
z
" id="DejaVuSans-54"/>
    </defs>
    <g transform="translate(220.124937 381.548401)scale(0.18 -0.18)">
     <use transform="translate(0 0.765625)" xlink:href="#DejaVuSans-49"/>
     <use transform="translate(63.623047 0.765625)" xlink:href="#DejaVuSans-46"/>
     <use transform="translate(95.410156 0.765625)" xlink:href="#DejaVuSans-54"/>
     <use transform="translate(159.033203 0.765625)" xlink:href="#DejaVuSans-215"/>
     <use transform="translate(242.822266 0.765625)" xlink:href="#DejaVuSans-49"/>
     <use transform="translate(306.445312 0.765625)" xlink:href="#DejaVuSans-48"/>
     <use transform="translate(371.025391 39.046875)scale(0.7)" xlink:href="#DejaVuSans-56"/>
     <use transform="translate(418.295898 0.765625)" xlink:href="#DejaVuSans-32"/>
     <use transform="translate(450.083008 0.765625)" xlink:href="#DejaVuSans-101"/>
     <use transform="translate(511.606445 0.765625)" xlink:href="#DejaVuSans-114"/>
     <use transform="translate(552.719727 0.765625)" xlink:href="#DejaVuSans-103"/>
     <use transform="translate(616.196289 0.765625)" xlink:href="#DejaVuSans-47"/>
     <use transform="translate(649.887695 0.765625)" xlink:href="#DejaVuSans-115"/>
     <use transform="translate(701.987305 0.765625)" xlink:href="#DejaVuSans-47"/>
     <use transform="translate(735.678711 0.765625)" xlink:href="#DejaVuSans-99"/>
     <use transform="translate(790.65918 0.765625)" xlink:href="#DejaVuSans-109"/>
     <use transform="translate(889.02832 39.046875)scale(0.7)" xlink:href="#DejaVuSans-50"/>
     <use transform="translate(936.298828 0.765625)" xlink:href="#DejaVuSans-32"/>
    </g>
    <!-- 0.2 $M_J$ -->
    <g transform="translate(340.364937 401.741026)scale(0.18 -0.18)">
     <use transform="translate(0 0.78125)" xlink:href="#DejaVuSans-48"/>
     <use transform="translate(63.623047 0.78125)" xlink:href="#DejaVuSans-46"/>
     <use transform="translate(95.332031 0.78125)" xlink:href="#DejaVuSans-50"/>
     <use transform="translate(158.955078 0.78125)" xlink:href="#DejaVuSans-32"/>
     <use transform="translate(190.742188 0.78125)" xlink:href="#DejaVuSans-Oblique-77"/>
     <use transform="translate(277.021484 -15.625)scale(0.7)" xlink:href="#DejaVuSans-Oblique-74"/>
    </g>
   </g>
  </g>
  <g id="axes_4">
   <g id="patch_17">
    <path d="M 465.577812 594.911693 
L 811.431563 594.911693 
L 811.431563 326.925026 
L 465.577812 326.925026 
z
" style="fill:none;"/>
   </g>
   <g id="matplotlib.axis_7">
    <g id="xtick_10">
     <g id="line2d_28">
      <g>
       <use style="fill:#3f3d46;stroke:#3f3d46;" x="465.577812" xlink:href="#me6fc3141ee" y="594.911693"/>
      </g>
     </g>
    </g>
    <g id="xtick_11">
     <g id="line2d_29">
      <g>
       <use style="fill:#3f3d46;stroke:#3f3d46;" x="589.097009" xlink:href="#me6fc3141ee" y="594.911693"/>
      </g>
     </g>
    </g>
    <g id="xtick_12">
     <g id="line2d_30">
      <g>
       <use style="fill:#3f3d46;stroke:#3f3d46;" x="712.616205" xlink:href="#me6fc3141ee" y="594.911693"/>
      </g>
     </g>
    </g>
   </g>
   <g id="matplotlib.axis_8">
    <g id="ytick_13">
     <g id="line2d_31">
      <g>
       <use style="fill:#3f3d46;stroke:#3f3d46;" x="465.577812" xlink:href="#m944bf7c8d8" y="594.911693"/>
      </g>
     </g>
    </g>
    <g id="ytick_14">
     <g id="line2d_32">
      <g>
       <use style="fill:#3f3d46;stroke:#3f3d46;" x="465.577812" xlink:href="#m944bf7c8d8" y="505.582804"/>
      </g>
     </g>
    </g>
    <g id="ytick_15">
     <g id="line2d_33">
      <g>
       <use style="fill:#3f3d46;stroke:#3f3d46;" x="465.577812" xlink:href="#m944bf7c8d8" y="416.253915"/>
      </g>
     </g>
    </g>
    <g id="ytick_16">
     <g id="line2d_34">
      <g>
       <use style="fill:#3f3d46;stroke:#3f3d46;" x="465.577812" xlink:href="#m944bf7c8d8" y="326.925026"/>
      </g>
     </g>
    </g>
   </g>
   <g id="LineCollection_7">
    <path clip-path="url(#p36390c4623)" d="M 561.922786 416.253915 
L 631.093536 416.253915 
" style="fill:none;stroke:#000000;stroke-opacity:0.3;stroke-width:3;"/>
   </g>
   <g id="LineCollection_8">
    <path clip-path="url(#p36390c4623)" d="M 596.508161 451.98547 
L 596.508161 380.522359 
" style="fill:none;stroke:#000000;stroke-opacity:0.3;stroke-width:3;"/>
   </g>
   <g id="line2d_35">
    <path clip-path="url(#p36390c4623)" d="M 465.637687 -1 
L 465.798918 169.319661 
L 466.061928 233.116001 
L 466.391304 266.999975 
L 466.835314 291.97874 
L 467.344408 309.400246 
L 468.048878 325.483486 
L 468.723098 336.292144 
L 469.531536 346.064919 
L 470.588039 355.555904 
L 471.96246 364.916487 
L 472.756229 369.27857 
L 473.673583 373.538793 
L 474.744267 377.813093 
L 475.955731 382.06569 
L 477.290721 386.014357 
L 478.863648 390.056065 
L 480.711884 394.38979 
L 482.579582 397.970856 
L 484.794581 401.515347 
L 487.621041 405.500536 
L 490.687375 409.336266 
L 493.899129 412.688182 
L 497.753041 416.132441 
L 502.242906 419.621196 
L 507.155101 422.846959 
L 512.983901 426.249747 
L 519.620465 429.691853 
L 526.766792 432.920139 
L 534.892406 436.190812 
L 543.952168 439.414955 
L 553.903749 442.470676 
L 565.222033 445.711771 
L 577.093673 448.643613 
L 590.695934 451.633542 
L 605.649637 454.623371 
L 621.677171 457.540762 
L 638.596034 460.10351 
L 658.962427 462.996012 
L 680.141877 465.640042 
L 703.611677 468.276928 
L 726.755522 471.810527 
L 742.200319 472.947088 
L 811.431563 475.27797 
L 811.431563 475.27797 
" style="fill:none;stroke:#ffbc79;stroke-linecap:square;stroke-width:3;"/>
   </g>
   <g id="line2d_36">
    <g clip-path="url(#p36390c4623)">
     <use style="fill-opacity:0.3;" x="596.508161" xlink:href="#m904bc0f41d" y="416.253915"/>
    </g>
   </g>
   <g id="patch_18">
    <path d="M 465.577812 594.911693 
L 465.577812 326.925026 
" style="fill:none;stroke:#6a737d;stroke-linecap:square;stroke-linejoin:miter;stroke-width:1.4;"/>
   </g>
   <g id="patch_19">
    <path d="M 811.431563 594.911693 
L 811.431563 326.925026 
" style="fill:none;stroke:#6a737d;stroke-linecap:square;stroke-linejoin:miter;stroke-width:1.4;"/>
   </g>
   <g id="patch_20">
    <path d="M 465.577812 594.911693 
L 811.431563 594.911693 
" style="fill:none;stroke:#6a737d;stroke-linecap:square;stroke-linejoin:miter;stroke-width:1.4;"/>
   </g>
   <g id="patch_21">
    <path d="M 465.577812 326.925026 
L 811.431563 326.925026 
" style="fill:none;stroke:#6a737d;stroke-linecap:square;stroke-linejoin:miter;stroke-width:1.4;"/>
   </g>
   <g id="text_14">
    <!-- Kepler-117c  -->
    <g transform="translate(662.624937 358.148964)scale(0.18 -0.18)">
     <use xlink:href="#DejaVuSans-75"/>
     <use x="65.498047" xlink:href="#DejaVuSans-101"/>
     <use x="127.021484" xlink:href="#DejaVuSans-112"/>
     <use x="190.498047" xlink:href="#DejaVuSans-108"/>
     <use x="218.28125" xlink:href="#DejaVuSans-101"/>
     <use x="279.804688" xlink:href="#DejaVuSans-114"/>
     <use x="320.824219" xlink:href="#DejaVuSans-45"/>
     <use x="356.908203" xlink:href="#DejaVuSans-49"/>
     <use x="420.53125" xlink:href="#DejaVuSans-49"/>
     <use x="484.154297" xlink:href="#DejaVuSans-55"/>
     <use x="547.777344" xlink:href="#DejaVuSans-99"/>
     <use x="602.757812" xlink:href="#DejaVuSans-32"/>
    </g>
    <!-- 5.8$\times$$10^7$ erg/s/cm$^2$  -->
    <g transform="translate(602.426188 381.548401)scale(0.18 -0.18)">
     <use transform="translate(0 0.765625)" xlink:href="#DejaVuSans-53"/>
     <use transform="translate(63.623047 0.765625)" xlink:href="#DejaVuSans-46"/>
     <use transform="translate(95.378906 0.765625)" xlink:href="#DejaVuSans-56"/>
     <use transform="translate(159.001953 0.765625)" xlink:href="#DejaVuSans-215"/>
     <use transform="translate(242.791016 0.765625)" xlink:href="#DejaVuSans-49"/>
     <use transform="translate(306.414062 0.765625)" xlink:href="#DejaVuSans-48"/>
     <use transform="translate(370.994141 39.046875)scale(0.7)" xlink:href="#DejaVuSans-55"/>
     <use transform="translate(418.264648 0.765625)" xlink:href="#DejaVuSans-32"/>
     <use transform="translate(450.051758 0.765625)" xlink:href="#DejaVuSans-101"/>
     <use transform="translate(511.575195 0.765625)" xlink:href="#DejaVuSans-114"/>
     <use transform="translate(552.688477 0.765625)" xlink:href="#DejaVuSans-103"/>
     <use transform="translate(616.165039 0.765625)" xlink:href="#DejaVuSans-47"/>
     <use transform="translate(649.856445 0.765625)" xlink:href="#DejaVuSans-115"/>
     <use transform="translate(701.956055 0.765625)" xlink:href="#DejaVuSans-47"/>
     <use transform="translate(735.647461 0.765625)" xlink:href="#DejaVuSans-99"/>
     <use transform="translate(790.62793 0.765625)" xlink:href="#DejaVuSans-109"/>
     <use transform="translate(888.99707 39.046875)scale(0.7)" xlink:href="#DejaVuSans-50"/>
     <use transform="translate(936.267578 0.765625)" xlink:href="#DejaVuSans-32"/>
    </g>
    <!-- 1.8 $M_J$ -->
    <g transform="translate(722.666187 401.741026)scale(0.18 -0.18)">
     <use transform="translate(0 0.78125)" xlink:href="#DejaVuSans-49"/>
     <use transform="translate(63.623047 0.78125)" xlink:href="#DejaVuSans-46"/>
     <use transform="translate(95.378906 0.78125)" xlink:href="#DejaVuSans-56"/>
     <use transform="translate(159.001953 0.78125)" xlink:href="#DejaVuSans-32"/>
     <use transform="translate(190.789062 0.78125)" xlink:href="#DejaVuSans-Oblique-77"/>
     <use transform="translate(277.068359 -15.625)scale(0.7)" xlink:href="#DejaVuSans-Oblique-74"/>
    </g>
   </g>
  </g>
  <g id="axes_5">
   <g id="patch_22">
    <path d="M 83.276563 906.658359 
L 429.130312 906.658359 
L 429.130312 638.671693 
L 83.276563 638.671693 
z
" style="fill:none;"/>
   </g>
   <g id="matplotlib.axis_9">
    <g id="xtick_13">
     <g id="line2d_37">
      <g>
       <use style="fill:#3f3d46;stroke:#3f3d46;" x="83.276563" xlink:href="#me6fc3141ee" y="906.658359"/>
      </g>
     </g>
     <g id="text_15">
      <!-- 0 -->
      <g style="fill:#3f3d46;" transform="translate(76.595938 935.615078)scale(0.21 -0.21)">
       <use xlink:href="#DejaVuSans-48"/>
      </g>
     </g>
    </g>
    <g id="xtick_14">
     <g id="line2d_38">
      <g>
       <use style="fill:#3f3d46;stroke:#3f3d46;" x="206.795759" xlink:href="#me6fc3141ee" y="906.658359"/>
      </g>
     </g>
     <g id="text_16">
      <!-- 5 -->
      <g style="fill:#3f3d46;" transform="translate(200.115134 935.615078)scale(0.21 -0.21)">
       <use xlink:href="#DejaVuSans-53"/>
      </g>
     </g>
    </g>
    <g id="xtick_15">
     <g id="line2d_39">
      <g>
       <use style="fill:#3f3d46;stroke:#3f3d46;" x="330.314955" xlink:href="#me6fc3141ee" y="906.658359"/>
      </g>
     </g>
     <g id="text_17">
      <!-- 10 -->
      <g style="fill:#3f3d46;" transform="translate(316.953705 935.615078)scale(0.21 -0.21)">
       <use xlink:href="#DejaVuSans-49"/>
       <use x="63.623047" xlink:href="#DejaVuSans-48"/>
      </g>
     </g>
    </g>
    <g id="text_18">
     <!-- Age [Gyr] -->
     <defs>
      <path d="M 59.515625 10.40625 
L 59.515625 29.984375 
L 43.40625 29.984375 
L 43.40625 38.09375 
L 69.28125 38.09375 
L 69.28125 6.78125 
Q 63.578125 2.734375 56.6875 0.65625 
Q 49.8125 -1.421875 42 -1.421875 
Q 24.90625 -1.421875 15.25 8.5625 
Q 5.609375 18.5625 5.609375 36.375 
Q 5.609375 54.25 15.25 64.234375 
Q 24.90625 74.21875 42 74.21875 
Q 49.125 74.21875 55.546875 72.453125 
Q 61.96875 70.703125 67.390625 67.28125 
L 67.390625 56.78125 
Q 61.921875 61.421875 55.765625 63.765625 
Q 49.609375 66.109375 42.828125 66.109375 
Q 29.4375 66.109375 22.71875 58.640625 
Q 16.015625 51.171875 16.015625 36.375 
Q 16.015625 21.625 22.71875 14.15625 
Q 29.4375 6.6875 42.828125 6.6875 
Q 48.046875 6.6875 52.140625 7.59375 
Q 56.25 8.5 59.515625 10.40625 
z
" id="DejaVuSans-71"/>
      <path d="M 32.171875 -5.078125 
Q 28.375 -14.84375 24.75 -17.8125 
Q 21.140625 -20.796875 15.09375 -20.796875 
L 7.90625 -20.796875 
L 7.90625 -13.28125 
L 13.1875 -13.28125 
Q 16.890625 -13.28125 18.9375 -11.515625 
Q 21 -9.765625 23.484375 -3.21875 
L 25.09375 0.875 
L 2.984375 54.6875 
L 12.5 54.6875 
L 29.59375 11.921875 
L 46.6875 54.6875 
L 56.203125 54.6875 
z
" id="DejaVuSans-121"/>
     </defs>
     <g style="fill:#3f3d46;" transform="translate(198.481562 962.218672)scale(0.24 -0.24)">
      <use xlink:href="#DejaVuSans-65"/>
      <use x="68.408203" xlink:href="#DejaVuSans-103"/>
      <use x="131.884766" xlink:href="#DejaVuSans-101"/>
      <use x="193.408203" xlink:href="#DejaVuSans-32"/>
      <use x="225.195312" xlink:href="#DejaVuSans-91"/>
      <use x="264.208984" xlink:href="#DejaVuSans-71"/>
      <use x="341.699219" xlink:href="#DejaVuSans-121"/>
      <use x="400.878906" xlink:href="#DejaVuSans-114"/>
      <use x="441.992188" xlink:href="#DejaVuSans-93"/>
     </g>
    </g>
   </g>
   <g id="matplotlib.axis_10">
    <g id="ytick_17">
     <g id="line2d_40">
      <g>
       <use style="fill:#3f3d46;stroke:#3f3d46;" x="83.276563" xlink:href="#m944bf7c8d8" y="906.658359"/>
      </g>
     </g>
     <g id="text_19">
      <!-- 0.9 -->
      <g style="fill:#3f3d46;" transform="translate(36.88 914.636719)scale(0.21 -0.21)">
       <use xlink:href="#DejaVuSans-48"/>
       <use x="63.623047" xlink:href="#DejaVuSans-46"/>
       <use x="95.410156" xlink:href="#DejaVuSans-57"/>
      </g>
     </g>
    </g>
    <g id="ytick_18">
     <g id="line2d_41">
      <g>
       <use style="fill:#3f3d46;stroke:#3f3d46;" x="83.276563" xlink:href="#m944bf7c8d8" y="817.32947"/>
      </g>
     </g>
     <g id="text_20">
      <!-- 1.0 -->
      <g style="fill:#3f3d46;" transform="translate(36.88 825.30783)scale(0.21 -0.21)">
       <use xlink:href="#DejaVuSans-49"/>
       <use x="63.623047" xlink:href="#DejaVuSans-46"/>
       <use x="95.410156" xlink:href="#DejaVuSans-48"/>
      </g>
     </g>
    </g>
    <g id="ytick_19">
     <g id="line2d_42">
      <g>
       <use style="fill:#3f3d46;stroke:#3f3d46;" x="83.276563" xlink:href="#m944bf7c8d8" y="728.000582"/>
      </g>
     </g>
     <g id="text_21">
      <!-- 1.1 -->
      <g style="fill:#3f3d46;" transform="translate(36.88 735.978941)scale(0.21 -0.21)">
       <use xlink:href="#DejaVuSans-49"/>
       <use x="63.623047" xlink:href="#DejaVuSans-46"/>
       <use x="95.410156" xlink:href="#DejaVuSans-49"/>
      </g>
     </g>
    </g>
    <g id="ytick_20">
     <g id="line2d_43">
      <g>
       <use style="fill:#3f3d46;stroke:#3f3d46;" x="83.276563" xlink:href="#m944bf7c8d8" y="638.671693"/>
      </g>
     </g>
     <g id="text_22">
      <!-- 1.2 -->
      <g style="fill:#3f3d46;" transform="translate(36.88 646.650052)scale(0.21 -0.21)">
       <use xlink:href="#DejaVuSans-49"/>
       <use x="63.623047" xlink:href="#DejaVuSans-46"/>
       <use x="95.410156" xlink:href="#DejaVuSans-50"/>
      </g>
     </g>
    </g>
    <g id="text_23">
     <!-- Radius  [$R_J$] -->
     <g style="fill:#3f3d46;" transform="translate(25.44 841.305026)rotate(-90)scale(0.24 -0.24)">
      <use transform="translate(0 0.015625)" xlink:href="#DejaVuSans-82"/>
      <use transform="translate(69.482422 0.015625)" xlink:href="#DejaVuSans-97"/>
      <use transform="translate(130.761719 0.015625)" xlink:href="#DejaVuSans-100"/>
      <use transform="translate(194.238281 0.015625)" xlink:href="#DejaVuSans-105"/>
      <use transform="translate(222.021484 0.015625)" xlink:href="#DejaVuSans-117"/>
      <use transform="translate(285.400391 0.015625)" xlink:href="#DejaVuSans-115"/>
      <use transform="translate(337.5 0.015625)" xlink:href="#DejaVuSans-32"/>
      <use transform="translate(369.287109 0.015625)" xlink:href="#DejaVuSans-32"/>
      <use transform="translate(401.074219 0.015625)" xlink:href="#DejaVuSans-91"/>
      <use transform="translate(440.087891 0.015625)" xlink:href="#DejaVuSans-Oblique-82"/>
      <use transform="translate(509.570312 -16.390625)scale(0.7)" xlink:href="#DejaVuSans-Oblique-74"/>
      <use transform="translate(532.949219 0.015625)" xlink:href="#DejaVuSans-93"/>
     </g>
    </g>
   </g>
   <g id="LineCollection_9">
    <path clip-path="url(#p8e6acd7374)" d="M 179.621536 763.732137 
L 204.325375 763.732137 
" style="fill:none;stroke:#000000;stroke-opacity:0.3;stroke-width:3;"/>
   </g>
   <g id="LineCollection_10">
    <path clip-path="url(#p8e6acd7374)" d="M 191.973455 772.665026 
L 191.973455 754.799248 
" style="fill:none;stroke:#000000;stroke-opacity:0.3;stroke-width:3;"/>
   </g>
   <g id="line2d_44">
    <path clip-path="url(#p8e6acd7374)" d="M 83.286341 -1 
L 83.408667 436.623873 
L 83.633842 526.842725 
L 83.9478 572.109695 
L 84.381068 603.886897 
L 85.097759 635.722199 
L 85.930244 660.316927 
L 86.547563 673.352477 
L 87.294742 685.582783 
L 88.250916 697.070215 
L 88.98704 703.952735 
L 90.394754 714.610361 
L 91.545645 720.813183 
L 92.996773 727.630233 
L 94.540934 733.314001 
L 96.501984 739.194964 
L 98.819283 744.630389 
L 100.22401 747.50278 
L 101.673778 750.18607 
L 103.220486 752.697801 
L 104.970565 755.213316 
L 106.962515 757.819051 
L 109.115591 760.311412 
L 114.150321 765.166624 
L 117.012142 767.581925 
L 120.022522 769.703849 
L 123.754721 772.0974 
L 127.814308 774.48283 
L 132.025062 776.687365 
L 136.710457 778.96214 
L 141.453862 780.845819 
L 154.500613 785.286267 
L 161.232224 787.239362 
L 177.924576 791.380834 
L 185.329874 793.932193 
L 190.091015 796.199675 
L 193.815286 796.498779 
L 218.021499 797.673751 
L 290.300861 800.858419 
L 337.535005 802.887625 
L 429.130312 806.408627 
L 429.130312 806.408627 
" style="fill:none;stroke:#ffbc79;stroke-linecap:square;stroke-width:3;"/>
   </g>
   <g id="line2d_45">
    <g clip-path="url(#p8e6acd7374)">
     <use style="fill-opacity:0.3;" x="191.973455" xlink:href="#m904bc0f41d" y="763.732137"/>
    </g>
   </g>
   <g id="patch_23">
    <path d="M 83.276563 906.658359 
L 83.276563 638.671693 
" style="fill:none;stroke:#6a737d;stroke-linecap:square;stroke-linejoin:miter;stroke-width:1.4;"/>
   </g>
   <g id="patch_24">
    <path d="M 429.130312 906.658359 
L 429.130312 638.671693 
" style="fill:none;stroke:#6a737d;stroke-linecap:square;stroke-linejoin:miter;stroke-width:1.4;"/>
   </g>
   <g id="patch_25">
    <path d="M 83.276563 906.658359 
L 429.130312 906.658359 
" style="fill:none;stroke:#6a737d;stroke-linecap:square;stroke-linejoin:miter;stroke-width:1.4;"/>
   </g>
   <g id="patch_26">
    <path d="M 83.276563 638.671693 
L 429.130312 638.671693 
" style="fill:none;stroke:#6a737d;stroke-linecap:square;stroke-linejoin:miter;stroke-width:1.4;"/>
   </g>
   <g id="text_24">
    <!-- Kepler-1647b  -->
    <defs>
     <path d="M 37.796875 64.3125 
L 12.890625 25.390625 
L 37.796875 25.390625 
z
M 35.203125 72.90625 
L 47.609375 72.90625 
L 47.609375 25.390625 
L 58.015625 25.390625 
L 58.015625 17.1875 
L 47.609375 17.1875 
L 47.609375 0 
L 37.796875 0 
L 37.796875 17.1875 
L 4.890625 17.1875 
L 4.890625 26.703125 
z
" id="DejaVuSans-52"/>
    </defs>
    <g transform="translate(267.341187 669.89563)scale(0.18 -0.18)">
     <use xlink:href="#DejaVuSans-75"/>
     <use x="65.498047" xlink:href="#DejaVuSans-101"/>
     <use x="127.021484" xlink:href="#DejaVuSans-112"/>
     <use x="190.498047" xlink:href="#DejaVuSans-108"/>
     <use x="218.28125" xlink:href="#DejaVuSans-101"/>
     <use x="279.804688" xlink:href="#DejaVuSans-114"/>
     <use x="320.824219" xlink:href="#DejaVuSans-45"/>
     <use x="356.908203" xlink:href="#DejaVuSans-49"/>
     <use x="420.53125" xlink:href="#DejaVuSans-54"/>
     <use x="484.154297" xlink:href="#DejaVuSans-52"/>
     <use x="547.777344" xlink:href="#DejaVuSans-55"/>
     <use x="611.400391" xlink:href="#DejaVuSans-98"/>
     <use x="674.876953" xlink:href="#DejaVuSans-32"/>
    </g>
    <!-- 7.9$\times$$10^5$ erg/s/cm$^2$  -->
    <g transform="translate(220.124937 693.295068)scale(0.18 -0.18)">
     <use transform="translate(0 0.765625)" xlink:href="#DejaVuSans-55"/>
     <use transform="translate(63.623047 0.765625)" xlink:href="#DejaVuSans-46"/>
     <use transform="translate(95.410156 0.765625)" xlink:href="#DejaVuSans-57"/>
     <use transform="translate(159.033203 0.765625)" xlink:href="#DejaVuSans-215"/>
     <use transform="translate(242.822266 0.765625)" xlink:href="#DejaVuSans-49"/>
     <use transform="translate(306.445312 0.765625)" xlink:href="#DejaVuSans-48"/>
     <use transform="translate(371.025391 39.046875)scale(0.7)" xlink:href="#DejaVuSans-53"/>
     <use transform="translate(418.295898 0.765625)" xlink:href="#DejaVuSans-32"/>
     <use transform="translate(450.083008 0.765625)" xlink:href="#DejaVuSans-101"/>
     <use transform="translate(511.606445 0.765625)" xlink:href="#DejaVuSans-114"/>
     <use transform="translate(552.719727 0.765625)" xlink:href="#DejaVuSans-103"/>
     <use transform="translate(616.196289 0.765625)" xlink:href="#DejaVuSans-47"/>
     <use transform="translate(649.887695 0.765625)" xlink:href="#DejaVuSans-115"/>
     <use transform="translate(701.987305 0.765625)" xlink:href="#DejaVuSans-47"/>
     <use transform="translate(735.678711 0.765625)" xlink:href="#DejaVuSans-99"/>
     <use transform="translate(790.65918 0.765625)" xlink:href="#DejaVuSans-109"/>
     <use transform="translate(889.02832 39.046875)scale(0.7)" xlink:href="#DejaVuSans-50"/>
     <use transform="translate(936.298828 0.765625)" xlink:href="#DejaVuSans-32"/>
    </g>
    <!-- 1.5 $M_J$ -->
    <g transform="translate(340.364937 713.487693)scale(0.18 -0.18)">
     <use transform="translate(0 0.09375)" xlink:href="#DejaVuSans-49"/>
     <use transform="translate(63.623047 0.09375)" xlink:href="#DejaVuSans-46"/>
     <use transform="translate(95.410156 0.09375)" xlink:href="#DejaVuSans-53"/>
     <use transform="translate(159.033203 0.09375)" xlink:href="#DejaVuSans-32"/>
     <use transform="translate(190.820312 0.09375)" xlink:href="#DejaVuSans-Oblique-77"/>
     <use transform="translate(277.099609 -16.3125)scale(0.7)" xlink:href="#DejaVuSans-Oblique-74"/>
    </g>
   </g>
  </g>
  <g id="axes_6">
   <g id="patch_27">
    <path d="M 465.577812 906.658359 
L 811.431563 906.658359 
L 811.431563 638.671693 
L 465.577812 638.671693 
z
" style="fill:none;"/>
   </g>
   <g id="matplotlib.axis_11">
    <g id="xtick_16">
     <g id="line2d_46">
      <g>
       <use style="fill:#3f3d46;stroke:#3f3d46;" x="465.577812" xlink:href="#me6fc3141ee" y="906.658359"/>
      </g>
     </g>
     <g id="text_25">
      <!-- 0 -->
      <g style="fill:#3f3d46;" transform="translate(458.897187 935.615078)scale(0.21 -0.21)">
       <use xlink:href="#DejaVuSans-48"/>
      </g>
     </g>
    </g>
    <g id="xtick_17">
     <g id="line2d_47">
      <g>
       <use style="fill:#3f3d46;stroke:#3f3d46;" x="589.097009" xlink:href="#me6fc3141ee" y="906.658359"/>
      </g>
     </g>
     <g id="text_26">
      <!-- 5 -->
      <g style="fill:#3f3d46;" transform="translate(582.416384 935.615078)scale(0.21 -0.21)">
       <use xlink:href="#DejaVuSans-53"/>
      </g>
     </g>
    </g>
    <g id="xtick_18">
     <g id="line2d_48">
      <g>
       <use style="fill:#3f3d46;stroke:#3f3d46;" x="712.616205" xlink:href="#me6fc3141ee" y="906.658359"/>
      </g>
     </g>
     <g id="text_27">
      <!-- 10 -->
      <g style="fill:#3f3d46;" transform="translate(699.254955 935.615078)scale(0.21 -0.21)">
       <use xlink:href="#DejaVuSans-49"/>
       <use x="63.623047" xlink:href="#DejaVuSans-48"/>
      </g>
     </g>
    </g>
    <g id="text_28">
     <!-- Age [Gyr] -->
     <g style="fill:#3f3d46;" transform="translate(580.782813 962.218672)scale(0.24 -0.24)">
      <use xlink:href="#DejaVuSans-65"/>
      <use x="68.408203" xlink:href="#DejaVuSans-103"/>
      <use x="131.884766" xlink:href="#DejaVuSans-101"/>
      <use x="193.408203" xlink:href="#DejaVuSans-32"/>
      <use x="225.195312" xlink:href="#DejaVuSans-91"/>
      <use x="264.208984" xlink:href="#DejaVuSans-71"/>
      <use x="341.699219" xlink:href="#DejaVuSans-121"/>
      <use x="400.878906" xlink:href="#DejaVuSans-114"/>
      <use x="441.992188" xlink:href="#DejaVuSans-93"/>
     </g>
    </g>
   </g>
   <g id="matplotlib.axis_12">
    <g id="ytick_21">
     <g id="line2d_49">
      <g>
       <use style="fill:#3f3d46;stroke:#3f3d46;" x="465.577812" xlink:href="#m944bf7c8d8" y="906.658359"/>
      </g>
     </g>
    </g>
    <g id="ytick_22">
     <g id="line2d_50">
      <g>
       <use style="fill:#3f3d46;stroke:#3f3d46;" x="465.577812" xlink:href="#m944bf7c8d8" y="817.32947"/>
      </g>
     </g>
    </g>
    <g id="ytick_23">
     <g id="line2d_51">
      <g>
       <use style="fill:#3f3d46;stroke:#3f3d46;" x="465.577812" xlink:href="#m944bf7c8d8" y="728.000582"/>
      </g>
     </g>
    </g>
    <g id="ytick_24">
     <g id="line2d_52">
      <g>
       <use style="fill:#3f3d46;stroke:#3f3d46;" x="465.577812" xlink:href="#m944bf7c8d8" y="638.671693"/>
      </g>
     </g>
    </g>
   </g>
   <g id="LineCollection_11">
    <path clip-path="url(#p19adef230a)" d="M 477.929732 763.732137 
L 564.39317 763.732137 
" style="fill:none;stroke:#000000;stroke-opacity:0.3;stroke-width:3;"/>
   </g>
   <g id="LineCollection_12">
    <path clip-path="url(#p19adef230a)" d="M 521.161451 808.396582 
L 521.161451 719.067693 
" style="fill:none;stroke:#000000;stroke-opacity:0.3;stroke-width:3;"/>
   </g>
   <g id="line2d_53">
    <path clip-path="url(#p19adef230a)" d="M 465.600255 -1 
L 465.743531 314.554247 
L 465.965703 438.086377 
L 466.305589 514.27264 
L 466.825255 571.215558 
L 467.5168 613.099664 
L 468.285114 641.481187 
L 468.973829 659.383294 
L 469.82707 676.231012 
L 471.61654 701.114182 
L 472.323118 707.837938 
L 474.23438 723.341947 
L 475.284955 730.606482 
L 476.480184 736.860274 
L 479.594925 751.032882 
L 481.344435 757.140465 
L 485.870414 770.208619 
L 488.431498 776.490487 
L 491.317321 782.378044 
L 494.61918 788.651472 
L 498.158403 794.413019 
L 502.164331 800.24661 
L 506.550525 805.981834 
L 511.375314 811.251491 
L 516.769441 816.796554 
L 522.651256 822.009025 
L 529.064409 827.1801 
L 536.159426 831.742838 
L 544.265985 837.207216 
L 552.622499 841.338577 
L 562.398488 847.093855 
L 571.086849 854.302017 
L 577.363946 860.409189 
L 582.438462 862.908197 
L 589.161239 863.866499 
L 612.78239 866.437477 
L 632.856496 868.968259 
L 659.700906 872.88508 
L 689.556179 876.383266 
L 724.494937 879.858442 
L 764.7877 883.28068 
L 811.431563 886.831198 
L 811.431563 886.831198 
" style="fill:none;stroke:#ffbc79;stroke-linecap:square;stroke-width:3;"/>
   </g>
   <g id="line2d_54">
    <g clip-path="url(#p19adef230a)">
     <use style="fill-opacity:0.3;" x="521.161451" xlink:href="#m904bc0f41d" y="763.732137"/>
    </g>
   </g>
   <g id="patch_28">
    <path d="M 465.577812 906.658359 
L 465.577812 638.671693 
" style="fill:none;stroke:#6a737d;stroke-linecap:square;stroke-linejoin:miter;stroke-width:1.4;"/>
   </g>
   <g id="patch_29">
    <path d="M 811.431563 906.658359 
L 811.431563 638.671693 
" style="fill:none;stroke:#6a737d;stroke-linecap:square;stroke-linejoin:miter;stroke-width:1.4;"/>
   </g>
   <g id="patch_30">
    <path d="M 465.577812 906.658359 
L 811.431563 906.658359 
" style="fill:none;stroke:#6a737d;stroke-linecap:square;stroke-linejoin:miter;stroke-width:1.4;"/>
   </g>
   <g id="patch_31">
    <path d="M 465.577812 638.671693 
L 811.431563 638.671693 
" style="fill:none;stroke:#6a737d;stroke-linecap:square;stroke-linejoin:miter;stroke-width:1.4;"/>
   </g>
   <g id="text_29">
    <!-- WASP-69b  -->
    <defs>
     <path d="M 3.328125 72.90625 
L 13.28125 72.90625 
L 28.609375 11.28125 
L 43.890625 72.90625 
L 54.984375 72.90625 
L 70.3125 11.28125 
L 85.59375 72.90625 
L 95.609375 72.90625 
L 77.296875 0 
L 64.890625 0 
L 49.515625 63.28125 
L 33.984375 0 
L 21.578125 0 
z
" id="DejaVuSans-87"/>
     <path d="M 53.515625 70.515625 
L 53.515625 60.890625 
Q 47.90625 63.578125 42.921875 64.890625 
Q 37.9375 66.21875 33.296875 66.21875 
Q 25.25 66.21875 20.875 63.09375 
Q 16.5 59.96875 16.5 54.203125 
Q 16.5 49.359375 19.40625 46.890625 
Q 22.3125 44.4375 30.421875 42.921875 
L 36.375 41.703125 
Q 47.40625 39.59375 52.65625 34.296875 
Q 57.90625 29 57.90625 20.125 
Q 57.90625 9.515625 50.796875 4.046875 
Q 43.703125 -1.421875 29.984375 -1.421875 
Q 24.8125 -1.421875 18.96875 -0.25 
Q 13.140625 0.921875 6.890625 3.21875 
L 6.890625 13.375 
Q 12.890625 10.015625 18.65625 8.296875 
Q 24.421875 6.59375 29.984375 6.59375 
Q 38.421875 6.59375 43.015625 9.90625 
Q 47.609375 13.234375 47.609375 19.390625 
Q 47.609375 24.75 44.3125 27.78125 
Q 41.015625 30.8125 33.5 32.328125 
L 27.484375 33.5 
Q 16.453125 35.6875 11.515625 40.375 
Q 6.59375 45.0625 6.59375 53.421875 
Q 6.59375 63.09375 13.40625 68.65625 
Q 20.21875 74.21875 32.171875 74.21875 
Q 37.3125 74.21875 42.625 73.28125 
Q 47.953125 72.359375 53.515625 70.515625 
z
" id="DejaVuSans-83"/>
    </defs>
    <g transform="translate(677.92775 669.89563)scale(0.18 -0.18)">
     <use xlink:href="#DejaVuSans-87"/>
     <use x="98.798828" xlink:href="#DejaVuSans-65"/>
     <use x="167.207031" xlink:href="#DejaVuSans-83"/>
     <use x="230.683594" xlink:href="#DejaVuSans-80"/>
     <use x="290.955078" xlink:href="#DejaVuSans-45"/>
     <use x="327.039062" xlink:href="#DejaVuSans-54"/>
     <use x="390.662109" xlink:href="#DejaVuSans-57"/>
     <use x="454.285156" xlink:href="#DejaVuSans-98"/>
     <use x="517.761719" xlink:href="#DejaVuSans-32"/>
    </g>
    <!-- 1.9$\times$$10^8$ erg/s/cm$^2$  -->
    <g transform="translate(602.426188 693.295068)scale(0.18 -0.18)">
     <use transform="translate(0 0.765625)" xlink:href="#DejaVuSans-49"/>
     <use transform="translate(63.623047 0.765625)" xlink:href="#DejaVuSans-46"/>
     <use transform="translate(95.410156 0.765625)" xlink:href="#DejaVuSans-57"/>
     <use transform="translate(159.033203 0.765625)" xlink:href="#DejaVuSans-215"/>
     <use transform="translate(242.822266 0.765625)" xlink:href="#DejaVuSans-49"/>
     <use transform="translate(306.445312 0.765625)" xlink:href="#DejaVuSans-48"/>
     <use transform="translate(371.025391 39.046875)scale(0.7)" xlink:href="#DejaVuSans-56"/>
     <use transform="translate(418.295898 0.765625)" xlink:href="#DejaVuSans-32"/>
     <use transform="translate(450.083008 0.765625)" xlink:href="#DejaVuSans-101"/>
     <use transform="translate(511.606445 0.765625)" xlink:href="#DejaVuSans-114"/>
     <use transform="translate(552.719727 0.765625)" xlink:href="#DejaVuSans-103"/>
     <use transform="translate(616.196289 0.765625)" xlink:href="#DejaVuSans-47"/>
     <use transform="translate(649.887695 0.765625)" xlink:href="#DejaVuSans-115"/>
     <use transform="translate(701.987305 0.765625)" xlink:href="#DejaVuSans-47"/>
     <use transform="translate(735.678711 0.765625)" xlink:href="#DejaVuSans-99"/>
     <use transform="translate(790.65918 0.765625)" xlink:href="#DejaVuSans-109"/>
     <use transform="translate(889.02832 39.046875)scale(0.7)" xlink:href="#DejaVuSans-50"/>
     <use transform="translate(936.298828 0.765625)" xlink:href="#DejaVuSans-32"/>
    </g>
    <!-- 0.3 $M_J$ -->
    <defs>
     <path d="M 40.578125 39.3125 
Q 47.65625 37.796875 51.625 33 
Q 55.609375 28.21875 55.609375 21.1875 
Q 55.609375 10.40625 48.1875 4.484375 
Q 40.765625 -1.421875 27.09375 -1.421875 
Q 22.515625 -1.421875 17.65625 -0.515625 
Q 12.796875 0.390625 7.625 2.203125 
L 7.625 11.71875 
Q 11.71875 9.328125 16.59375 8.109375 
Q 21.484375 6.890625 26.8125 6.890625 
Q 36.078125 6.890625 40.9375 10.546875 
Q 45.796875 14.203125 45.796875 21.1875 
Q 45.796875 27.640625 41.28125 31.265625 
Q 36.765625 34.90625 28.71875 34.90625 
L 20.21875 34.90625 
L 20.21875 43.015625 
L 29.109375 43.015625 
Q 36.375 43.015625 40.234375 45.921875 
Q 44.09375 48.828125 44.09375 54.296875 
Q 44.09375 59.90625 40.109375 62.90625 
Q 36.140625 65.921875 28.71875 65.921875 
Q 24.65625 65.921875 20.015625 65.03125 
Q 15.375 64.15625 9.8125 62.3125 
L 9.8125 71.09375 
Q 15.4375 72.65625 20.34375 73.4375 
Q 25.25 74.21875 29.59375 74.21875 
Q 40.828125 74.21875 47.359375 69.109375 
Q 53.90625 64.015625 53.90625 55.328125 
Q 53.90625 49.265625 50.4375 45.09375 
Q 46.96875 40.921875 40.578125 39.3125 
z
" id="DejaVuSans-51"/>
    </defs>
    <g transform="translate(722.666187 713.487693)scale(0.18 -0.18)">
     <use transform="translate(0 0.78125)" xlink:href="#DejaVuSans-48"/>
     <use transform="translate(63.623047 0.78125)" xlink:href="#DejaVuSans-46"/>
     <use transform="translate(95.410156 0.78125)" xlink:href="#DejaVuSans-51"/>
     <use transform="translate(159.033203 0.78125)" xlink:href="#DejaVuSans-32"/>
     <use transform="translate(190.820312 0.78125)" xlink:href="#DejaVuSans-Oblique-77"/>
     <use transform="translate(277.099609 -15.625)scale(0.7)" xlink:href="#DejaVuSans-Oblique-74"/>
    </g>
   </g>
  </g>
 </g>
 <defs>
  <clipPath id="pbc2cb0b3e2">
   <rect height="267.986667" width="345.85375" x="83.276563" y="15.178359"/>
  </clipPath>
  <clipPath id="pcf212c5961">
   <rect height="267.986667" width="345.85375" x="465.577812" y="15.178359"/>
  </clipPath>
  <clipPath id="p0f4ef9d1ff">
   <rect height="267.986667" width="345.85375" x="83.276563" y="326.925026"/>
  </clipPath>
  <clipPath id="p36390c4623">
   <rect height="267.986667" width="345.85375" x="465.577812" y="326.925026"/>
  </clipPath>
  <clipPath id="p8e6acd7374">
   <rect height="267.986667" width="345.85375" x="83.276563" y="638.671693"/>
  </clipPath>
  <clipPath id="p19adef230a">
   <rect height="267.986667" width="345.85375" x="465.577812" y="638.671693"/>
  </clipPath>
 </defs>
</svg>
